<svg width="16" height="16" viewBox="0 0 16 16" version="1.1" xmlns="http://www.w3.org/2000/svg" xmlns:xlink="http://www.w3.org/1999/xlink">
<title>foreign</title>
<desc>Created using Figma</desc>
<g id="Canvas" transform="translate(-2644 -4905)">
<g id="foreign">
<g id="Shape">
<use xlink:href="#path0_fill" transform="translate(2650 4905)" fill="#221FAA"/>
</g>
<g id="Shape">
<use xlink:href="#path1_fill" transform="translate(2644 4908)" fill="#221FAA"/>
</g>
</g>
</g>
<defs>
<path id="path0_fill" d="M 9.28568 0L 3.5714 0C 3.17691 0 2.8571 0.31981 2.8571 0.714294C 2.8571 1.10878 3.17691 1.42859 3.5714 1.42859L 7.56125 1.42859L 0.209219 8.78067C -0.0697397 9.05963 -0.0697397 9.51184 0.209219 9.7908C 0.348652 9.93027 0.531453 10 0.714254 10C 0.897056 10 1.07989 9.9303 1.21935 9.79077L 8.57141 2.43872L 8.57141 6.42859C 8.57141 6.82307 8.89122 7.14288 9.28571 7.14288C 9.68019 7.14288 10 6.82307 10 6.42859L 10 0.714294C 9.99997 0.31981 9.68016 0 9.28568 0Z"/>
<path id="path1_fill" d="M 12.2777 4.33332C 11.8789 4.33332 11.5555 4.65669 11.5555 5.05555L 11.5555 11.5556L 1.44443 11.5556L 1.44443 1.44443L 7.94443 1.44443C 8.34329 1.44443 8.66666 1.12107 8.66666 0.7222C 8.66666 0.323333 8.34329 0 7.94443 0L 0.722229 0C 0.323363 0 0 0.323364 0 0.722231L 0 12.2778C 0 12.6766 0.323363 13 0.722229 13L 12.2778 13C 12.6766 13 13 12.6766 13 12.2778L 13 5.05555C 13 4.65669 12.6766 4.33332 12.2777 4.33332Z"/>
</defs>
</svg>
