<svg width="7" height="20" viewBox="0 0 7 20" version="1.1" xmlns="http://www.w3.org/2000/svg" xmlns:xlink="http://www.w3.org/1999/xlink">
<title>i</title>
<desc>Created using Figma</desc>
<g id="Canvas" transform="translate(-1959 -3838)">
<g id="i">
<use xlink:href="#path0_fill" transform="translate(1958 3832)" fill="#190199"/>
</g>
</g>
<defs>
<path id="path0_fill" d="M 1.475 13.95L 1.475 13.1C 1.725 13 2.05833 12.9 2.475 12.8C 2.89167 12.6833 3.33333 12.5833 3.8 12.5C 4.26667 12.4167 4.725 12.35 5.175 12.3C 5.64167 12.2333 6.05 12.2 6.4 12.2L 6.85 12.5L 4.6 23.275L 6.35 23.275L 6.35 24.125C 6.13333 24.275 5.875 24.4167 5.575 24.55C 5.29167 24.6833 4.98333 24.8 4.65 24.9C 4.33333 25 4.00833 25.075 3.675 25.125C 3.34167 25.1917 3.025 25.225 2.725 25.225C 2.09167 25.225 1.65 25.1083 1.4 24.875C 1.16667 24.625 1.05 24.3583 1.05 24.075C 1.05 23.7417 1.075 23.4167 1.125 23.1C 1.175 22.7833 1.24167 22.4333 1.325 22.05L 3.025 14.3L 1.475 13.95ZM 3.575 8.325C 3.575 7.75833 3.76667 7.31667 4.15 7C 4.53333 6.68333 5.01667 6.525 5.6 6.525C 6.23333 6.525 6.73333 6.68333 7.1 7C 7.48333 7.31667 7.675 7.75833 7.675 8.325C 7.675 8.85833 7.48333 9.28333 7.1 9.6C 6.73333 9.91667 6.23333 10.075 5.6 10.075C 5.01667 10.075 4.53333 9.91667 4.15 9.6C 3.76667 9.28333 3.575 8.85833 3.575 8.325Z"/>
</defs>
</svg>
