<svg width="40" height="31" viewBox="0 0 40 31" version="1.1" xmlns="http://www.w3.org/2000/svg" xmlns:xlink="http://www.w3.org/1999/xlink">
<title>Combined Shape</title>
<desc>Created using Figma</desc>
<g id="Canvas" transform="translate(-1850 2767)">
<g id="Combined Shape">
<use xlink:href="#path0_fill" transform="translate(1850 -2766.21)" fill="#FFFFFF"/>
<mask id="mask0_outline_ins">
<use xlink:href="#path0_fill" fill="white" transform="translate(1850 -2766.21)"/>
</mask>
<g mask="url(#mask0_outline_ins)">
<use xlink:href="#path1_stroke_2x" transform="translate(1850 -2766.21)" fill="#CCCCCC"/>
</g>
</g>
</g>
<defs>
<path id="path0_fill" fill-rule="evenodd" d="M 24.3107 4.20508L 40 4.20508L 40 30.2051L 0 30.2051L 0 4.20508L 15.9005 4.20508L 20.1056 0L 24.3107 4.20508Z"/>
<path id="path1_stroke_2x" d="M 24.3107 4.20508L 23.6036 4.91218L 23.8965 5.20508L 24.3107 5.20508L 24.3107 4.20508ZM 40 4.20508L 41 4.20508L 41 3.20508L 40 3.20508L 40 4.20508ZM 40 30.2051L 40 31.2051L 41 31.2051L 41 30.2051L 40 30.2051ZM 0 30.2051L -1 30.2051L -1 31.2051L 0 31.2051L 0 30.2051ZM 0 4.20508L 0 3.20508L -1 3.20508L -1 4.20508L 0 4.20508ZM 15.9005 4.20508L 15.9005 5.20508L 16.3147 5.20508L 16.6076 4.91218L 15.9005 4.20508ZM 20.1056 0L 20.8127 -0.707107L 20.1056 -1.41421L 19.3985 -0.707107L 20.1056 0ZM 24.3107 5.20508L 40 5.20508L 40 3.20508L 24.3107 3.20508L 24.3107 5.20508ZM 39 4.20508L 39 30.2051L 41 30.2051L 41 4.20508L 39 4.20508ZM 40 29.2051L 0 29.2051L 0 31.2051L 40 31.2051L 40 29.2051ZM 1 30.2051L 1 4.20508L -1 4.20508L -1 30.2051L 1 30.2051ZM 0 5.20508L 15.9005 5.20508L 15.9005 3.20508L 0 3.20508L 0 5.20508ZM 16.6076 4.91218L 20.8127 0.707107L 19.3985 -0.707107L 15.1934 3.49797L 16.6076 4.91218ZM 19.3985 0.707107L 23.6036 4.91218L 25.0178 3.49797L 20.8127 -0.707107L 19.3985 0.707107Z"/>
</defs>
</svg>
