<?xml version="1.0" encoding="UTF-8" standalone="no"?>
<!-- Created with Keyshape -->
<svg xmlns="http://www.w3.org/2000/svg" xmlns:xlink="http://www.w3.org/1999/xlink" width="926px" height="346px" viewBox="0 0 926 346">
    <style>
@keyframes Group-5_t { 0% { transform: translate(137.952px,0px); } 50% { transform: translate(187.952px,0px); } 100% { transform: translate(137.950006px,0px); } }
@keyframes Fill-6_t { 0% { transform: translate(32px,0px); } 50% { transform: translate(42.68808px,0px); } 100% { transform: translate(33.703212px,0px); } }
@keyframes Fill-8_t { 0% { transform: translate(32px,0px); } 50% { transform: translate(42.68808px,0px); } 100% { transform: translate(33.703212px,0px); } }
@keyframes Fill-10_t { 0% { transform: translate(32px,0px); } 50% { transform: translate(68.008674px,0px); } 100% { transform: translate(32.045372px,0px); } }
@keyframes Fill-12_t { 0% { transform: translate(32px,0px); } 50% { transform: translate(41.863543px,0px); } 100% { transform: translate(32px,0px); } }
@keyframes a0_t { 0% { transform: translate(842.955494px,178.039673px) rotate(90deg) translate(-45.32px,-49px); } 100% { transform: translate(842.955494px,178.039673px) rotate(450deg) translate(-45.32px,-49px); } }
@keyframes a1_t { 0% { transform: translate(77.955494px,178.039673px) rotate(0deg) translate(-45.32px,-49px); } 100% { transform: translate(77.955494px,178.039673px) rotate(360deg) translate(-45.32px,-49px); } }
    </style>
    <title>Page 1</title>
    <desc>Created with Sketch.</desc>
    <defs>
        <path id="path-1" d="M0.83936,0.970454L89.0217,0.970454L89.0217,46.7292L0.83936,46.7292L0.83936,0.970454Z"/>
        <path id="path-3" d="M0.0095712,77.5737L21.7462,77.5737L21.7462,0.277994L0.0095712,0.277994Z"/>
    </defs>
    <path id="Fill-1" fill="#D15454" d="M0,281L347,281L347,277L0,277Z" stroke="none" stroke-width="1" fill-rule="evenodd"/>
    <path id="Fill-2" fill="#D15454" d="M579,281L926,281L926,277L579,277Z" stroke="none" stroke-width="1" fill-rule="evenodd"/>
    <g id="Group-5" stroke="none" stroke-width="1" fill="none" fill-rule="evenodd" transform="translate(137.952,0)" style="animation: Group-5_t 6s linear infinite;">
        <mask id="mask-2" fill="white">
            <use xlink:href="#path-1"/>
        </mask>
        <g id="Clip-4"/>
        <path id="Fill-3" d="M15.3672,21.7551C9.63338,21.7551,4.96736,26.4296,4.96736,32.1751C4.96736,37.9193,9.63338,42.5937,15.3672,42.5937L71.1832,42.5937C71.2727,42.5772,71.3635,42.5675,71.4571,42.5648C78.992,42.2863,84.8937,36.1562,84.8937,28.6103C84.8937,20.9005,78.6329,14.627,70.9369,14.627C67.5974,14.627,64.3596,15.8387,61.8223,18.0387C61.3132,18.4812,60.6183,18.6439,59.9661,18.4785C59.3125,18.313,58.7813,17.8389,58.5419,17.2089C55.7982,9.96907,48.7737,5.10577,41.0653,5.10577C31.8572,5.10577,23.9094,11.9913,22.5788,21.121C22.4852,21.7648,22.0944,22.3272,21.5234,22.6374C20.9524,22.9503,20.2699,22.9723,19.6796,22.7021C18.3063,22.0736,16.8546,21.7551,15.3672,21.7551M71.5327,46.7292L15.3672,46.7292C7.35747,46.7292,0.83936,40.1993,0.83936,32.1751C0.83936,24.1482,7.35747,17.6197,15.3672,17.6197C16.5987,17.6197,17.8082,17.7741,18.9888,18.0815C21.5729,8.17153,30.6587,0.970316,41.0653,0.970316C49.5787,0.970316,57.4067,5.82534,61.3022,13.2898C64.1753,11.4716,67.5134,10.4915,70.9369,10.4915C80.9088,10.4915,89.0217,18.6205,89.0217,28.6103C89.0217,38.268,81.5624,46.1364,71.9744,46.6809C71.8313,46.7112,71.6855,46.7292,71.5327,46.7292" fill="#D15454" mask="url(#mask-2)"/>
    </g>
    <path id="Fill-6" d="M70.7524,81.6513C69.6378,81.6513,68.7201,80.7608,68.6912,79.6387C68.6595,78.4973,69.5594,77.5462,70.6987,77.5159L83.8065,77.1671C84.9445,77.1202,85.8953,78.0369,85.9242,79.1797C85.9558,80.3211,85.0573,81.2709,83.9166,81.3012L70.8088,81.6513C70.7896,81.6513,70.7717,81.6513,70.7524,81.6513" fill="#D15454" stroke="none" stroke-width="1" fill-rule="evenodd" transform="translate(32,0)" style="animation: Fill-6_t 6s linear infinite;"/>
    <path id="Fill-8" d="M175.717,102.23L144.006,102.23C142.866,102.23,141.942,101.305,141.942,100.163C141.942,99.0198,142.866,98.0949,144.006,98.0949L175.717,98.0949C176.856,98.0949,177.781,99.0198,177.781,100.163C177.781,101.305,176.856,102.23,175.717,102.23" fill="#D15454" stroke="none" stroke-width="1" fill-rule="evenodd" transform="translate(32,0)" style="animation: Fill-8_t 6s linear infinite;"/>
    <path id="Fill-10" d="M709.883,81.7207L758.585,81.7207C763.446,81.7207,767.402,77.7575,767.402,72.8873C767.402,68.0157,763.446,64.054,758.585,64.054C757.325,64.054,756.095,64.3228,754.929,64.8563C754.337,65.1264,753.655,65.103,753.085,64.7915C752.514,64.4813,752.123,63.9189,752.03,63.2751C750.886,55.4329,744.059,49.5178,736.149,49.5178C729.527,49.5178,723.494,53.696,721.137,59.9144C720.898,60.5457,720.365,61.0199,719.713,61.1853C719.058,61.3494,718.365,61.1853,717.857,60.7442C715.69,58.8654,712.924,57.8301,710.071,57.8301C703.496,57.8301,698.148,63.1897,698.148,69.7747C698.148,76.2219,703.19,81.4574,709.626,81.6945C709.714,81.6986,709.798,81.7069,709.883,81.7207M758.585,85.8561L709.55,85.8561C709.401,85.8561,709.257,85.8409,709.118,85.8106C700.624,85.313,694.02,78.3365,694.02,69.7747C694.02,60.9083,701.221,53.6947,710.071,53.6947C713.015,53.6947,715.888,54.5121,718.382,56.0298C721.872,49.5688,728.715,45.3824,736.149,45.3824C745.265,45.3824,753.238,51.6297,755.609,60.2673C756.582,60.0357,757.575,59.9185,758.585,59.9185C765.722,59.9185,771.53,65.7357,771.53,72.8873C771.53,80.0375,765.722,85.8561,758.585,85.8561" fill="#D15454" stroke="none" stroke-width="1" fill-rule="evenodd" transform="translate(32,0)" style="animation: Fill-10_t 6s linear infinite;"/>
    <path id="Fill-12" d="M845.379,21.4805L813.666,21.4805C812.527,21.4805,811.602,20.5556,811.602,19.4128C811.602,18.27,812.527,17.3451,813.666,17.3451L845.379,17.3451C846.518,17.3451,847.443,18.27,847.443,19.4128C847.443,20.5556,846.518,21.4805,845.379,21.4805" fill="#D15454" stroke="none" stroke-width="1" fill-rule="evenodd" transform="translate(32,0)" style="animation: Fill-12_t 6s linear infinite;"/>
    <path id="Fill-14" d="M530.768,343.519L530.769,343.519L530.769,341.037L319.866,341.037C318.119,341.037,316.647,339.209,316.647,337.047L316.647,326.811L311.692,326.811L311.692,337.047C311.692,341.983,315.358,346,319.866,346L530.769,346L530.769,343.519L530.768,343.519Z" fill="#D15454" stroke="none" stroke-width="1" fill-rule="evenodd" transform="translate(32,0)"/>
    <g id="Group-18" stroke="none" stroke-width="1" fill="none" fill-rule="evenodd" transform="translate(562.76,268.426)">
        <mask id="mask-4" fill="white">
            <use xlink:href="#path-3"/>
        </mask>
        <g id="Clip-17"/>
        <path id="Fill-16" d="M16.7913,68.6206C16.7913,70.7834,15.3189,72.6113,13.5742,72.6113L7.32164,72.6113C7.87066,71.4093,8.18026,70.0528,8.18026,68.6206L8.18026,38.1795C6.63364,40.0446,4.98519,41.8118,3.22666,43.4604L3.22666,68.6206C3.22666,70.7834,1.75159,72.6113,0.0095712,72.6113L0.0095712,75.0926L0.0095712,77.5738L13.5742,77.5738C18.0806,77.5738,21.7462,73.5569,21.7462,68.6206L21.7462,0.277994C21.7462,8.78739,19.9657,16.8681,16.7913,24.1589L16.7913,68.6206Z" fill="#D15454" mask="url(#mask-4)"/>
    </g>
    <path id="Fill-19" d="M465.123,326.812L465.123,321.849L286.37,321.849C285.507,321.849,284.819,321.82,284.268,321.776C284.989,321.258,286.042,320.58,287.574,319.729L287.591,319.717C305.532,309.509,316.676,289.962,316.676,268.707L316.676,111.321L311.732,111.321L311.724,268.707C311.724,288.178,301.543,306.068,285.155,315.398C280.31,318.093,277.243,320.497,278.009,323.462C278.771,326.412,282.663,326.812,286.37,326.812L311.692,326.812L316.647,326.812L465.123,326.812Z" fill="#D15454" stroke="none" stroke-width="1" fill-rule="evenodd" transform="translate(32,0)"/>
    <path id="Fill-21" d="M548.54,64.5313C547.105,63.5595,545.377,62.9902,543.518,62.9902L530.417,62.9902L530.417,62.9916L543.518,62.9916C545.377,62.9916,547.105,63.5595,548.54,64.5313" fill="#D15454" stroke="none" stroke-width="1" fill-rule="evenodd" transform="translate(32,0)"/>
    <path id="Fill-23" d="M547.551,268.707C547.551,298.009,524.726,321.849,496.672,321.849L495.804,321.849C518.545,314.382,539.405,297.92,539.405,268.707L539.405,111.322L534.452,111.322L534.452,268.707C534.452,307.694,492.991,321.849,465.123,321.849L465.123,326.811L496.672,326.811C511.005,326.811,524.089,321.158,533.987,311.886C535.745,310.238,537.394,308.471,538.94,306.607C542.419,302.409,545.329,297.695,547.551,292.585C550.726,285.294,552.506,277.213,552.506,268.704L552.506,267.619L552.506,111.322L547.551,111.322L547.551,268.707Z" fill="#D15454" stroke="none" stroke-width="1" fill-rule="evenodd" transform="translate(32,0)"/>
    <path id="Fill-25" fill="#D15454" d="M385.604,67.954L398.589,67.954L398.589,63.9646L398.589,62.9914L385.604,62.9914L385.604,63.9646Z" stroke="none" stroke-width="1" fill-rule="evenodd" transform="translate(32,0)"/>
    <path id="Fill-27" fill="#D15454" d="M352.081,67.954L365.064,67.954L365.064,63.9646L365.064,62.9914L352.081,62.9914L352.081,63.9646Z" stroke="none" stroke-width="1" fill-rule="evenodd" transform="translate(32,0)"/>
    <path id="Fill-29" fill="#D15454" d="M519.695,67.954L529.908,67.954L529.908,65.4727L529.908,62.9914L519.695,62.9914L519.695,63.9646Z" stroke="none" stroke-width="1" fill-rule="evenodd" transform="translate(32,0)"/>
    <path id="Fill-31" fill="#D15454" d="M486.174,67.954L499.158,67.954L499.158,63.9646L499.158,62.9914L486.174,62.9914L486.174,63.9646Z" stroke="none" stroke-width="1" fill-rule="evenodd" transform="translate(32,0)"/>
    <path id="Fill-33" fill="#D15454" d="M452.649,67.954L465.636,67.954L465.636,63.9646L465.636,62.9914L452.649,62.9914L452.649,63.9646Z" stroke="none" stroke-width="1" fill-rule="evenodd" transform="translate(32,0)"/>
    <path id="Fill-35" fill="#D15454" d="M419.126,67.954L432.11,67.954L432.11,63.9646L432.11,62.9914L419.126,62.9914L419.126,63.9646Z" stroke="none" stroke-width="1" fill-rule="evenodd" transform="translate(32,0)"/>
    <path id="Fill-37" d="M533.942,111.322L533.942,106.359L316.677,106.359L316.677,71.5207L316.677,71.5193C316.886,69.7631,318.243,68.3502,319.937,68.0248C320.177,67.978,320.428,67.9545,320.681,67.9545L331.54,67.9545L331.54,63.9652L331.54,62.9906L320.681,62.9906C316.091,62.9906,312.159,66.5788,311.734,71.1609L311.723,111.322L311.733,111.322L316.677,111.322L533.942,111.322Z" fill="#D15454" stroke="none" stroke-width="1" fill-rule="evenodd" transform="translate(32,0)"/>
    <path id="Fill-41" d="M547.551,106.359L538.896,106.359L538.896,71.9961C538.896,70.5432,538.551,69.1702,537.939,67.9544L543.517,67.9544C545.743,67.9544,547.551,69.7671,547.551,71.9961L547.551,106.359ZM548.541,64.5316C547.105,63.5598,545.377,62.9919,543.517,62.9919L530.417,62.9919L529.908,62.9919L529.908,65.4717L529.908,67.9544C532.133,67.9544,533.941,69.7671,533.941,71.9961L533.941,106.359L533.941,111.322L534.452,111.322L539.405,111.322L547.551,111.322L552.506,111.322L552.506,71.9961C552.506,68.8918,550.931,66.1513,548.541,64.5316L548.541,64.5316Z" fill="#D15454" stroke="none" stroke-width="1" fill-rule="evenodd" transform="translate(32,0)"/>
    <path id="Fill-43" d="M499.157,82.313L499.157,82.313C499.157,86.6566,501.859,90.3799,505.665,91.8852C501.859,90.3799,499.157,86.6552,499.157,82.313" fill="#D15454" stroke="none" stroke-width="1" fill-rule="evenodd" transform="translate(32,0)"/>
    <path id="Fill-45" d="M501.634,63.9645L501.634,63.9645L504.111,63.9645L504.111,49.5249C504.111,46.5887,506.495,44.1998,509.428,44.1998C512.357,44.1998,514.742,46.5887,514.742,49.5249L514.742,63.9645L517.22,63.9645L519.695,63.9645L519.695,62.9913L519.695,49.5249C519.695,43.8524,515.089,39.2372,509.428,39.2372C503.764,39.2372,499.157,43.8524,499.157,49.5249L499.157,62.9913L499.157,63.9645L501.634,63.9645Z" fill="#D15454" stroke="none" stroke-width="1" fill-rule="evenodd" transform="translate(32,0)"/>
    <path id="Fill-47" d="M465.635,82.313L465.635,82.313C465.635,86.6566,468.335,90.3799,472.142,91.8852C468.335,90.3799,465.635,86.6552,465.635,82.313" fill="#D15454" stroke="none" stroke-width="1" fill-rule="evenodd" transform="translate(32,0)"/>
    <path id="Fill-49" d="M468.111,63.9645L468.111,63.9645L470.588,63.9645L470.588,49.5249C470.588,46.5887,472.973,44.1998,475.902,44.1998C478.835,44.1998,481.219,46.5887,481.219,49.5249L481.219,63.9645L483.696,63.9645L486.174,63.9645L486.174,62.9913L486.174,49.5249C486.174,43.8524,481.566,39.2372,475.902,39.2372C470.242,39.2372,465.635,43.8524,465.635,49.5249L465.635,62.9913L465.635,63.9645L468.111,63.9645Z" fill="#D15454" stroke="none" stroke-width="1" fill-rule="evenodd" transform="translate(32,0)"/>
    <path id="Fill-51" d="M432.11,82.313L432.11,82.313C432.11,86.6566,434.811,90.3799,438.618,91.8852C434.811,90.3799,432.11,86.6552,432.11,82.313" fill="#D15454" stroke="none" stroke-width="1" fill-rule="evenodd" transform="translate(32,0)"/>
    <path id="Fill-53" d="M434.588,63.9645L434.588,63.9645L437.064,63.9645L437.064,49.5249C437.064,46.5887,439.449,44.1998,442.381,44.1998C445.311,44.1998,447.695,46.5887,447.695,49.5249L447.695,63.9645L450.172,63.9645L452.649,63.9645L452.649,62.9913L452.649,49.5249C452.649,43.8524,448.042,39.2372,442.381,39.2372C436.718,39.2372,432.109,43.8524,432.109,49.5249L432.109,62.9913L432.109,63.9645L434.588,63.9645Z" fill="#D15454" stroke="none" stroke-width="1" fill-rule="evenodd" transform="translate(32,0)"/>
    <path id="Fill-55" d="M398.589,82.313L398.589,82.313C398.589,86.6566,401.288,90.3799,405.096,91.8852C401.288,90.3799,398.589,86.6552,398.589,82.313" fill="#D15454" stroke="none" stroke-width="1" fill-rule="evenodd" transform="translate(32,0)"/>
    <path id="Fill-57" d="M401.065,63.9645L401.065,63.9645L403.542,63.9645L403.542,49.5249C403.542,46.5887,405.926,44.1998,408.857,44.1998C411.788,44.1998,414.173,46.5887,414.173,49.5249L414.173,63.9645L416.651,63.9645L419.126,63.9645L419.126,62.9913L419.126,49.5249C419.126,43.8524,414.52,39.2372,408.857,39.2372C403.195,39.2372,398.588,43.8524,398.588,49.5249L398.588,62.9913L398.588,63.9645L401.065,63.9645Z" fill="#D15454" stroke="none" stroke-width="1" fill-rule="evenodd" transform="translate(32,0)"/>
    <path id="Fill-59" d="M365.063,82.3142C365.063,82.408,365.076,82.4989,365.078,82.5941C365.076,82.4989,365.063,82.4066,365.063,82.3128L365.063,82.3142Z" fill="#D15454" stroke="none" stroke-width="1" fill-rule="evenodd" transform="translate(32,0)"/>
    <path id="Fill-61" d="M370.018,63.9638L370.018,49.5242C370.018,46.5894,372.401,44.2005,375.333,44.2005C378.265,44.2005,380.65,46.5894,380.65,49.5242L380.65,63.9638L383.127,63.9638L385.604,63.9638L385.604,62.9906L385.604,49.5242C385.604,43.8531,380.997,39.2379,375.333,39.2379C369.671,39.2379,365.063,43.8531,365.063,49.5242L365.063,62.9906L365.063,63.9638L370.018,63.9638Z" fill="#D15454" stroke="none" stroke-width="1" fill-rule="evenodd" transform="translate(32,0)"/>
    <path id="Fill-63" d="M331.541,82.313L331.541,82.313C331.541,86.6566,334.242,90.3799,338.049,91.8852C334.242,90.3799,331.541,86.6552,331.541,82.313" fill="#D15454" stroke="none" stroke-width="1" fill-rule="evenodd" transform="translate(32,0)"/>
    <path id="Fill-65" d="M334.019,63.9645L334.019,63.9645L336.495,63.9645L336.495,49.5249C336.495,46.5887,338.88,44.1998,341.811,44.1998C344.743,44.1998,347.128,46.5887,347.128,49.5249L347.128,63.9645L349.603,63.9645L352.081,63.9645L352.081,62.9913L352.081,49.5249C352.081,43.8524,347.475,39.2372,341.811,39.2372C336.149,39.2372,331.54,43.8524,331.54,49.5249L331.54,62.9913L331.54,63.9645L334.019,63.9645Z" fill="#D15454" stroke="none" stroke-width="1" fill-rule="evenodd" transform="translate(32,0)"/>
    <path id="Fill-71" d="M504.111,72.7638C505.663,73.7081,507.483,74.2526,509.427,74.2526C511.372,74.2526,513.192,73.7081,514.743,72.7638L514.743,82.3126C514.743,85.2487,512.357,87.6377,509.427,87.6377C506.495,87.6377,504.111,85.2487,504.111,82.3126L504.111,72.7638ZM505.665,91.8862C506.209,92.1012,506.776,92.2708,507.359,92.3907C508.029,92.5285,508.72,92.6002,509.427,92.6002C515.09,92.6002,519.695,87.985,519.695,82.3126L519.695,67.9543L519.695,63.9649L517.22,63.9649L514.743,63.9649C514.743,66.9011,512.357,69.29,509.427,69.29C506.495,69.29,504.111,66.9011,504.111,63.9649L501.634,63.9649L499.157,63.9649L499.157,67.9543L499.157,82.3126C499.157,86.6562,501.858,90.3795,505.665,91.8862L505.665,91.8862Z" fill="#D15454" stroke="none" stroke-width="1" fill-rule="evenodd" transform="translate(32,0)"/>
    <path id="Fill-77" d="M470.588,72.7645C472.14,73.7088,473.958,74.2533,475.902,74.2533C477.848,74.2533,479.668,73.7088,481.22,72.7645L481.22,82.3133C481.22,85.2494,478.834,87.6384,475.902,87.6384C472.973,87.6384,470.588,85.2494,470.588,82.3133L470.588,72.7645ZM472.142,91.8855C472.685,92.1005,473.253,92.2714,473.835,92.3914C474.505,92.5278,475.196,92.6009,475.902,92.6009C481.567,92.6009,486.174,87.9857,486.174,82.3133L486.174,67.9536L486.174,63.9642L483.696,63.9642L481.22,63.9642C481.22,66.9004,478.834,69.2893,475.902,69.2893C472.973,69.2893,470.588,66.9004,470.588,63.9642L468.111,63.9642L465.634,63.9642L465.634,67.9536L465.634,82.3133C465.634,86.6555,468.334,90.3788,472.142,91.8855L472.142,91.8855Z" fill="#D15454" stroke="none" stroke-width="1" fill-rule="evenodd" transform="translate(32,0)"/>
    <path id="Fill-83" d="M437.064,72.7638C438.616,73.7081,440.435,74.2526,442.381,74.2526C444.325,74.2526,446.144,73.7081,447.696,72.7638L447.696,82.3126C447.696,85.2487,445.31,87.6377,442.381,87.6377C439.449,87.6377,437.064,85.2487,437.064,82.3126L437.064,72.7638ZM438.619,91.8862C439.161,92.1012,439.729,92.2708,440.313,92.3907C440.982,92.5285,441.672,92.6002,442.381,92.6002C448.043,92.6002,452.649,87.985,452.649,82.3126L452.649,67.9543L452.649,63.9649L450.172,63.9649L447.696,63.9649C447.696,66.9011,445.31,69.29,442.381,69.29C439.449,69.29,437.064,66.9011,437.064,63.9649L434.587,63.9649L432.109,63.9649L432.109,67.9543L432.109,82.3126C432.109,86.6562,434.81,90.3795,438.619,91.8862L438.619,91.8862Z" fill="#D15454" stroke="none" stroke-width="1" fill-rule="evenodd" transform="translate(32,0)"/>
    <path id="Fill-89" d="M403.542,72.7638C405.092,73.7081,406.913,74.2526,408.857,74.2526C410.803,74.2526,412.622,73.7081,414.174,72.7638L414.174,82.3126C414.174,85.2487,411.788,87.6377,408.857,87.6377C405.926,87.6377,403.542,85.2487,403.542,82.3126L403.542,72.7638ZM405.096,91.8862C405.64,92.1012,406.207,92.2708,406.79,92.3907C407.459,92.5285,408.151,92.6002,408.857,92.6002C414.521,92.6002,419.126,87.985,419.126,82.3126L419.126,67.9543L419.126,63.9649L416.651,63.9649L414.174,63.9649C414.174,66.9011,411.788,69.29,408.857,69.29C405.926,69.29,403.542,66.9011,403.542,63.9649L401.065,63.9649L398.588,63.9649L398.588,67.9543L398.588,82.3126C398.588,86.6562,401.288,90.3795,405.096,91.8862L405.096,91.8862Z" fill="#D15454" stroke="none" stroke-width="1" fill-rule="evenodd" transform="translate(32,0)"/>
    <path id="Fill-93" d="M370.018,72.7631C371.568,73.7088,373.389,74.2533,375.333,74.2533C377.279,74.2533,379.099,73.7088,380.65,72.7631L380.65,82.3133C380.65,85.2494,378.265,87.6384,375.333,87.6384C372.401,87.6384,370.018,85.2494,370.018,82.3133L370.018,72.7631ZM365.078,82.5931C365.229,88.136,369.764,92.6009,375.333,92.6009C380.997,92.6009,385.604,87.9844,385.604,82.3133L385.604,67.9536L385.604,63.9642L383.127,63.9642L380.65,63.9642C380.65,66.9004,378.265,69.2893,375.333,69.2893C372.404,69.2893,370.019,66.9004,370.018,63.9642L365.063,63.9642L365.063,67.9536L365.063,82.3133C365.063,82.407,365.075,82.4994,365.078,82.5931L365.078,82.5931Z" fill="#D15454" stroke="none" stroke-width="1" fill-rule="evenodd" transform="translate(32,0)"/>
    <path id="Fill-99" d="M336.495,72.7638C338.046,73.7081,339.866,74.2526,341.811,74.2526C343.755,74.2526,345.577,73.7081,347.129,72.7638L347.129,82.3126C347.129,85.2487,344.743,87.6377,341.811,87.6377C338.88,87.6377,336.495,85.2487,336.495,82.3126L336.495,72.7638ZM338.05,91.8862C338.592,92.1012,339.16,92.2708,339.744,92.3907C340.413,92.5285,341.103,92.6002,341.811,92.6002C347.474,92.6002,352.081,87.985,352.081,82.3126L352.081,67.9543L352.081,63.9649L349.603,63.9649L347.129,63.9649C347.129,66.9011,344.743,69.29,341.811,69.29C338.88,69.29,336.495,66.9011,336.495,63.9649L334.018,63.9649L331.54,63.9649L331.54,67.9543L331.54,82.3126C331.54,86.6562,334.241,90.3795,338.05,91.8862L338.05,91.8862Z" fill="#D15454" stroke="none" stroke-width="1" fill-rule="evenodd" transform="translate(32,0)"/>
    <path id="Fill-101" d="M428.679,188.747C421.877,188.747,414.069,191.901,414.069,216.496C414.069,229.498,415.73,244.424,428.679,244.424C441.629,244.424,443.289,229.498,443.289,216.496C443.289,191.901,435.481,188.747,428.679,188.747M428.679,248.56C409.941,248.56,409.941,224.426,409.941,216.496C409.941,202.809,411.884,184.612,428.679,184.612C445.474,184.612,447.417,202.809,447.417,216.496C447.417,248.56,433.313,248.56,428.679,248.56M428.679,156.776C405.148,156.776,377.672,172.416,377.672,216.496C377.672,246.311,393.444,276.395,428.679,276.395C463.914,276.395,479.686,246.311,479.686,216.496C479.686,172.416,452.21,156.776,428.679,156.776M428.679,280.531C390.591,280.531,373.544,248.369,373.544,216.496C373.544,184.711,390.591,152.64,428.679,152.64C466.767,152.64,483.814,184.711,483.814,216.496C483.814,248.369,466.767,280.531,428.679,280.531" fill="#221FAA" stroke="none" stroke-width="1" fill-rule="evenodd" transform="translate(32,0)"/>
    <path id="Fill-103" d="M207.205,227.888L228.427,227.888L228.427,193.758L207.205,227.888ZM232.555,232.023L199.772,232.023L232.555,179.298L232.555,232.023ZM232.555,276.478L259.164,276.478L259.164,254.763L273.554,254.763L273.554,232.023L259.164,232.023L259.164,161.897L219.918,161.897L175.882,233.567L175.882,254.763L232.555,254.763L232.555,276.478ZM263.292,280.614L228.427,280.614L228.427,258.898L171.754,258.898L171.754,232.396L217.612,157.762L263.292,157.762L263.292,227.888L277.682,227.888L277.682,258.898L263.292,258.898L263.292,280.614Z" fill="#221FAA" stroke="none" stroke-width="1" fill-rule="evenodd" transform="translate(32,0)"/>
    <path id="Fill-105" d="M617.652,227.888L638.874,227.888L638.874,193.758L617.652,227.888ZM643.002,232.023L610.219,232.023L643.002,179.298L643.002,232.023ZM643.002,276.478L669.611,276.478L669.611,254.763L684.001,254.763L684.001,232.023L669.611,232.023L669.611,161.897L630.365,161.897L586.329,233.567L586.329,254.763L643.002,254.763L643.002,276.478ZM673.739,280.614L638.874,280.614L638.874,258.898L582.201,258.898L582.201,232.396L628.059,157.762L673.739,157.762L673.739,227.888L688.129,227.888L688.129,258.898L673.739,258.898L673.739,280.614Z" fill="#221FAA" stroke="none" stroke-width="1" fill-rule="evenodd" transform="translate(32,0)"/>
    <g transform="translate(842.955,178.04) rotate(90) translate(-45.32,-49)" style="animation: a0_t 6s linear infinite;">
        <path id="Fill-107" d="M83.2977,152.579C82.8684,151.952,82.0139,151.792,81.3837,152.224C80.7576,152.654,80.5993,153.513,81.03,154.14C85.9313,161.294,88.5223,169.68,88.5223,178.393C88.5223,180.984,88.2898,183.583,87.8288,186.118C87.6926,186.868,88.1907,187.585,88.9379,187.721C89.0205,187.736,89.103,187.743,89.1842,187.743C89.8378,187.743,90.4171,187.276,90.5382,186.61C91.0253,183.914,91.2743,181.149,91.2743,178.393C91.2743,169.121,88.5155,160.194,83.2977,152.579" fill="#D15454" stroke="none" stroke-width="1" fill-rule="evenodd" transform="translate(-0.636643,-129.088)"/>
        <path id="Fill-109" d="M3.32978,164.665C7.69033,150.321,19.4813,139.454,34.1013,136.306C34.8443,136.147,35.3177,135.414,35.158,134.67C34.9984,133.925,34.2609,133.452,33.5234,133.611C17.9264,136.969,5.34837,148.561,0.696118,163.862C0.475958,164.59,0.886006,165.36,1.61253,165.582C1.74601,165.623,1.88085,165.643,2.01295,165.643C2.60325,165.643,3.14815,165.26,3.32978,164.665" fill="#D15454" stroke="none" stroke-width="1" fill-rule="evenodd" transform="translate(-0.636643,-129.088)"/>
        <path id="Fill-111" d="M45.6888,221.682C35.1817,221.682,25.0764,217.833,17.2345,210.847C16.6635,210.339,15.7939,210.39,15.2916,210.96C14.7866,211.529,14.8375,212.4,15.4045,212.906C23.7526,220.343,34.5061,224.439,45.6888,224.439C46.4498,224.439,47.0648,223.821,47.0648,223.06C47.0648,222.299,46.4498,221.682,45.6888,221.682" fill="#D15454" stroke="none" stroke-width="1" fill-rule="evenodd" transform="translate(-0.636643,-129.088)"/>
        <path id="Fill-113" d="M33.4379,143.499C22.1781,146.682,13.3813,155.266,9.90417,166.462C9.67851,167.189,10.0844,167.962,10.811,168.188C10.9458,168.229,11.0848,168.25,11.2196,168.25C11.8058,168.25,12.3493,167.871,12.5337,167.28C15.7315,156.98,23.8265,149.081,34.1851,146.153C34.9157,145.946,35.3423,145.184,35.1359,144.452C34.9281,143.717,34.1617,143.297,33.4379,143.499" fill="#D15454" stroke="none" stroke-width="1" fill-rule="evenodd" transform="translate(-0.636643,-129.088)"/>
        <path id="Fill-115" d="M45.6888,211.752C39.2093,211.752,32.9388,209.867,27.5587,206.304C26.923,205.883,26.0712,206.058,25.6515,206.694C25.2332,207.329,25.408,208.184,26.0409,208.603C31.8738,212.467,38.6671,214.509,45.6888,214.509C46.4498,214.509,47.0648,213.891,47.0648,213.13C47.0648,212.369,46.4498,211.752,45.6888,211.752" fill="#D15454" stroke="none" stroke-width="1" fill-rule="evenodd" transform="translate(-0.636643,-129.088)"/>
        <path id="Fill-117" d="M84.5352,200.435C83.9917,201.375,82.873,201.819,81.6704,201.135L46.698,183.071C46.4063,182.92,46.0857,182.845,45.7664,182.845C45.4472,182.845,45.1239,182.92,44.8335,183.071L9.77854,201.182C8.82773,201.73,7.54254,201.375,6.99902,200.435C6.43762,199.46,6.77061,198.21,7.82462,197.599L40.9257,176.29C41.4788,175.933,41.8256,175.331,41.8572,174.672L43.9284,136.903C43.9284,135.78,44.8421,134.865,45.9635,134.865C47.085,134.865,47.9987,135.78,48,137L49.6757,174.672C49.7073,175.331,50.0527,175.933,50.6072,176.29L83.7908,197.649C84.7609,198.21,85.0939,199.46,84.5352,200.435M85.9085,194.168L53.6895,173.429L52.0689,136.903C52.0689,133.532,49.3292,130.788,45.9635,130.788C42.5979,130.788,39.8596,133.532,39.8624,136.808L37.8434,173.429L5.70696,194.12C2.79397,195.806,1.79224,199.551,3.47509,202.473C4.56075,204.358,6.59035,205.531,8.76581,205.531C9.83221,205.531,10.8835,205.247,11.7283,204.759L45.7664,187.175L79.722,204.713C80.648,205.247,81.7021,205.531,82.7685,205.531C84.9453,205.531,86.9721,204.361,88.0592,202.473C89.7407,199.551,88.7403,195.806,85.9085,194.168" fill="#D15454" stroke="none" stroke-width="1" fill-rule="evenodd" transform="translate(45.1317,37.0712) translate(-45.7683,-166.16)"/>
        <path id="Fill-119" d="M45.7681,182.581C43.2913,182.581,41.2823,180.57,41.2823,178.089C41.2823,175.606,43.2913,173.595,45.7681,173.595C48.2449,173.595,50.2539,175.606,50.2539,178.089C50.2539,180.57,48.2449,182.581,45.7681,182.581M45.7681,170.295C41.4722,170.295,37.9882,173.784,37.9882,178.089C37.9882,182.392,41.4722,185.883,45.7681,185.883C50.0653,185.883,53.548,182.392,53.548,178.089C53.548,173.784,50.0653,170.295,45.7681,170.295" fill="#D15454" stroke="none" stroke-width="1" fill-rule="evenodd" transform="translate(-0.636643,-129.088)"/>
    </g>
    <g transform="translate(77.9555,178.04) translate(-45.32,-49)" style="animation: a1_t 6s linear infinite;">
        <path id="Fill-4" d="M83.2977,152.579C82.8684,151.952,82.0139,151.792,81.3837,152.224C80.7576,152.654,80.5993,153.513,81.03,154.14C85.9313,161.294,88.5223,169.68,88.5223,178.393C88.5223,180.984,88.2898,183.583,87.8288,186.118C87.6926,186.868,88.1907,187.585,88.9379,187.721C89.0205,187.736,89.103,187.743,89.1842,187.743C89.8378,187.743,90.4171,187.276,90.5382,186.61C91.0253,183.914,91.2743,181.149,91.2743,178.393C91.2743,169.121,88.5155,160.194,83.2977,152.579" fill="#D15454" stroke="none" stroke-width="1" fill-rule="evenodd" transform="translate(-0.636643,-129.088)"/>
        <path id="Fill-5" d="M3.32978,164.665C7.69033,150.321,19.4813,139.454,34.1013,136.306C34.8443,136.147,35.3177,135.414,35.158,134.67C34.9984,133.925,34.2609,133.452,33.5234,133.611C17.9264,136.969,5.34837,148.561,0.696118,163.862C0.475958,164.59,0.886006,165.36,1.61253,165.582C1.74601,165.623,1.88085,165.643,2.01295,165.643C2.60325,165.643,3.14815,165.26,3.32978,164.665" fill="#D15454" stroke="none" stroke-width="1" fill-rule="evenodd" transform="translate(-0.636643,-129.088)"/>
        <path id="Fill-7" d="M45.6888,221.682C35.1817,221.682,25.0764,217.833,17.2345,210.847C16.6635,210.339,15.7939,210.39,15.2916,210.96C14.7866,211.529,14.8375,212.4,15.4045,212.906C23.7526,220.343,34.5061,224.439,45.6888,224.439C46.4498,224.439,47.0648,223.821,47.0648,223.06C47.0648,222.299,46.4498,221.682,45.6888,221.682" fill="#D15454" stroke="none" stroke-width="1" fill-rule="evenodd" transform="translate(-0.636643,-129.088)"/>
        <path id="Fill-9" d="M33.4379,143.499C22.1781,146.682,13.3813,155.266,9.90417,166.462C9.67851,167.189,10.0844,167.962,10.811,168.188C10.9458,168.229,11.0848,168.25,11.2196,168.25C11.8058,168.25,12.3493,167.871,12.5337,167.28C15.7315,156.98,23.8265,149.081,34.1851,146.153C34.9157,145.946,35.3423,145.184,35.1359,144.452C34.9281,143.717,34.1617,143.297,33.4379,143.499" fill="#D15454" stroke="none" stroke-width="1" fill-rule="evenodd" transform="translate(-0.636643,-129.088)"/>
        <path id="Fill-11" d="M45.6888,211.752C39.2093,211.752,32.9388,209.867,27.5587,206.304C26.923,205.883,26.0712,206.058,25.6515,206.694C25.2332,207.329,25.408,208.184,26.0409,208.603C31.8738,212.467,38.6671,214.509,45.6888,214.509C46.4498,214.509,47.0648,213.891,47.0648,213.13C47.0648,212.369,46.4498,211.752,45.6888,211.752" fill="#D15454" stroke="none" stroke-width="1" fill-rule="evenodd" transform="translate(-0.636643,-129.088)"/>
        <path id="Fill-13" d="M84.5352,200.435C83.9917,201.375,82.873,201.819,81.6704,201.135L46.698,183.071C46.4063,182.92,46.0857,182.845,45.7664,182.845C45.4472,182.845,45.1239,182.92,44.8335,183.071L9.77854,201.182C8.82773,201.73,7.54254,201.375,6.99902,200.435C6.43762,199.46,6.77061,198.21,7.82462,197.599L40.9257,176.29C41.4788,175.933,41.8256,175.331,41.8572,174.672L43.9284,136.903C43.9284,135.78,44.8421,134.865,45.9635,134.865C47.085,134.865,47.9987,135.78,48,137L49.6757,174.672C49.7073,175.331,50.0527,175.933,50.6072,176.29L83.7908,197.649C84.7609,198.21,85.0939,199.46,84.5352,200.435M85.9085,194.168L53.6895,173.429L52.0689,136.903C52.0689,133.532,49.3292,130.788,45.9635,130.788C42.5979,130.788,39.8596,133.532,39.8624,136.808L37.8434,173.429L5.70696,194.12C2.79397,195.806,1.79224,199.551,3.47509,202.473C4.56075,204.358,6.59035,205.531,8.76581,205.531C9.83221,205.531,10.8835,205.247,11.7283,204.759L45.7664,187.175L79.722,204.713C80.648,205.247,81.7021,205.531,82.7685,205.531C84.9453,205.531,86.9721,204.361,88.0592,202.473C89.7407,199.551,88.7403,195.806,85.9085,194.168" fill="#D15454" stroke="none" stroke-width="1" fill-rule="evenodd" transform="translate(45.1317,37.0712) translate(-45.7683,-166.16)"/>
        <path id="Fill-15" d="M45.7681,182.581C43.2913,182.581,41.2823,180.57,41.2823,178.089C41.2823,175.606,43.2913,173.595,45.7681,173.595C48.2449,173.595,50.2539,175.606,50.2539,178.089C50.2539,180.57,48.2449,182.581,45.7681,182.581M45.7681,170.295C41.4722,170.295,37.9882,173.784,37.9882,178.089C37.9882,182.392,41.4722,185.883,45.7681,185.883C50.0653,185.883,53.548,182.392,53.548,178.089C53.548,173.784,50.0653,170.295,45.7681,170.295" fill="#D15454" stroke="none" stroke-width="1" fill-rule="evenodd" transform="translate(-0.636643,-129.088)"/>
    </g>
    <path id="Fill-121" d="M39.763,276.101L44.8321,183.601L47.0778,183.601L52.147,276.101L39.763,276.101ZM62.983,276.101L56.791,276.101L51.58,182.774L51.58,182.164L40.367,182.164L35.3405,276.101L29.1485,276.101C27.822,276.101,26.9373,276.987,26.9373,278.316C26.9373,279.645,27.822,280.531,29.1485,280.531L62.983,280.531C64.3094,280.531,65.1942,279.645,65.1942,278.316C65.1942,276.987,64.3094,276.101,62.983,276.101L62.983,276.101Z" fill="#D15454" stroke="none" stroke-width="1" fill-rule="evenodd" transform="translate(32,0)"/>
    <path id="Fill-137" d="M804.965,276.101L810.035,183.601L812.28,183.601L817.349,276.101L804.965,276.101ZM828.185,276.101L821.993,276.101L816.782,182.774L816.782,182.164L805.569,182.164L800.543,276.101L794.351,276.101C793.024,276.101,792.14,276.987,792.14,278.316C792.14,279.645,793.024,280.531,794.351,280.531L828.185,280.531C829.512,280.531,830.397,279.645,830.397,278.316C830.397,276.987,829.512,276.101,828.185,276.101L828.185,276.101Z" fill="#D15454" stroke="none" stroke-width="1" fill-rule="evenodd" transform="translate(32,0)"/>
</svg>
