<svg xmlns="http://www.w3.org/2000/svg" width="729" height="501" viewBox="0 0 729 501">
    <g fill="none" fill-rule="nonzero" stroke="#3E43C8">
        <path fill="#1FB38C" d="M722 471v6l6 6v-6zM716 459h6v-17l-6 5.667z"/>
        <path fill="#5855DD" d="M610 542.583l6 5.959 6 5.958h6l6 5.958h-12l-6-5.958-6 5.958v17.875l6 5.959v5.958l6 5.958h6l6 5.959 6 5.958h-12v11.917l6 5.958h-6l-6-5.958v-5.959l-6-5.958v-5.958l-6-5.959v-5.958l-6-5.958-6-5.959v-11.916l-6-5.959V554.5l-6-5.958-6-5.959v-5.958l-6-5.958h-6l-6-5.959v-11.916l-6-5.959-6-5.958h12l-6-5.958v-5.959L550 483h6l6 5.958v5.959h6l6 5.958v5.958l6 5.959v5.958l6 5.958 6 5.959 6 5.958 6 5.958z"/>
        <path fill="#1FB38C" d="M663 264v11.333l6 5.667v-17z"/>
        <path fill="#1FB38C" d="M608.76 233.417V221.5h5.96v5.958l5.96 5.959 5.96 5.958 5.96 5.958v11.917l-5.96 5.958 5.96 5.959v29.791l5.96 5.959v17.875l-5.96 5.958v5.958h-5.96l5.96 5.959 5.96 5.958V364.5l5.96 5.958 5.96 5.959v5.958l5.96 5.958 5.96 5.959h5.96l17.88 17.875h5.96l5.96 5.958 5.96 5.958 5.96 5.959h5.96L722 436v-35.75l-5.96-5.958v-11.917l5.96-5.958-5.96-5.959h-5.96V364.5l-5.96-5.958v-5.959l5.96-5.958 5.96-5.958-5.96-5.959h-5.96l-5.96-5.958v-5.958l-5.96-5.959h5.96l5.96-5.958-5.96-5.958h-11.92l-5.96-5.959V293l-5.96-5.958-5.96 5.958v5.958L662.4 293v-5.958l-5.96-5.959v-11.916l-5.96-5.959-5.96-5.958 5.96-5.958h5.96v-17.875l5.96 5.958V221.5l5.96-5.958 5.96-5.959h11.92v-5.958l-5.96-5.958v-41.709h-11.92L662.4 150v11.917l-5.96 5.958v5.958l-5.96 5.959h-23.84l-5.96-5.959-5.96-5.958v5.958H602.8l-5.96 5.959-5.96 5.958h-5.96l-5.96 5.958-5.96 5.959v5.958h5.96v5.958l35.76 35.75v-5.958zM542.333 42v-5.8L548 30.4V13l-5.667 5.8h-5.666v5.8L531 30.4l5.667 5.8z"/>
        <path fill="#1FB38C" d="M693 113.944L687.03 108l-5.97-5.944h-29.848V108h-5.97l-5.97-5.944 5.97-5.945 5.97-5.944v-5.945l-5.97-5.944-5.97-5.945h-11.939l5.97-5.944h11.94l5.97-5.945V54.5l5.969-5.944 5.97 5.944 5.97-5.944 11.939-11.89-5.97-5.944-5.97-5.944-5.97-5.945V6.944L657.182 1h-5.969l-5.97 5.944h-5.97l-5.969 5.945v5.944l-5.97 5.945h11.94v5.944h-29.849l-5.97 5.945h-5.97l-5.969 5.944h-5.97l-5.97 5.945h-5.969l-5.97 5.944-5.97 5.944h-5.969l-5.97 5.945-5.97 5.944-5.97 5.945 5.97 5.944h-5.97l-5.969 5.945-5.97 5.944 5.97 5.945h11.94v11.888h-17.91l5.97-5.944-5.97-5.944-5.97 5.944v11.889l-5.969 5.944-5.97 5.945-5.97 5.944-5.969 5.945 5.97 5.944h5.97l5.97 5.945 5.969 5.944h-5.97l-5.97 5.944v5.945l-5.97 5.944v11.889l5.97 5.945h11.94l5.97 5.944v5.945h5.97l5.969 5.944 5.97-5.944H567.637l5.97-5.945v-5.944l5.969-5.945 5.97-5.944h5.97l5.969-5.945 5.97-5.944h11.939v-5.945l5.97 5.945 5.97 5.944H651.212l5.969-5.944v-5.945l5.97-5.944v-11.889l5.97 5.945h11.939v-29.723z"/>
        <path fill="#5855DD" d="M502 495v12l-6-6v-6z"/>
        <path fill="#5855DD" d="M525.345 363.852h-5.966l-5.965 5.963-5.966-5.963 5.966-5.963v-5.963l-5.966-5.963-5.965-5.963h-5.966l-11.93 11.926h-5.966l-5.966 5.963H459.724l-5.965-5.963-5.966 5.963 5.966 5.963v11.926l-5.966 5.963v11.926l5.966 5.963v23.851l-5.966 5.963H435.862v5.963l-5.965 5.963h-5.966l-5.965 5.963-5.966 5.963v17.889l5.966 5.963v11.926l5.965 5.963-5.965 5.963v11.926l5.965 5.963 5.966-5.963h17.896l-5.965 5.963v5.963l-5.966 5.963v5.963l-5.965 5.963v11.926l5.965-5.963h5.966v5.963l5.965 5.963 5.966-5.963h5.965l5.966-5.963v-5.963h5.965l5.966-5.963 5.965 5.963v11.926l5.966 5.963H471.655v11.926h-5.965v5.963l-5.966 5.962v5.963l-5.965 5.963v5.963l5.965 5.963 5.966 5.963 5.965 5.963 5.966 5.963h5.965l5.966-5.963 5.965 5.963H513.414l5.965 5.963v5.963l5.966 5.963V662l5.965-5.963v-5.963H549.207l5.965-5.963v-11.926h5.966l5.965-5.963-5.965-5.963-5.966-5.963h5.966v-5.963h5.965l5.966 5.963v5.963h5.965V602.37l5.966-5.963-5.966-5.963V578.52l-5.965-5.963v-5.963l-5.966-5.963v-5.963l-5.965-5.963v-17.889l-5.966-5.963-5.965-5.963v-5.963l-5.966-5.963h-5.965L531.31 501h-11.93l-5.966 5.963 5.965 5.963-5.965 5.963-5.966 5.963v-5.963l-5.965-5.963v5.963l-5.966 5.963v-11.926l-5.965-5.963-5.966 5.963h-11.93v-5.963L477.62 501v-5.963l5.965-5.963v-23.852l5.966-5.963V441.37l5.965-5.963v-29.814l5.966-5.963 5.965-5.963h5.966l5.965-5.963 5.966-5.963h5.965v-11.926z"/>
        <path fill="#5855DD" d="M501.792 340.207l5.958 5.965 5.958 5.966v5.965l-5.958 5.966 5.958 5.965 5.959-5.965h5.958l5.958 5.965V376h5.959l5.958-5.966 5.958-5.965v-5.966l5.959-5.965h5.958l5.958-5.966 5.959 5.966h5.958l5.958-5.966v-5.965h5.959l5.958-5.966 5.958-5.965-5.958-5.966-5.958 5.966-5.959-5.966v-29.827l-5.958-5.966v-5.965l5.958-5.966v-5.965l5.959-5.966h5.958v-5.965l5.958 5.965v5.966h5.959l5.958 5.965V244.76l-35.75-35.793V203h-5.958l-5.959 5.966H543.5l-5.958 5.965-5.959-5.965h-5.958V220.897h-5.958l-5.959 5.965h-5.958l-5.958 5.966 5.958 5.965V256.69l5.958 5.965v5.966l-5.958 5.965-5.958 5.966h-5.959l-5.958 5.965h-5.958l5.958 5.966v5.965h-5.958l-5.959 5.966v5.965H472l5.958 5.966v5.965l5.959 5.966v5.965l5.958 5.966v5.965l5.958-5.965zM365 173l-6-6h-12v6l-6 6h12l6-6zM340 168v-6h-6zM305 162v-6h-6zM311 143.6l6-5.8 6 5.8h6l-6-5.8 6-5.8h18l6 5.8-6 5.8h-6v5.8l-6 5.8h-6v5.8h-12l-6-5.8v-5.8zM353 126l5.8 6h17.4l5.8-6-5.8-6h-5.8l-5.8 6h-5.8zM125.8 150h11.6l5.8-6h5.8v-6l-5.8-6h-5.8v-6l-5.8 6-5.8 6v6l-5.8 6zM108.333 96l5.667 5.667v5.666L108.333 113h-5.666L97 107.333v-5.666h5.667zM97 120v-6h-6zM102 120h6l6-6h6l6 6v12l-6 6h-6l-6-6h-6v-6zM191 210h-6v6h6l6-6z"/>
        <path fill="#5855DD" d="M317.129 525.09h5.968l5.968 5.955H352.935l5.968 5.955h17.903l5.968-5.955h17.903v-5.954h5.968l5.968-5.955H424.548l-5.967-5.954V501.273l5.967-5.955-5.967-5.954v-11.91l-5.968-5.954v-17.864l5.968-5.954 5.967-5.955h5.968l5.968-5.954v-5.955H448.419l5.968-5.954V400.045l-5.968-5.954v-11.91l5.968-5.954v-11.909l-5.968-5.954 5.968-5.955 5.968 5.955H472.29l5.968-5.955h5.968l5.968-5.954V340.5l-5.968-5.955v-5.954l-5.968-5.955v-5.954l-5.968-5.955h5.968v-5.954l5.968-5.955h5.968v-5.954l-5.968-5.955h5.968l5.967-5.954h5.968l5.968-5.955 5.968-5.955v-5.954l-5.968-5.955v-17.863l-5.968-5.955 5.968-5.954h5.968l5.967-5.955H526V203.545l-5.968-5.954H508.097l-5.968-5.955V179.727l5.968-5.954v-5.955l5.968-5.954h5.967l-5.967-5.955-5.968-5.954h-5.968L496.161 144v5.955h-5.967l-5.968 5.954v-5.954L478.258 144h-17.903l-5.968 5.955-5.968 5.954-5.967 5.955v5.954l-5.968 5.955H418.58l-5.968-5.955h-11.936l-5.967 5.955h-5.968v5.954l-5.968-5.954-5.968 5.954H364.871l-5.968 5.955h-5.968l5.968 5.954-5.968 5.955v5.954h5.968v11.91l-5.968-5.955-5.967 5.955v5.954h-11.936l-5.967 5.955h-5.968l-5.968-5.955V251.182l-5.968-5.955h-5.967l-5.968-5.954v-5.955h-5.968l5.968-5.954-5.968-5.955v-5.954l-5.968-5.955H257.452l-5.968 5.955 5.968 5.954v5.955h-29.839v-5.955h-23.871l-5.968 5.955v-5.955H185.84l-5.968 5.955V239.273l5.968 5.954v5.955h5.967v11.909l5.968 5.954-5.968 5.955h-5.967l-5.968 5.955V292.864l-5.968 5.954h-5.968l-5.967 5.955H156v5.954l5.968 5.955v29.773H156V370.273l5.968 5.954v5.955L156 388.136V400.045h5.968l5.967 5.955h11.936v5.955l5.968 5.954V435.773h5.967v17.863l5.968 5.955V471.5l-5.968 5.955v23.818l5.968 5.954 5.968-5.954h5.968l5.967-5.955 5.968 5.955h5.968v-5.955l5.968-5.954 5.967-5.955v-5.954l5.968-5.955h17.903v5.955l5.968 5.954h11.936v5.955l5.967 5.954V507.227l5.968 5.955v5.954l5.968 5.955 5.968 5.954 5.967-5.954z"/>
        <path fill="#5855DD" d="M90.61 614.333l5.951 5.953 5.951 5.952 5.951 5.952 5.952 5.953h5.95l5.952 5.952v5.953h5.951V656h11.903v-5.952h5.951l5.951-5.953 5.951-5.952v-5.953h5.952l5.95-5.952 5.952-5.952 5.951-5.953V602.43l5.951-5.953-5.95-5.952v-17.857l5.95-5.953v-5.952l-5.95-5.952 5.95-5.953h5.952v-5.952H209.634l5.951-5.953 5.952 5.953h5.95l5.952 5.952h5.951l5.951-5.952h5.952v-5.953h23.805l5.95-5.952-5.95-5.952-5.952-5.953 5.952-5.952v-5.953H287v-11.904l-5.951-5.953v-5.952H269.146l-5.95-5.952v-5.953H245.34l-5.95 5.953v5.952l-5.952 5.952-5.951 5.953v5.952h-5.951l-5.952-5.952-5.95 5.952h-5.952l-5.951 5.952-5.952-5.952V477.43l5.952-5.953V459.571l-5.952-5.952v-17.857h-5.95v-17.857l-5.952-5.953V406h-5.951v5.952h-5.951l-5.952 5.953v5.952l-5.95 5.953 5.95 5.952V447.667l-5.95 5.952-5.952 5.952-5.951 5.953v11.905l5.951 5.952v5.952l-5.951 5.953h5.951v11.904l-5.951 5.953-5.951-5.953h-5.952l-5.95-5.952-5.952 5.952v5.953l-5.951 5.952-5.952 5.953V531l-5.95 5.952V531l-5.952-5.952H90.61L84.659 531l-5.952-5.952h-5.95V531l-5.952 5.952v5.953l5.951 5.952v5.953h-5.951l-5.951 5.952v5.952l-5.952 5.953v17.857l-5.95-5.953L43 590.524l5.951 5.952 5.951 5.953 11.903 11.904h5.951l5.951 5.953h5.952zM-10 55h6l6 6h-6z"/>
        <path fill="#5855DD" d="M-47 453.5v5.95l5.951 5.95H-29.146l5.95 5.95v5.95l5.952 5.95h5.951v5.95h-5.95l-5.952 5.95v5.95l5.951 5.95h5.951V513l-5.95 5.95h-5.952v29.75l-5.951 5.95 5.95 5.95h5.952l5.951 5.95 5.952 5.95v23.8l5.95 5.95h-5.95l-5.952 5.95v5.95h-5.95l-5.952 5.95v5.95h11.902L-5.34 632H6.56l5.951-5.95 5.951-5.95 5.952-5.95 5.95-5.95H48.22l5.95-5.95-5.95-5.95-5.952-5.95 5.952-5.95 5.95 5.95V572.5l5.952-5.95v-5.95l5.951-5.95h5.951v-5.95l-5.95-5.95v-5.95l5.95-5.95v-5.95h5.952l5.95 5.95 5.952-5.95h5.951l5.951 5.95v5.95l5.952-5.95v-5.95l5.95-5.95 5.952-5.95v-5.95l5.951-5.95 5.952 5.95h5.95l5.952 5.95 5.951-5.95v-11.9h-5.951l5.951-5.95v-5.95l-5.951-5.95v-11.9l5.951-5.95 5.951-5.95 5.952-5.95v-11.9l-5.952-5.95 5.952-5.95v-5.95l5.95-5.95h5.952v-5.95h-5.951l-5.951-5.95h-5.952v-11.9l5.952-5.95v-5.95l-5.952-5.95v-23.8h5.952v-29.75l-5.952-5.95v-5.95h5.952l5.95-5.95h5.952l5.951-5.95v-11.9l5.952-5.95h5.95l5.952-5.95-5.951-5.95v-11.9h-5.951v-5.95l-5.952-5.95v-11.9l-5.95 5.95H161.292l-5.952 5.95v-5.95l5.952-5.95h5.95v-5.95l5.952-5.95 5.951-5.95 5.952-5.95 5.95-5.95v-11.9l-5.95-5.95v-5.95l-5.952-5.95-5.95 5.95h-11.903l-5.952 5.95v-5.95l5.952-5.95H149.39V156h-11.902l-5.951 5.95-5.952 5.95v5.95h-5.95l-5.952 5.95h-5.951l-5.952 5.95v-11.9l-5.95 5.95h-5.952l-5.951 5.95H60.122l-5.951 5.95H42.268v17.85H24.415l-5.952-5.95H6.561v5.95L.61 215.5v5.95l5.951 5.95v11.9L.61 233.35v-5.95l-5.951-5.95h-5.952v5.95h5.952v5.95h-5.952l-5.95 5.95 5.95 5.95v11.9h-5.95l-5.952 5.95V275l5.951 5.95h5.951v17.85l-5.95 5.95h-5.952v17.85l5.951 5.95-5.951 5.95 5.951 5.95-5.951 5.95 5.951 5.95v5.95l-5.951 5.95h5.951v5.95h5.951v11.9l-5.95 5.95-5.952 5.95v11.9l-5.951 5.95-5.952 5.95v5.95l5.952 5.95v5.95h-5.952l-5.95 5.95H-47l5.951 5.95z"/>
    </g>
</svg>
