<svg width="22" height="16" viewBox="0 0 22 16" version="1.1" xmlns="http://www.w3.org/2000/svg" xmlns:xlink="http://www.w3.org/1999/xlink">
<title>Combined Shape</title>
<desc>Created using Figma</desc>
<g id="Canvas" transform="translate(-2549 -9704)">
<g id="Combined Shape">
<use xlink:href="#path0_fill" transform="matrix(-1 -1.22465e-16 1.22465e-16 -1 2571 9720)" fill="#FFFFFF"/>
</g>
</g>
<defs>
<path id="path0_fill" fill-rule="evenodd" d="M 12 12.8096L 6 16L 6.22583 13.6182C 1.94995 12.3828 2.77339e-16 9.41504 0 7.15039C -4.91055e-16 3.14062 4.83154 7.55418e-16 11 0C 17.168 -7.55358e-16 22 3.14062 22 7.15039C 22 10.3477 18.8669 13.1006 14.2039 14L 13.8262 11.8311C 17.405 11.1406 19.9048 9.21582 19.9048 7.15039C 19.9048 4.46973 15.8267 2.20508 11 2.20508C 6.17285 2.20508 2.09521 4.46973 2.09521 7.15039C 2.09521 8.55469 3.61279 10.4551 6.4375 11.3848L 6.7583 8L 12 12.8096Z"/>
</defs>
</svg>
