<?xml version="1.0" encoding="UTF-8" standalone="no"?>
<!-- Created with Keyshape -->
<svg xmlns="http://www.w3.org/2000/svg" xmlns:xlink="http://www.w3.org/1999/xlink" viewBox="0 0 2600 380" text-rendering="geometricPrecision" shape-rendering="geometricPrecision" style="white-space: pre;">
    <defs>
        <linearGradient id="Gradient-0" x1="1300.6" y1="0" x2="1300.6" y2="355" gradientUnits="userSpaceOnUse">
            <stop offset="0" stop-color="#231fa8"/>
            <stop offset="1" stop-color="#4d166f"/>
        </linearGradient>
    </defs>
    <style>
@keyframes a0_t { 0% { transform: translate(-612px,0px); } 25% { transform: translate(327.2px,0px); } 50% { transform: translate(327.2px,0px); } 75% { transform: translate(-612px,0px); } 100% { transform: translate(-612px,0px); } }
@keyframes a1_t { 0% { transform: translate(-20px,0px); } 50% { transform: translate(15px,-16.7px); } 100% { transform: translate(-20px,0px); } }
@keyframes a2_t { 0% { transform: translate(-20px,0px); } 12.5% { transform: translate(31.05px,0px); } 25% { transform: translate(-20px,0px); } 37.5% { transform: translate(31.05px,0px); } 50% { transform: translate(-20px,0px); } 62.5% { transform: translate(31.05px,0px); } 75% { transform: translate(-20px,0px); } 87.5% { transform: translate(31.05px,0px); } 100% { transform: translate(-20px,0px); } }
@keyframes a3_t { 0% { transform: translate(-20px,0px); } 12.5% { transform: translate(-0.9px,0px); } 25% { transform: translate(-20px,0px); } 37.5% { transform: translate(-0.9px,0px); } 50% { transform: translate(-20px,0px); } 62.5% { transform: translate(-0.9px,0px); } 75% { transform: translate(-20px,0px); } 87.5% { transform: translate(-0.9px,0px); } 100% { transform: translate(-20px,0px); } }
@keyframes a4_t { 0% { transform: translate(592.45px,125.3px) scaleX(-1) translate(-1145.65px,-117.3px); } 12.5% { transform: translate(609.45px,125.3px) scaleX(-1) translate(-1145.65px,-117.3px); } 25% { transform: translate(592.45px,125.3px) scaleX(-1) translate(-1145.65px,-117.3px); } 37.5% { transform: translate(609.45px,125.3px) scaleX(-1) translate(-1145.65px,-117.3px); } 50% { transform: translate(592.45px,125.3px) scaleX(-1) translate(-1145.65px,-117.3px); } 62.5% { transform: translate(609.45px,125.3px) scaleX(-1) translate(-1145.65px,-117.3px); } 75% { transform: translate(592.45px,125.3px) scaleX(-1) translate(-1145.65px,-117.3px); } 87.5% { transform: translate(609.45px,125.3px) scaleX(-1) translate(-1145.65px,-117.3px); } 100% { transform: translate(592.45px,125.3px) scaleX(-1) translate(-1145.65px,-117.3px); } }
@keyframes a5_t { 0% { transform: translate(-20px,0px); } 12.5% { transform: translate(-8px,0px); } 25% { transform: translate(-20px,0.000452px); } 37.5% { transform: translate(-8px,0.000452px); } 50% { transform: translate(-20px,0.000452px); } 62.5% { transform: translate(-8px,0.000452px); } 75% { transform: translate(-20px,0.000452px); } 87.5% { transform: translate(-8px,0.000452px); } 100% { transform: translate(-20px,0.000452px); } }
@keyframes a6_t { 0% { transform: translate(-39.161675px,-6.05px); } 12.5% { transform: translate(-1.589753px,-6.05px); } 25% { transform: translate(-39.16px,-6.05px); } 37.5% { transform: translate(-1.59px,-6.05px); } 50% { transform: translate(-39.16px,-6.05px); } 62.5% { transform: translate(-1.59px,-6.05px); } 75% { transform: translate(-39.16px,-6.05px); } 87.5% { transform: translate(-1.59px,-6.05px); } 100% { transform: translate(-39.16px,-6.05px); } }
@keyframes a7_t { 0% { transform: translate(-20px,0px); } 12.5% { transform: translate(-5px,0px); } 25% { transform: translate(-20px,0.00001px); } 37.9166% { transform: translate(-5px,0.00001px); } 50% { transform: translate(-20px,0.00001px); } 62.5% { transform: translate(-5px,0.00001px); } 75% { transform: translate(-20px,0.00001px); } 87.5% { transform: translate(-5px,0.00001px); } 100% { transform: translate(-20px,0.00001px); } }
@keyframes a8_t { 0% { transform: translate(-20px,0px); } 12.5% { transform: translate(-14px,0px); } 25% { transform: translate(-20px,0px); } 37.5% { transform: translate(-14px,0px); } 50% { transform: translate(-20px,0px); } 62.5% { transform: translate(-14px,0px); } 75% { transform: translate(-20px,0px); } 87.5% { transform: translate(-14px,0px); } 100% { transform: translate(-20px,0px); } }
@keyframes a9_t { 0% { transform: translate(-20px,0px); } 12.5% { transform: translate(-14px,0px); } 25% { transform: translate(-20px,0px); } 37.5% { transform: translate(-14px,0px); } 50% { transform: translate(-20px,0px); } 62.5% { transform: translate(-14px,0px); } 75% { transform: translate(-20px,0px); } 87.5% { transform: translate(-14px,0px); } 100% { transform: translate(-20px,0px); } }
@keyframes a10_t { 0% { transform: translate(-20px,0px); } 12.5% { transform: translate(-14px,0px); } 25% { transform: translate(-20px,0px); } 37.5% { transform: translate(-14px,0px); } 50% { transform: translate(-20px,0px); } 62.5% { transform: translate(-14px,0px); } 75% { transform: translate(-20px,0px); } 87.5% { transform: translate(-14px,0px); } 100% { transform: translate(-20px,0px); } }
@keyframes a11_t { 0% { transform: translate(-20px,0px); } 12.5% { transform: translate(-8px,0px); } 25% { transform: translate(-20px,0px); } 37.5% { transform: translate(-8px,0px); } 50% { transform: translate(-20px,0px); } 62.5% { transform: translate(-8px,0px); } 75% { transform: translate(-20px,0px); } 87.5% { transform: translate(-8px,0px); } 100% { transform: translate(-20px,0px); } }
@keyframes a12_t { 0% { transform: translate(-20px,0px); } 12.5% { transform: translate(-8px,0px); } 25% { transform: translate(-20px,0px); } 37.5% { transform: translate(-8px,0px); } 50% { transform: translate(-20px,0px); } 62.5% { transform: translate(-8px,0px); } 75% { transform: translate(-20px,0px); } 87.5% { transform: translate(-8px,0px); } 100% { transform: translate(-20px,0px); } }
@keyframes a13_t { 0% { transform: translate(788.45px,343.5px) scale(1,1) translate(-574.55px,-341.7px); } 8.3333% { transform: translate(788.45px,343.5px) scale(1.5,1) translate(-574.55px,-341.7px); } 16.6666% { transform: translate(788.45px,343.5px) scale(1,1) translate(-574.55px,-341.7px); } 25% { transform: translate(788.45px,343.5px) scale(1.5,1) translate(-574.55px,-341.7px); } 33.3333% { transform: translate(788.45px,343.5px) scale(1,1) translate(-574.55px,-341.7px); } 41.6666% { transform: translate(788.45px,343.5px) scale(1.5,1) translate(-574.55px,-341.7px); } 50% { transform: translate(788.45px,343.5px) scale(1,1) translate(-574.55px,-341.7px); } 58.3333% { transform: translate(788.45px,343.5px) scale(1.5,1) translate(-574.55px,-341.7px); } 66.6666% { transform: translate(788.45px,343.5px) scale(1,1) translate(-574.55px,-341.7px); } 75% { transform: translate(788.45px,343.5px) scale(1.5,1) translate(-574.55px,-341.7px); } 83.3333% { transform: translate(788.45px,343.5px) scale(1,1) translate(-574.55px,-341.7px); } 91.6666% { transform: translate(788.45px,343.5px) scale(1.5,1) translate(-574.55px,-341.7px); } 100% { transform: translate(788.45px,343.5px) scale(1,1) translate(-574.55px,-341.7px); } }
@keyframes a14_t { 0% { transform: translate(592.45px,341.9px) scale(1,1) translate(-378.55px,-340.1px); } 8.3333% { transform: translate(592.45px,341.9px) scale(1.5,1) translate(-378.55px,-340.1px); } 16.6666% { transform: translate(592.45px,341.9px) scale(1,1) translate(-378.55px,-340.1px); } 25% { transform: translate(592.45px,341.9px) scale(1.5,1) translate(-378.55px,-340.1px); } 33.3333% { transform: translate(592.45px,341.9px) scale(1,1) translate(-378.55px,-340.1px); } 41.6666% { transform: translate(592.45px,341.9px) scale(1.5,1) translate(-378.55px,-340.1px); } 50% { transform: translate(592.45px,341.9px) scale(1,1) translate(-378.55px,-340.1px); } 58.3333% { transform: translate(592.45px,341.9px) scale(1.5,1) translate(-378.55px,-340.1px); } 66.6666% { transform: translate(592.45px,341.9px) scale(1,1) translate(-378.55px,-340.1px); } 75% { transform: translate(592.45px,341.9px) scale(1.5,1) translate(-378.55px,-340.1px); } 83.3333% { transform: translate(592.45px,341.9px) scale(1,1) translate(-378.55px,-340.1px); } 91.6666% { transform: translate(592.45px,341.9px) scale(1.5,1) translate(-378.55px,-340.1px); } 100% { transform: translate(592.45px,341.9px) scale(1,1) translate(-378.55px,-340.1px); } }
@keyframes a15_t { 0% { transform: translate(378.45px,353.9px) scale(1,1) translate(-164.55px,-352.1px); } 8.3333% { transform: translate(378.45px,353.9px) scale(1.5,1) translate(-164.55px,-352.1px); } 16.6666% { transform: translate(378.45px,353.9px) scale(1,1) translate(-164.55px,-352.1px); } 25% { transform: translate(378.45px,353.9px) scale(1.5,1) translate(-164.55px,-352.1px); } 33.3333% { transform: translate(378.45px,353.9px) scale(1,1) translate(-164.55px,-352.1px); } 41.6666% { transform: translate(378.45px,353.9px) scale(1.5,1) translate(-164.55px,-352.1px); } 50% { transform: translate(378.45px,353.9px) scale(1,1) translate(-164.55px,-352.1px); } 58.3333% { transform: translate(378.45px,353.9px) scale(1.5,1) translate(-164.55px,-352.1px); } 66.6666% { transform: translate(378.45px,353.9px) scale(1,1) translate(-164.55px,-352.1px); } 75% { transform: translate(378.45px,353.9px) scale(1.5,1) translate(-164.55px,-352.1px); } 83.3333% { transform: translate(378.45px,353.9px) scale(1,1) translate(-164.55px,-352.1px); } 91.6666% { transform: translate(378.45px,353.9px) scale(1.5,1) translate(-164.55px,-352.1px); } 100% { transform: translate(378.45px,353.9px) scale(1,1) translate(-164.55px,-352.1px); } }
@keyframes a16_t { 0% { transform: translate(722.45px,353.5px) scale(1,1) translate(-508.55px,-351.7px); } 8.3333% { transform: translate(722.45px,353.5px) scale(0.5,1) translate(-508.55px,-351.7px); } 16.6666% { transform: translate(722.45px,353.5px) scale(1,1) translate(-508.55px,-351.7px); } 25% { transform: translate(722.45px,353.5px) scale(0.5,1) translate(-508.55px,-351.7px); } 33.3333% { transform: translate(722.45px,353.5px) scale(1,1) translate(-508.55px,-351.7px); } 41.6666% { transform: translate(722.45px,353.5px) scale(0.5,1) translate(-508.55px,-351.7px); } 50% { transform: translate(722.45px,353.5px) scale(1,1) translate(-508.55px,-351.7px); } 58.3333% { transform: translate(722.45px,353.5px) scale(0.5,1) translate(-508.55px,-351.7px); } 66.6666% { transform: translate(722.45px,353.5px) scale(1,1) translate(-508.55px,-351.7px); } 75% { transform: translate(722.45px,353.5px) scale(0.5,1) translate(-508.55px,-351.7px); } 83.3333% { transform: translate(722.45px,353.5px) scale(1,1) translate(-508.55px,-351.7px); } 91.6666% { transform: translate(722.45px,353.5px) scale(0.5,1) translate(-508.55px,-351.7px); } 100% { transform: translate(722.45px,353.5px) scale(1,1) translate(-508.55px,-351.7px); } }
@keyframes a17_t { 0% { transform: translate(525.35px,365.9px) scale(1,1) translate(-311.45px,-364.1px); } 8.3333% { transform: translate(525.35px,365.9px) scale(0.5,1) translate(-311.45px,-364.1px); } 16.6666% { transform: translate(525.35px,365.9px) scale(1,1) translate(-311.45px,-364.1px); } 25% { transform: translate(525.35px,365.9px) scale(0.5,1) translate(-311.45px,-364.1px); } 33.3333% { transform: translate(525.35px,365.9px) scale(1,1) translate(-311.45px,-364.1px); } 41.6666% { transform: translate(525.35px,365.9px) scale(0.5,1) translate(-311.45px,-364.1px); } 50% { transform: translate(525.35px,365.9px) scale(1,1) translate(-311.45px,-364.1px); } 58.3333% { transform: translate(525.35px,365.9px) scale(0.5,1) translate(-311.45px,-364.1px); } 66.6666% { transform: translate(525.35px,365.9px) scale(1,1) translate(-311.45px,-364.1px); } 75% { transform: translate(525.35px,365.9px) scale(0.5,1) translate(-311.45px,-364.1px); } 83.3333% { transform: translate(525.35px,365.9px) scale(1,1) translate(-311.45px,-364.1px); } 91.6666% { transform: translate(525.35px,365.9px) scale(0.5,1) translate(-311.45px,-364.1px); } 100% { transform: translate(525.35px,365.9px) scale(1,1) translate(-311.45px,-364.1px); } }
@keyframes a18_t { 0% { transform: translate(503.35px,345.9px) scale(1,1) translate(-289.45px,-344.1px); } 8.3333% { transform: translate(503.35px,345.9px) scale(1.5,1) translate(-289.45px,-344.1px); } 16.6666% { transform: translate(503.35px,345.9px) scale(1,1) translate(-289.45px,-344.1px); } 25% { transform: translate(503.35px,345.9px) scale(1.5,1) translate(-289.45px,-344.1px); } 33.3333% { transform: translate(503.35px,345.9px) scale(1,1) translate(-289.45px,-344.1px); } 41.6666% { transform: translate(503.35px,345.9px) scale(1.5,1) translate(-289.45px,-344.1px); } 50% { transform: translate(503.35px,345.9px) scale(1,1) translate(-289.45px,-344.1px); } 58.3333% { transform: translate(503.35px,345.9px) scale(1.5,1) translate(-289.45px,-344.1px); } 66.6666% { transform: translate(503.35px,345.9px) scale(1,1) translate(-289.45px,-344.1px); } 75% { transform: translate(503.35px,345.9px) scale(1.5,1) translate(-289.45px,-344.1px); } 83.3333% { transform: translate(503.35px,345.9px) scale(1,1) translate(-289.45px,-344.1px); } 91.6666% { transform: translate(503.35px,345.9px) scale(1.5,1) translate(-289.45px,-344.1px); } 100% { transform: translate(503.35px,345.9px) scale(1,1) translate(-289.45px,-344.1px); } }
@keyframes a19_t { 0% { transform: translate(32.608683px,31.858863px) rotate(0deg) translate(-28.9125px,-29.75px); } 25% { transform: translate(32.608683px,31.858863px) rotate(360deg) translate(-28.9125px,-29.75px); } 50% { transform: translate(32.608683px,31.858863px) rotate(720deg) translate(-28.9125px,-29.75px); } 75% { transform: translate(32.608683px,31.858863px) rotate(1080deg) translate(-28.9125px,-29.75px); } 100% { transform: translate(32.608683px,31.858863px) rotate(1440deg) translate(-28.9125px,-29.75px); } }
@keyframes a20_t { 0% { transform: translate(32.608683px,31.858863px) rotate(180deg) translate(-28.9125px,-29.75px); } 12.5% { transform: translate(32.608683px,31.858863px) rotate(360deg) translate(-28.9125px,-29.75px); } 37.5% { transform: translate(32.608683px,31.858863px) rotate(720deg) translate(-28.9125px,-29.75px); } 62.5% { transform: translate(32.608683px,31.858863px) rotate(1080deg) translate(-28.9125px,-29.75px); } 87.5% { transform: translate(32.608683px,31.858863px) rotate(1440deg) translate(-28.9125px,-29.75px); } 100% { transform: translate(32.608683px,31.858863px) rotate(1620deg) translate(-28.9125px,-29.75px); } }
    </style>
    <path fill="url(#Gradient-0)" stroke="none" d="M-0.8,0L2599.2,0L2599.2,380L-0.8,380Z" transform="translate(1301.4,177.5) translate(-1300.6,-177.5)"/>
    <path class="st0" d="M1396.4,242.1C1397,242.1,1397.7,242.2,1398.4,242.3L1399.8,242.5L1399.8,167.4L1370.5,167.4L1328.9,208.2L1348.6,228.8L1365.4,212.2L1365.4,275.6L1399.8,275.6L1399.8,267L1398.4,267.2C1397.6,267.3,1397,267.4,1396.4,267.4C1389,267.4,1382.9,261.7,1382.9,254.8C1383,247.8,1389,242.1,1396.4,242.1Z" fill="#ffffff"/>
    <path class="st0" d="M1169.5,165.1C1140.1,165.1,1124.7,187.5,1122.7,213.7L1154.8,224.3C1154.7,222.8,1154.7,221.3,1154.7,219.7C1154.7,201.7,1159.3,193.3,1169.5,193.3C1179.7,193.3,1184.3,201.7,1184.3,219.7C1184.3,237.7,1179.7,246.2,1169.5,246.2C1167.3,246.2,1165.4,245.8,1163.7,245L1164.2,246.2L1165.3,274.3C1166.7,274.4,1168.1,274.5,1169.5,274.5C1201.1,274.5,1216.5,248.4,1216.5,219.7C1216.5,191,1201.1,165.1,1169.5,165.1Z" fill="#ffffff"/>
    <path class="st0" d="M1018.7,273.3L1009,266L1001.1,256L996.4,245.8L991.8,245.8C993.2,244.9,994.6,244.1,996,243.2L996.5,242.9L997.6,234.5L1002.6,219.7L1010.7,213L1023,206.1L1024.8,205.3L1025.5,204.9L1025.5,204.1C1025.5,193.4,1020.9,183.7,1012.7,177C1004.3,170.1,992.6,166.5,979,166.5C970.5,166.5,948.9,168.3,933.4,184.8L932.7,185.6L951.6,208.6L952.5,207.8C961.1,200.5,969.6,197.1,979,197.1C986,197.1,990.7,199.9,990.7,204.2C990.7,211.5,985.8,215.7,938.2,249.3L937.7,249.7L937.7,276L1026.6,276L1026.4,274.5L1018.7,273.3Z" fill="#ffffff"/>
    <g>
        <path class="st0" d="M955.3,339.5L953.8,341.5L953.8,348.9L945.7,348.9L945.7,322.1L953.8,322.1L953.8,332.2L960.8,322.1L970.7,322.1L960.6,334.6L971.2,349L961.3,349L955.3,339.5Z" fill="#ffffff"/>
        <path class="st0" d="M980.7,322.1L995,322.1C1001.3,322.1,1004.7,326.3,1004.7,331.3C1004.7,336.3,1001.3,340.3,995,340.3L988.8,340.3L988.8,348.9L980.7,348.9L980.7,322.1ZM994,328.9L988.8,328.9L988.8,333.6L994,333.6C995.4,333.6,996.5,332.7,996.5,331.3C996.5,329.8,995.4,328.9,994,328.9Z" fill="#ffffff"/>
        <path class="st0" d="M1029.9,345.5L1019.6,345.5L1018.6,349L1009.8,349L1019.7,322.2L1029.9,322.2L1039.8,349L1031,349L1029.9,345.5ZM1021.7,338.7L1027.8,338.7L1024.7,329.2L1021.7,338.7Z" fill="#ffffff"/>
        <path class="st0" d="M1052.6,329.2L1045.4,329.2L1045.4,322.1L1067.9,322.1L1067.9,329.2L1060.7,329.2L1060.7,349L1052.6,349L1052.6,329.2Z" fill="#ffffff"/>
        <path class="st0" d="M1088.5,339.5L1087,341.5L1087,348.9L1078.9,348.9L1078.9,322.1L1087,322.1L1087,332.2L1094,322.1L1103.9,322.1L1093.8,334.6L1104.4,349L1094.5,349L1088.5,339.5Z" fill="#ffffff"/>
        <path class="st0" d="M1125.5,321.7C1133.8,321.7,1140.2,327.3,1140.2,335.6C1140.2,343.9,1133.8,349.5,1125.5,349.5C1117.2,349.5,1110.8,343.9,1110.8,335.6C1110.8,327.3,1117.2,321.7,1125.5,321.7ZM1125.5,328.8C1121.6,328.8,1119.1,331.8,1119.1,335.5C1119.1,339.2,1121.6,342.2,1125.5,342.2C1129.4,342.2,1131.9,339.2,1131.9,335.5C1132,331.8,1129.4,328.8,1125.5,328.8Z" fill="#ffffff"/>
        <path class="st0" d="M1151.2,322.1L1171.6,322.1L1171.6,328.9L1159.4,328.9L1159.4,332L1171.4,332L1171.4,338.8L1159.4,338.8L1159.4,342.2L1171.6,342.2L1171.6,349L1151.2,349L1151.2,322.1Z" fill="#ffffff"/>
        <path class="st0" d="M1200.1,335.6C1200.1,327.3,1206.5,321.7,1214.7,321.7C1221.9,321.7,1225.5,325.8,1227.1,329.5L1220.1,332.8C1219.4,330.7,1217.3,328.9,1214.7,328.9C1211,328.9,1208.4,331.9,1208.4,335.6C1208.4,339.3,1211,342.3,1214.7,342.3C1217.3,342.3,1219.4,340.5,1220.1,338.4L1227.1,341.6C1225.5,345.2,1221.9,349.4,1214.7,349.4C1206.5,349.4,1200.1,343.8,1200.1,335.6Z" fill="#ffffff"/>
        <path class="st0" d="M1250.9,321.7C1259.2,321.7,1265.6,327.3,1265.6,335.6C1265.6,343.9,1259.2,349.5,1250.9,349.5C1242.6,349.5,1236.2,343.9,1236.2,335.6C1236.2,327.3,1242.6,321.7,1250.9,321.7ZM1250.9,328.8C1247,328.8,1244.5,331.8,1244.5,335.5C1244.5,339.2,1247,342.2,1250.9,342.2C1254.8,342.2,1257.3,339.2,1257.3,335.5C1257.4,331.8,1254.8,328.8,1250.9,328.8Z" fill="#ffffff"/>
        <path class="st0" d="M1275.8,341.9C1276.8,341,1278.2,338.4,1279.1,328.9L1279.7,322.1L1300.1,322.1L1300.1,341.9L1303.2,341.9L1303.2,353.9L1296.1,353.9L1296.1,348.9L1280.7,348.9L1280.7,353.9L1273.6,353.9L1273.6,341.9L1275.8,341.9ZM1284,341.9L1292,341.9L1292,329.2L1286.2,329.2L1286,331.9C1285.5,337.5,1284.7,340.5,1284,341.9Z" fill="#ffffff"/>
        <path class="st0" d="M1314,322.1L1334.4,322.1L1334.4,328.9L1322.2,328.9L1322.2,332L1334.2,332L1334.2,338.8L1322.2,338.8L1322.2,342.2L1334.4,342.2L1334.4,349L1314,349L1314,322.1Z" fill="#ffffff"/>
        <path class="st0" d="M1346.1,322.1L1360.4,322.1C1366.7,322.1,1370.1,326.3,1370.1,331.3C1370.1,336.3,1366.7,340.3,1360.4,340.3L1354.2,340.3L1354.2,348.9L1346.1,348.9L1346.1,322.1ZM1359.4,328.9L1354.2,328.9L1354.2,333.6L1359.4,333.6C1360.8,333.6,1361.9,332.7,1361.9,331.3C1361.8,329.8,1360.7,328.9,1359.4,328.9Z" fill="#ffffff"/>
        <path class="st0" d="M1402.7,338.3L1401.5,338.3L1401.5,349L1393.4,349L1393.4,338.3L1392.2,338.3L1386.4,349L1376.9,349L1385.8,335L1377.3,322.2L1386.7,322.2L1392.3,332.1L1393.5,332.1L1393.5,322.2L1401.6,322.2L1401.6,332.1L1402.8,332.1L1408.4,322.2L1417.8,322.2L1409.3,335L1418.2,349L1408.7,349L1402.7,338.3Z" fill="#ffffff"/>
        <path class="st0" d="M1444.8,345.5L1434.5,345.5L1433.5,349L1424.7,349L1434.6,322.2L1444.8,322.2L1454.7,349L1445.9,349L1444.8,345.5ZM1436.6,338.7L1442.7,338.7L1439.6,329.2L1436.6,338.7Z" fill="#ffffff"/>
        <path class="st0" d="M1482,338.7L1472.4,338.7L1472.4,349L1464.3,349L1464.3,322.2L1472.4,322.2L1472.4,331.7L1482,331.7L1482,322.2L1490.1,322.2L1490.1,349L1482,349L1482,338.7Z" fill="#ffffff"/>
        <path class="st0" d="M1510.6,322.1L1510.6,337.2L1519.9,322.1L1528.3,322.1L1528.3,349L1520.2,349L1520.2,333L1510.3,349L1502.5,349L1502.5,322.2L1510.6,322.2Z" fill="#ffffff"/>
        <path class="st0" d="M1540.7,322.1L1561.1,322.1L1561.1,328.9L1548.9,328.9L1548.9,332L1560.9,332L1560.9,338.8L1548.9,338.8L1548.9,342.2L1561.1,342.2L1561.1,349L1540.7,349L1540.7,322.1Z" fill="#ffffff"/>
    </g>
    <path class="st0" d="M1550.1,218C1561.8,212.7,1567.5,204.7,1567.5,193.6C1567.5,183.9,1562.3,176,1552.5,170.9C1544.5,166.7,1533.4,164.4,1521.3,164.4C1509.2,164.4,1498.1,166.7,1490.1,170.9C1480.3,176,1475.1,183.9,1475.1,193.6C1475.1,204.7,1480.7,212.8,1492.3,218C1480.5,223.5,1473.3,233.5,1473.3,244.3C1473.3,254.5,1478.5,262.7,1488.5,268.2C1496.8,272.8,1508.5,275.3,1521.3,275.3C1534.1,275.3,1545.7,272.8,1554.1,268.2C1564,262.8,1569.3,254.5,1569.3,244.3C1569.3,233.6,1562,223.6,1550.1,218ZM1521.3,206C1515.3,205.1,1509.2,202,1509.2,198.4C1509.2,194.6,1514,192,1521.3,192C1528.4,192,1533.2,194.6,1533.2,198.4C1533.2,202,1527.2,205.1,1521.3,206ZM1521.3,232.5C1528,233.5,1535.1,236.8,1535.1,240.9C1535.1,245,1529.6,247.7,1521.3,247.7C1512.9,247.7,1507.5,245,1507.5,240.9C1507.5,236.7,1514.6,233.4,1521.3,232.5Z" fill="#ffffff"/>
    <g>
        <path class="st1" d="M1686.8,286.9C1686.4,287.4,1686.5,288.2,1687.1,288.6L1703.3,300.2C1703.5,300.3,1703.7,300.4,1704,300.4C1704.4,300.4,1704.7,300.2,1705,299.9C1705.4,299.4,1705.3,298.6,1704.7,298.2L1688.5,286.6C1687.9,286.2,1687.2,286.4,1686.8,286.9Z" fill="#d15454"/>
        <path class="st1" d="M1723.6,311.1C1723.1,310.7,1722.3,310.8,1721.9,311.4C1721.5,311.9,1721.6,312.7,1722.2,313.1L1743.9,328.6C1744.1,328.7,1744.3,328.8,1744.6,328.8C1745,328.8,1745.3,328.6,1745.6,328.3C1746,327.8,1745.9,327,1745.3,326.6L1723.6,311.1Z" fill="#d15454"/>
        <path class="st1" d="M1765.1,341.6C1764.6,341.2,1763.8,341.3,1763.4,341.9C1763,342.4,1763.1,343.2,1763.7,343.6L1800.1,369.6C1800.3,369.7,1800.5,369.8,1800.8,369.8C1801.2,369.8,1801.5,369.6,1801.8,369.3C1802.2,368.8,1802.1,368,1801.5,367.6L1765.1,341.6Z" fill="#d15454"/>
        <path class="st1" d="M1351.5,177L1348.9,188.7L1353.1,184.6Z" fill="#d15454"/>
        <path class="st1" d="M1336.6,196.5L1337.4,200.1L1339.4,198.1L1336.6,185.3L1332.3,205L1335.4,202Z" fill="#d15454"/>
        <path class="st1" d="M1329.2,155.8C1324.7,155.8,1321,159.5,1321,164C1321,168.5,1324.7,172.2,1329.2,172.2C1333.7,172.2,1337.4,168.5,1337.4,164C1337.4,159.5,1333.7,155.8,1329.2,155.8ZM1329.2,169.8C1326,169.8,1323.4,167.2,1323.4,164C1323.4,160.8,1326,158.2,1329.2,158.2C1332.4,158.2,1335,160.8,1335,164C1335,167.2,1332.4,169.8,1329.2,169.8Z" fill="#d15454"/>
        <path class="st1" d="M1330.1,211.7L1332.4,211.7L1330.1,209.4Z" fill="#d15454"/>
        <path class="st1" d="M1240.8,177.6L1239.6,177.6L1238.4,177.6L1238.4,185.8L1240.8,185.8Z" fill="#d15454"/>
        <path class="st1" d="M1249.6,177.6L1248.4,177.6L1247.2,177.6L1247.2,185.8L1249.6,185.8Z" fill="#d15454"/>
        <path class="st1" d="M1194.6,168.3C1193.6,168.6,1192.8,169.3,1192.4,170.3C1193.1,170.7,1193.8,171.1,1194.4,171.6C1194.6,171,1195.1,170.5,1195.8,170.5C1196.6,170.5,1197.3,171.2,1197.3,172C1197.3,172.5,1197,172.9,1196.7,173.2C1197.3,173.7,1198,174.2,1198.6,174.7C1199.3,174,1199.7,173,1199.7,172C1199.7,170.3,1198.6,168.9,1197,168.4L1197,164.8L1199.9,164.8L1199.9,162.4L1197,162.4L1197,159.5L1194.6,159.5L1194.6,162.4L1191.7,162.4L1191.7,163.6L1191.7,164.8L1194.6,164.8L1194.6,168.3ZM1195.7,169L1195.7,169L1195.7,169L1195.7,169Z" fill="#d15454"/>
        <path class="st1" d="M1215.6,205.4L1215.6,199.5L1214.4,199.5L1213.6,199.5C1214.2,201.4,1214.6,203.4,1215,205.4L1215.6,205.4Z" fill="#d15454"/>
        <path class="st1" d="M1220.9,205.4L1220.9,199.5L1219.7,199.5L1218.5,199.5L1218.5,205.4L1219.7,205.4Z" fill="#d15454"/>
        <path class="st1" d="M1209.9,249.8L1211.4,249.8L1211.4,246.3C1211,247.5,1210.5,248.7,1209.9,249.8Z" fill="#d15454"/>
        <path class="st1" d="M1553.1,217.1C1552.5,217.4,1551.9,217.8,1551.2,218.1C1551.8,218.4,1552.5,218.8,1553.1,219.1L1553.1,217.1Z" fill="#d15454"/>
        <path class="st1" d="M1567.8,197.1C1567.7,197.9,1567.6,198.7,1567.4,199.5L1571.4,199.5L1571.4,182.1L1565.2,182.1C1565.6,182.9,1566,183.7,1566.3,184.5L1569.1,184.5L1569.1,197.1L1567.8,197.1Z" fill="#d15454"/>
        <path class="st1" d="M1589.7,182.1L1574,182.1L1574,199.5L1589.6,199.5L1589.6,182.1ZM1580.7,197.1L1576.4,197.1L1576.4,184.5L1580.7,184.5L1580.7,197.1ZM1587.3,197.1L1583,197.1L1583,184.5L1587.3,184.5L1587.3,197.1Z" fill="#d15454"/>
        <path class="st1" d="M1608,182.1L1592.4,182.1L1592.4,199.5L1608,199.5L1608,182.1ZM1599,197.1L1594.7,197.1L1594.7,184.5L1599,184.5L1599,197.1ZM1605.6,197.1L1601.3,197.1L1601.3,184.5L1605.6,184.5L1605.6,197.1Z" fill="#d15454"/>
        <path class="st1" d="M1555.8,215.5L1555.8,220.7L1571.4,220.7L1571.4,203.3L1566.2,203.3C1565.9,204.1,1565.5,204.9,1565.1,205.7L1569,205.7L1569,218.3L1564.7,218.3L1564.7,206.4C1564,207.6,1563.2,208.7,1562.3,209.8L1562.3,218.4L1558,218.4L1558,213.9C1557.4,214.4,1556.6,215,1555.8,215.5Z" fill="#d15454"/>
        <path class="st1" d="M1574,220.7L1589.6,220.7L1589.6,203.3L1574,203.3L1574,220.7ZM1583.1,205.7L1587.4,205.7L1587.4,218.3L1583.1,218.3L1583.1,205.7ZM1576.4,205.7L1580.7,205.7L1580.7,218.3L1576.4,218.3L1576.4,205.7Z" fill="#d15454"/>
        <path class="st1" d="M1592.4,220.7L1608,220.7L1608,203.3L1592.4,203.3L1592.4,220.7ZM1601.4,205.7L1605.7,205.7L1605.7,218.3L1601.4,218.3L1601.4,205.7ZM1594.7,205.7L1599,205.7L1599,218.3L1594.7,218.3L1594.7,205.7Z" fill="#d15454"/>
        <path class="st1" d="M1569,238.3C1569.2,239.1,1569.4,239.9,1569.5,240.7L1571.5,240.7L1571.5,223.3L1559.2,223.3C1560.1,224.1,1560.9,224.9,1561.7,225.7L1562.4,225.7L1562.4,226.5C1563.3,227.4,1564.1,228.4,1564.8,229.4L1564.8,225.7L1569.1,225.7L1569,238.3L1569,238.3Z" fill="#d15454"/>
        <path class="st1" d="M1574,240.7L1589.6,240.7L1589.6,223.3L1574,223.3L1574,240.7ZM1583.1,225.7L1587.4,225.7L1587.4,238.3L1583.1,238.3L1583.1,225.7ZM1576.4,225.7L1580.7,225.7L1580.7,238.3L1576.4,238.3L1576.4,225.7Z" fill="#d15454"/>
        <path class="st1" d="M2492.6,279.8L2477.8,279.8L2465,279.8L2450.2,279.8L1957,279.8L1942.2,279.8L1929.4,279.8L1914.6,279.8L1803.6,279.8C1804.7,278.5,1805.3,276.9,1805.3,275.1C1805.3,271.1,1802.1,267.9,1798.1,267.9C1796.9,267.9,1795.7,268.2,1794.6,268.8C1793,266.1,1790,264.3,1786.8,264.3C1786.7,264.3,1786.5,264.3,1786.4,264.3C1786.7,263.2,1786.8,262,1786.8,260.8C1786.8,252.9,1780.4,246.4,1772.4,246.4C1768.3,246.4,1764.6,248.1,1762,250.9C1760.4,242.8,1756.6,231.1,1751.3,231.1C1744.2,231.1,1739.8,252.1,1739.8,257.3C1739.8,259.9,1740.7,262.3,1742.2,264.3C1742.1,264.3,1742.1,264.3,1742,264.3C1738,264.3,1734.6,266.9,1733.4,270.7C1733,270.6,1732.7,270.6,1732.3,270.6C1729.1,270.6,1726.4,273.2,1726.4,276.5C1726.4,277.7,1726.8,278.9,1727.5,279.8L1704.3,279.8C1704.6,279.2,1704.9,278.5,1704.9,277.8L1704.9,275.4L1707.8,275.4L1708.1,274.6C1708.5,273.2,1708.7,271.8,1708.7,270.4C1708.7,263.3,1703.6,257.4,1696.8,256.2C1694.3,250.3,1688.5,246.2,1681.7,246.2L1665.6,246.2C1658.9,246.2,1653.2,250.2,1650.6,255.9L1650.5,255.9L1650.2,256.7C1650.2,256.7,1650.2,256.8,1650.2,256.8C1649.6,258.4,1649.3,260,1649.2,261.7C1649,263.9,1649,266.3,1649.2,269L1649.2,269.1C1649.3,269.5,1649.8,273.3,1650.2,274.5L1650.5,275.3L1651.6,275.3L1651.6,277.7C1651.6,278.4,1651.8,279.1,1652.2,279.7L1644.3,279.7L1639,274.4L1638.7,274.1L1637.5,274.1C1639.1,272.8,1640.1,270.8,1640.1,268.6C1640.1,264.6,1636.9,261.4,1632.9,261.4C1631.7,261.4,1630.5,261.7,1629.4,262.3C1627.8,259.6,1624.8,257.8,1621.6,257.8C1621.4,257.8,1621.1,257.8,1620.9,257.8C1622.7,255.6,1623.7,253,1623.7,250.9C1623.7,246.2,1620.1,228.7,1614.2,225.2L1614.2,175L1617.9,175L1617.9,165.3L1614.4,165.3L1614.4,156C1614.4,155.6,1614.2,155.3,1613.9,155.1C1613.6,154.9,1613.2,154.8,1612.9,154.9C1612.7,155,1611,155.5,1609.8,156.7C1609.1,157.4,1608.6,158.4,1608.3,159L1599.7,159C1599,156.2,1596.5,154.2,1593.6,154.2L1572.2,154.2C1569.2,154.2,1566.7,156.2,1566.1,159L1557.5,159C1557.2,158.3,1556.7,157.4,1556,156.7C1554.7,155.4,1553,154.9,1552.8,154.9C1552.4,154.8,1552.1,154.9,1551.8,155.1C1551.5,155.3,1551.3,155.7,1551.3,156L1551.3,165.3L1546.5,165.3L1546.5,167.7C1547.3,168,1548.1,168.3,1548.9,168.6L1548.9,167.7L1615.7,167.7L1615.7,172.7L1614.3,172.7L1556.7,172.7C1557.8,173.4,1558.9,174.2,1559.8,175.1L1611.9,175.1L1611.9,176L1560.8,176C1561.6,176.8,1562.3,177.5,1563,178.4L1611.9,178.4L1611.9,225C1610.6,225.1,1609.5,225.9,1608.4,227.2L1608.4,223.5L1592.8,223.5L1592.8,240.9L1602.5,240.9C1602.3,241.8,1602,242.8,1601.9,243.6L1592.8,243.6L1592.8,261L1606.3,261C1607.7,261.9,1609.4,262.5,1611.2,262.7L1611.2,273.7L1590.6,273.7L1590.6,243.6L1575,243.6L1575,260C1574.1,259.3,1573.1,258.7,1572,258.3L1572,243.4L1570.3,243.4C1570.3,243.7,1570.3,244.1,1570.3,244.4C1570.3,246.6,1570.1,248.6,1569.6,250.6L1569.6,257.9C1569.5,257.9,1569.3,257.9,1569.2,257.9C1568.2,257.9,1567.3,258.1,1566.4,258.4C1563.8,262.5,1560,266,1554.9,268.7C1554.5,268.9,1554.1,269.1,1553.7,269.3C1553.7,269.5,1553.6,269.8,1553.6,270C1553.6,271.3,1554,272.5,1554.8,273.5L1553.5,273.5L1553.5,269.3C1552.7,269.7,1551.9,270,1551.1,270.4L1551.1,274.1L1551.1,274.1L1490.3,274.1L1490.3,269.3C1489.8,269.1,1489.4,268.8,1488.9,268.6C1488.6,268.4,1488.3,268.2,1487.9,268L1487.9,273.4L1462.2,273.4L1462.2,253.7L1452.9,253.7L1450.5,253.7L1441.2,253.7L1441.2,273.4L1415,273.4L1415,262.4C1415.6,262.3,1416.2,262.2,1416.7,262L1416.7,263L1427.9,263L1427.9,248.9L1425.2,248.9C1425,246.9,1424.5,244.2,1423.8,241.3L1428,241.3L1428,227.2L1417.9,227.2C1416.9,226,1415.7,225.1,1414.5,224.9L1414.5,155.1L1431.4,155.1L1431.4,273.3L1433.8,273.3L1433.8,155.1L1468.6,155.1L1468.6,273.3L1471,273.3L1471,155.1L1488.2,155.1L1488.2,172.1C1489,171.6,1489.7,171.2,1490.6,170.7L1490.6,155.1L1493.9,155.1L1493.9,145.9L1488.1,145.9L1488.1,137L1479.4,137L1479.4,140.3L1463,140.3C1462.3,134,1456.9,129,1450.4,129C1443.9,129,1438.5,134,1437.8,140.3L1421.9,140.3L1421.9,137L1413.2,137L1413.2,145.8L1407,145.8L1407,155L1411.7,155L1411.7,218.6L1400,218.6L1400,221L1404.9,221L1404.9,226.8L1407.3,226.8L1407.3,221L1411.7,221L1411.7,225.2C1407.9,227.1,1405,235,1403.4,241.7C1402.3,241.1,1401.2,240.7,1400,240.4C1399.2,240.2,1398.4,240.1,1397.6,240.1C1397.3,240.1,1397,240.1,1396.7,240.1C1388.8,240.1,1382.3,246.5,1382.3,254.5C1382.3,262,1388.1,268.2,1395.5,268.8L1395.5,273L1356.7,273L1356.7,221.1L1360.8,221.1L1360.8,226.9L1363.2,226.9L1363.2,221.1L1365.6,221.1L1365.6,218.7L1365.6,212.2L1359,218.7L1354.4,223.3L1354.4,272.9L1348.7,272.9L1348.7,228.7L1348.6,228.6L1346.2,226.1L1346.2,230.9L1313.4,230.9L1313.4,219L1339.4,219L1337.1,216.6L1313.3,216.6L1313.3,209L1315.6,209L1315.6,211.7L1318,211.7L1318,209L1320.4,209L1320.4,211.7L1322.8,211.7L1322.8,209L1325.2,209L1325.2,211.7L1327.6,211.7L1327.6,209L1329.6,209L1328.9,208.3L1330.6,206.7L1326.5,206.7L1321.9,185.4L1317.3,206.7L1315.7,206.7L1315.7,178.4L1342.6,178.4L1342.6,195L1345,192.7L1345,176L1342.7,176L1342.7,148.3L1342.7,148.3L1342.7,133.9C1342.7,132.2,1341.9,130.7,1340.6,129.7L1331.3,85.8L1337.1,88.9L1335.6,80L1342.1,73.7L1333.1,72.4L1329.1,64.3L1325.1,72.4L1316.1,73.7L1322.6,80L1321.1,88.9L1326.7,86L1317.4,130C1316.3,131,1315.6,132.4,1315.6,133.9L1315.6,148.3L1315.6,153L1315.6,176L1313.3,176L1313.3,206.6L1313.3,206.6L1313.3,198.1L1312.2,198.1L1312.2,198L1311.6,198L1307,177L1302.4,198L1301.7,198L1301.7,198.1L1290.3,198.1C1291,196.5,1291.3,194.8,1291.3,192.9C1291.3,188.2,1288.5,184.7,1285.4,181.7C1282.5,178.8,1280.8,176.8,1279.8,175C1280.8,174.3,1281.4,173.2,1281.4,171.9C1281.4,170.2,1280.3,168.8,1278.7,168.3L1278.7,164.7L1281.6,164.7L1281.6,162.3L1278.7,162.3L1278.7,159.4L1276.3,159.4L1276.3,162.3L1273.4,162.3L1273.4,163.5L1273.4,164.7L1276.3,164.7L1276.3,168.3C1274.8,168.8,1273.6,170.2,1273.6,171.9C1273.6,173.2,1274.3,174.3,1275.2,175C1274.2,176.7,1272.3,178.7,1269,182.1C1266.7,184.4,1263.7,188,1263.7,192.9C1263.7,194.7,1264.1,196.5,1264.7,198.1L1264.4,198.1L1264.4,197.7L1262.6,197.7L1262.6,196L1260.2,196L1260.2,197.7L1258.4,197.7L1258.4,198.1L1258.2,198.1L1258.2,170L1257.4,170L1246.8,121.8L1244.9,121.8L1244.9,113.1C1246.3,111.8,1247.1,109.9,1247.1,107.9C1247.1,105.4,1245.6,103.6,1244.1,102C1241.8,99.7,1241.1,98.6,1241.1,97.4L1241.1,92.7L1244.6,92.7L1244.6,91.5L1244.6,90.3L1241.1,90.3L1241.1,87.7L1238.7,87.7L1238.7,90.3L1235.7,90.3L1235.7,91.5L1235.7,92.7L1238.7,92.7L1238.7,97.4C1238.7,98.7,1238.2,99.4,1235.4,102.2C1234.2,103.4,1232.7,105.2,1232.7,107.9C1232.7,109.7,1233.4,111.4,1234.5,112.7L1234.5,121.8L1234.2,121.8L1231.8,121.8L1221.8,167.3C1219.1,164.5,1217.3,162.3,1216.3,160.5C1217.5,159.7,1218.3,158.4,1218.3,156.8C1218.3,154.8,1216.9,153.1,1215.1,152.6L1215.1,147.8L1219.7,147.8L1219.7,146.6L1219.7,145.4L1215.1,145.4L1215.1,141.7L1213.9,141.7L1212.7,141.7L1212.7,145.4L1209.7,145.4L1209.7,146.6L1209.7,147.8L1212.7,147.8L1212.7,152.6C1210.9,153.1,1209.5,154.8,1209.5,156.8C1209.5,158.4,1210.3,159.7,1211.6,160.5C1210.4,162.7,1208.1,165.1,1203.9,169.3C1202.3,170.9,1200.5,172.9,1199.2,175.5C1199.6,175.9,1200,176.3,1200.4,176.7C1200.9,177.2,1201.3,177.7,1201.8,178.2L1202.7,177.4L1206.4,180.7L1210.1,177.4L1213.8,180.7L1217.3,177.6L1217.5,177.4L1217.7,177.6L1221.1,180.7L1224,178.2L1224.8,177.5L1225.8,178.4L1227.8,180.2C1227.9,180.9,1228,181.7,1228,182.4C1228,182.8,1228,183.1,1227.9,183.5L1224.8,180.7L1221.1,184L1217.4,180.7L1213.9,183.8L1213.7,184L1213.5,183.8L1210.1,180.7L1207.2,183.2L1206.4,183.9L1206,183.6C1206.5,184.4,1207.1,185.2,1207.6,186.1L1210.1,183.9L1213.8,187.2L1217.3,184.1L1217.5,183.9L1217.7,184.1L1221.1,187.2L1224,184.7L1224.8,184L1225.8,184.9L1227.4,186.4C1225.7,192.2,1220.4,196.5,1214,196.5C1213.4,196.5,1212.9,196.5,1212.4,196.4C1212.7,197.2,1212.9,198,1213.2,198.8C1213.5,198.8,1213.8,198.8,1214,198.8C1217,198.8,1219.7,198,1222.1,196.6L1223,196.6L1223,208.9C1221.6,209.2,1220.3,210,1219.5,211.2C1218.5,209.9,1217.1,209.1,1215.4,208.9C1215.5,209.7,1215.6,210.6,1215.7,211.4C1217.2,211.8,1218.2,213.2,1218.2,214.8L1218.2,215.9L1216,215.9C1216,216.7,1216.1,217.5,1216.1,218.3L1218.6,218.3L1214.7,236.7L1214.5,235.8C1214.1,237.5,1213.7,239.3,1213.2,240.9L1213.3,241.2L1213.1,241.2C1212.9,242,1212.6,242.8,1212.3,243.6C1212.3,243.7,1212.2,243.8,1212.2,243.9L1215.4,243.9L1215.4,250.1L1217.8,250.1L1217.8,243.9L1222,243.9L1222,250.1L1224.4,250.1L1224.4,243.9L1228.6,243.9L1228.6,250.1L1231,250.1L1231,243.9L1233.9,243.9L1233.9,273.6L1185,273.6L1185,273.2C1184.2,273.5,1183.4,273.7,1182.6,274C1182.1,274.2,1181.5,274.3,1181,274.4L1165.1,274.4L1165.1,273.6L1165.1,247.6L1165.1,245.2L1165.1,243.9L1169.3,243.9L1169.3,235.8L1170.1,235.8L1169.3,235.1L1169.3,233.1L1166.8,233.1C1163.1,230.1,1159,227.3,1154.5,224.9C1153.7,224.5,1152.9,224,1152.1,223.6C1143.2,219.1,1133.2,215.8,1122.5,213.9C1121.7,213.8,1120.9,213.6,1120.2,213.5C1113.7,212.5,1107,211.9,1100.1,211.9L1097.7,211.9L1094.8,211.9L1091.3,211.9L1087.3,211.9L1083.3,211.9L1078.8,211.9L1073.1,211.9L1070.5,211.9C1072,206.1,1074.3,199.2,1077.6,191.5C1077.9,191,1078.2,190,1078.7,188.2C1079.2,186.5,1080,183.6,1080.8,179.8C1081.6,176.3,1082.5,171.7,1083.3,166.5C1086.4,164.4,1088.4,160.8,1088.4,156.8C1088.4,154.2,1087.6,151.8,1086.1,149.9C1087.7,146,1088.5,141.8,1088.5,137.5C1088.5,119.5,1073.8,104.8,1055.8,104.8C1037.8,104.8,1023.1,119.5,1023.1,137.5C1023.1,143.4,1024.7,149.1,1027.7,154.1C1028.3,164.6,1030.1,174,1031.5,180.2C1032.3,183.9,1033.1,186.7,1033.6,188.3C1034.1,190,1034.4,190.9,1034.6,191.5C1036.4,196.5,1037.8,200.9,1039,204.9C1036.7,204.5,1034.4,204.2,1032,204.2C1029.9,204.2,1027.8,204.4,1025.8,204.7C1025,204.8,1024.2,205,1023.4,205.2C1022.4,205.4,1021.4,205.7,1020.4,206.1L1020.4,206.1L1020.1,206.2C1013.4,208.5,1007.6,212.8,1003.3,218.2C1003.2,218.4,1003,218.5,1002.9,218.7L1002.5,219.1L1002.5,219.2C998.2,225.2,995.6,232.5,995.6,240.5C995.6,240.7,995.6,241,995.6,241.2C995.6,242.1,995.7,243,995.7,243.9C995.7,243.9,995.6,244,995.6,244L995.7,244C995.8,244.6,995.8,245.1,995.9,245.6L995.9,246.1L996,246.1C996.1,246.9,996.3,247.7,996.5,248.5C997.6,253.2,999.5,257.5,1002.2,261.4C1002.4,261.7,1002.5,261.9,1002.7,262.2L1003,262.7L1003.1,262.7C1007,267.7,1012.1,271.7,1018,274.1C1018.2,274.2,1018.4,274.3,1018.7,274.4L1018.8,274.6L938.6,274.6L938.6,274L913.2,274C896.2,225.3,849.7,192.7,797.1,192.7C792.3,192.7,787.5,193,782.8,193.5C778.9,193.1,775,192.8,771,192.7C770.4,192.7,769.8,192.7,769.2,192.7C768.9,192.7,768.7,192.7,768.4,192.7C768.3,192.7,768.3,192.7,768.2,192.7C768.1,192.7,768.1,192.7,768,192.7C728.7,192.7,692.8,211,670.2,240.7C670.2,240.7,670.2,240.8,670.1,240.8C669.8,241.2,669.4,241.7,669.1,242.1C668.9,242.4,668.7,242.7,668.5,242.9C668.4,243.1,668.2,243.3,668.1,243.5C666.2,246.2,664.4,248.9,662.7,251.7L662.6,251.7L662.6,251.8C658.9,258,655.7,264.6,653.1,271.5L650.5,273.5L650.8,273.9L0,273.9L0,276.3L652,276.3L680.7,276.3L885.9,276.3L903.7,276.3L904.3,276.3L904.3,276.3L900.4,280.2L900.4,280.2L900.5,280.1L890.7,280.1L875.9,280.1L863.1,280.1L848.3,280.1L716.7,280.1L701.9,280.1L689.1,280.1L674.3,280.1L0,280.1L0,282.5L674.2,282.5L674.2,286.8L677.1,286.8L675.9,306.3L671.9,306.3L671.9,314.4L496,314.4L490,314.4L454,314.4L448,314.4L426.3,314.4L20.3,314.4L0,314.4L0,315.6L0,316.8L426.4,316.8L448.1,316.8L496,316.8L672,316.8L680.4,316.8L816.5,316.8L860.8,316.8L863.7,316.8L800.5,379.8L803.8,379.8L847,336.7L928.1,336.7L928.1,334L849.4,334L886.5,297.1L1234.3,297.1L1234.3,304.4L1234.3,305.4L1234.3,306.6L1234.9,306.4L1235.9,306.1L1269.9,297L1658,297L1655.6,294.6L1278.8,294.6L1313.4,285.4L1313.4,285.3L1313.4,283L1313.4,282.2L1643,282.2L1642.9,282.1L1643.1,282.1L1695.4,333.9L1583.2,333.9L1583.2,336.3L1697.8,336.3L1721.9,360.2L1741,379.4L1744.2,379.4L1646.4,282.2L1730.8,282.2C1731.2,282.3,1731.7,282.4,1732.2,282.4L1753.3,282.4C1753.4,282.4,1753.4,282.4,1753.5,282.4C1753.9,282.4,1754.2,282.3,1754.5,282.3L1771.9,282.3C1772,282.3,1772.1,282.4,1772.2,282.4C1772.3,282.4,1772.4,282.4,1772.5,282.3L1775.6,282.3C1776,282.4,1776.5,282.5,1776.9,282.5L1798,282.5C1798.1,282.5,1798.1,282.5,1798.2,282.5C1798.6,282.5,1798.9,282.4,1799.2,282.4L1914.2,282.4L1916.6,282.4L1926.7,282.4L1929.1,282.4L1941.9,282.4L1944.3,282.4L1954.4,282.4L1956.8,282.4L2450,282.4L2452.4,282.4L2462.5,282.4L2464.9,282.4L2477.7,282.4L2480.1,282.4L2490.2,282.4L2492.6,282.4L2600,282.4L2600,280L2492.6,280ZM1611.8,164.6L1553.3,164.6L1553.3,157.8C1553.5,157.9,1553.8,158.1,1554,158.3C1554.6,158.9,1555.1,160,1555.2,160.4C1555.4,160.9,1555.8,161.2,1556.3,161.2L1566.8,161.2C1567.4,161.2,1567.9,160.7,1568,160.1C1568.1,158,1569.8,156.4,1571.9,156.4L1593.3,156.4C1595.4,156.4,1597.1,158,1597.2,160.1C1597.2,160.7,1597.8,161.2,1598.4,161.2L1608.9,161.2C1609.4,161.2,1609.9,160.9,1610,160.4C1610,160.4,1610.4,159,1611.3,158.2C1611.5,158,1611.7,157.9,1611.9,157.7L1611.9,164.6ZM1322,196.5L1324.2,206.4L1319.9,206.4L1322,196.5ZM1340.3,133.9L1340.3,148.3L1335.2,148.3L1335.2,132C1335.7,131.4,1336.5,131,1337.4,131C1339,131,1340.3,132.3,1340.3,133.9ZM1338,128.6C1337.8,128.6,1337.6,128.6,1337.4,128.6C1336.4,128.6,1335.5,128.9,1334.7,129.4C1333.9,127.6,1332.2,126.3,1330.2,125.9L1330.2,92L1338,128.6ZM1332.9,131.9L1332.9,148.3L1325.4,148.3L1325.4,131.9C1325.4,129.8,1327.1,128.1,1329.2,128.1C1331.2,128.1,1332.9,129.8,1332.9,131.9ZM1324.3,84.5L1325.2,79.1L1321.3,75.3L1326.7,74.5L1329.1,69.6L1331.5,74.5L1336.9,75.3L1333,79.1L1333.9,84.5L1329,81.9L1324.3,84.5ZM1327.9,92L1327.9,125.9C1326,126.3,1324.4,127.6,1323.6,129.3C1322.8,128.9,1321.9,128.6,1321,128.6C1320.7,128.6,1320.5,128.6,1320.2,128.7L1327.9,92ZM1318,133.9C1318,132.3,1319.3,131,1320.9,131C1321.7,131,1322.4,131.3,1323,131.8C1323,131.8,1323,131.8,1323,131.9L1323,148.3L1318,148.3L1318,133.9ZM1318,152.9L1318,150.6L1340.3,150.6L1340.3,176L1318,176L1318,152.9ZM664.7,253.7L676.6,253.7L666.5,261.5L662.2,258.3C662.9,256.7,663.8,255.2,664.7,253.7ZM661,260.4L664.4,263L657.4,268.4C658.5,265.6,659.7,263,661,260.4ZM655.4,273.6C655.5,273.3,655.6,272.9,655.8,272.6L666.4,264.4L678.5,273.5L655.4,273.5ZM679.5,271.3L668.4,262.9L679.5,254.4L679.5,271.3ZM679.5,251.3L666.1,251.3C666.7,250.3,667.4,249.3,668,248.3C668.4,247.7,668.8,247.1,669.2,246.5C669.3,246.4,669.3,246.3,669.4,246.3C672.5,241.8,675.9,237.6,679.5,233.7L679.5,251.3ZM682.6,270.5L682.6,254.2L688,258.3C687.9,258.4,687.9,258.6,687.8,258.7C685.9,262.5,684.2,266.4,682.6,270.5C682.6,270.4,682.6,270.5,682.6,270.5ZM693.9,262.9L685.7,269.2C687,266,688.4,262.9,689.9,259.9L693.9,262.9ZM691,257.7C691.7,256.3,692.5,255,693.2,253.7L705.8,253.7L695.8,261.4L691,257.7ZM690.5,253.7C690,254.5,689.6,255.4,689.1,256.2L685.8,253.7L689.7,253.7C689.7,253.7,689.7,253.7,689.7,253.7L690.5,253.7C690.6,253.7,690.6,253.7,690.5,253.7ZM684,273.6C684,273.5,684.1,273.5,684.1,273.4L695.9,264.4L707.9,273.6L684,273.6ZM708.1,270.8L697.7,262.9L708.1,255L708.1,270.8ZM708.1,251.3L694.7,251.3C698.6,245,703.1,239,708.1,233.6L708.1,251.3ZM709.7,228.5C702.9,235.3,696.9,243,691.9,251.3L682.6,251.3L682.6,230.2C682.6,230.2,682.6,230.2,682.6,230.2L682.6,230.3C690.4,222.4,699.3,215.7,709,210.2L709,228.3C709.2,228.1,709.4,227.9,709.7,227.7L709.7,228.5ZM712.1,254.9L722.6,262.9L712.1,270.9L712.1,254.9ZM714.5,253.7L734.6,253.7L724.6,261.4L714.5,253.7ZM712.5,273.6L724.5,264.4L736.5,273.6L712.5,273.6ZM738.5,272.1L726.4,262.8L738.4,253.6L738.5,253.6L738.5,272.1ZM738.5,251.3L712.1,251.3L712.1,229.5C719.9,221.7,728.8,215.1,738.5,209.8L738.5,251.3ZM738.6,207C729,212.2,720.1,218.6,712.2,226C712.2,226,712.1,226.1,712.1,226.1L712.1,208.4C712.1,208.4,712.2,208.4,712.2,208.3L712.2,208.4C720.5,204.1,729.3,200.7,738.6,198.3L738.6,207ZM741,254.5L751.9,262.9L741,271.3L741,254.5ZM743.8,253.7L763.9,253.7L753.9,261.4L743.8,253.7ZM741.8,273.6L753.8,264.4L765.8,273.6L741.8,273.6ZM767.4,271.8L755.8,262.9L767.4,254L767.4,271.8ZM767.4,251.3L741,251.3L741,208.5C749.3,204.2,758.2,200.8,767.4,198.4L767.4,251.3ZM767.4,196C758.3,198.3,749.5,201.5,741.2,205.7L741.2,197.8C749.7,195.9,758.4,194.8,767.4,194.7L767.4,196ZM770.1,194.7C771,194.7,772,194.7,772.9,194.8C772,195,771,195.2,770.1,195.4L770.1,194.7ZM769.9,254.8L780.5,262.9L769.9,271L769.9,254.8ZM772.3,253.7L792.4,253.7L782.4,261.4L772.3,253.7ZM770.3,273.6L782.3,264.4L794.3,273.6L770.3,273.6ZM795.7,271.6L784.3,262.9L795.7,254.2L795.7,271.6ZM795.7,251.3L769.9,251.3L769.9,197.8C774.3,196.8,778.7,196,783.2,195.5C787.4,196,791.6,196.7,795.7,197.7L795.7,251.3ZM796.4,195.4C795.3,195.2,794.3,194.9,793.2,194.7C794.3,194.7,795.3,194.6,796.4,194.6L796.4,195.4ZM1167.2,235.1L1167.2,241.2L1068.7,241.2C1068.7,240.8,1068.7,240.5,1068.7,240.1C1068.7,238.4,1068.6,236.7,1068.3,235.1L1163,235.1L1167.2,235.1ZM1163,243.6L1163,273.9L1157.1,273.9L1157.1,243.6L1163,243.6ZM1140,256.6L1140,273.9L1133.7,273.9L1133.7,243.6L1154.7,243.6L1154.7,273.9L1148.1,273.9L1148.1,256.6L1140,256.6ZM1145.8,258.9L1145.8,273.8L1142.4,273.8L1142.4,258.9L1145.8,258.9ZM1113.7,256.6L1113.7,273.9L1103.3,273.9L1103.3,243.6L1131.3,243.6L1131.3,273.9L1121.8,273.9L1121.8,256.6L1113.7,256.6ZM1119.5,258.9L1119.5,273.8L1116.1,273.8L1116.1,258.9L1119.5,258.9ZM1073.7,256.6L1073.7,263.1C1072.6,260,1071.5,256.4,1070.5,252.6C1070.5,252.5,1070.5,252.3,1070.4,252.2C1069.7,249.7,1069.1,247.1,1068.7,244.4C1068.7,244.2,1068.8,243.9,1068.8,243.7L1101.1,243.7L1101.1,274L1081.9,274L1081.9,256.7L1073.7,256.7ZM1079.4,258.9L1079.4,273.8L1077.8,273.8C1077.8,273.8,1077.8,273.7,1077.8,273.7C1077.8,273.6,1077.1,272.1,1076.1,269.4L1076.1,258.9L1079.4,258.9ZM1045.3,235.3C1045,240.9,1043.8,246.9,1042.3,252.5L1041.7,254.2L1023.3,254.2L1017.2,237L1032.3,226L1045.3,235.3ZM1033.6,223.9L1033.6,214.1L1041,210.1C1044.8,223.5,1045.3,230.1,1045.3,232.5L1033.6,223.9ZM1047.1,241.2L1065.7,241.2C1066.2,244.6,1066.9,248.1,1067.7,251.4L1045,251.4C1045.9,248.1,1046.6,244.6,1047.1,241.2ZM1044.4,253.8L1068.3,253.8C1069.3,257.7,1070.5,261.3,1071.6,264.5L1041.1,264.5C1042.2,261.3,1043.4,257.7,1044.4,253.8ZM1072.5,266.8C1073.5,269.5,1074.4,271.7,1074.9,273L1037.8,273C1038.4,271.6,1039.2,269.5,1040.2,266.8L1072.5,266.8ZM1163.2,232.8L1158.2,232.8C1152.6,227.7,1145.9,223.4,1138.6,220.1C1147.8,223.2,1156.2,227.5,1163.2,232.8ZM1154.6,232.8L1147.5,232.8C1141.4,226.5,1134,221.5,1125.8,217.9C1136.7,221,1146.6,226.1,1154.6,232.8ZM1144.1,232.8L1134.4,232.8C1128.6,225.4,1121.2,219.7,1113,216.1C1124.9,219,1135.7,224.7,1144.1,232.8ZM1131.3,232.8L1119.4,232.8C1114.6,224.5,1108.4,218.5,1101.4,215C1113,217.2,1123.4,223.4,1131.3,232.8ZM1116.7,232.8L1104.6,232.8C1101.2,224,1096.8,217.7,1091.9,214.4C1101.4,215.8,1110.2,222.3,1116.7,232.8ZM1083.6,214C1090.6,214,1097.4,221,1102.1,232.8L1088,232.8C1086.6,223.4,1084.8,217.2,1082.6,214L1083.6,214ZM1073.3,214L1079,214C1080.3,214,1083.2,218,1085.5,232.8L1067.9,232.8C1067.8,232.1,1067.6,231.4,1067.4,230.8C1067.4,230.1,1067.5,229.3,1067.6,228.4C1069.7,217.1,1072.2,214,1073.3,214ZM1075.7,190C1075.7,190,1075.6,190.1,1075.6,190.1C1064.9,215.5,1064.9,231.7,1065,233.5C1065,235.2,1065.2,237,1065.4,238.8L1055.2,238.8C1055.9,236.2,1057.3,230.6,1058.3,223.1C1059.3,216.1,1060,207.4,1059.6,197.9C1059.7,195.4,1057.1,181.4,1053.3,171.2C1053.2,170.8,1053,170.5,1052.9,170.1C1052.7,169.6,1052.4,168.7,1052,167.5C1050.7,163.9,1048.3,157.1,1047.6,152.3C1046.2,145.1,1046.9,137.5,1048.5,136.9C1048.7,136.8,1051,136.3,1057.4,147.4C1058.8,150.2,1061.9,152.8,1065,155C1064.9,155.5,1064.9,156,1064.9,156.6C1064.9,162,1068.6,166.6,1073.6,168C1074.6,168.3,1075.6,168.4,1076.7,168.4C1078.1,168.4,1079.5,168.1,1080.8,167.7C1079,179.8,1076.1,188.9,1075.7,190ZM1053.5,137.4C1054.3,137.1,1054.9,136.7,1055.4,136.4C1055.6,136.3,1055.8,136.1,1055.9,136.1C1056,136.1,1056.5,136.1,1057.2,136.6C1057.9,137.1,1058.3,137.6,1058.5,138.1C1058.6,138.4,1058.5,138.7,1058.5,138.7L1056.1,140.8C1055.2,139.4,1054.4,138.3,1053.5,137.4ZM1076.8,165.8C1071.6,165.8,1067.4,161.6,1067.4,156.4C1067.4,151.2,1071.6,147,1076.8,147C1082,147,1086.2,151.2,1086.2,156.4C1086.2,161.6,1082,165.8,1076.8,165.8ZM1083.4,146.7C1082.6,146.1,1081.7,145.7,1080.8,145.4C1080.8,145.3,1080.8,145.2,1080.8,145.2C1081,143,1080.7,141.3,1079.7,140C1078.5,138.4,1076.9,137.8,1075.6,137.3C1075.4,137.2,1075.1,137.1,1074.9,137C1073.9,136.6,1073,136,1071.9,135.4C1071.5,135.1,1071,134.8,1070.7,134.6C1070.7,134.1,1071,132.6,1071.8,131.1C1072.3,130.3,1073.4,129,1074.6,129.3C1075.3,129.4,1076,129.7,1076.8,130C1078.3,130.6,1080,131.2,1082.3,131C1082.7,131,1083.1,131,1083.5,131C1083.9,131,1084.4,131,1084.9,130.9C1085.3,132.7,1085.4,134.6,1085.4,136.5C1085.3,139.9,1084.6,143.4,1083.4,146.7ZM1070.8,111.2C1072.2,112,1073.5,112.9,1074.8,114C1074,113.7,1073.1,113.5,1072,113.6C1070.8,113.7,1069.8,114.2,1069,114.6C1068.7,114.7,1068.3,114.9,1068.1,115C1068,114.9,1067.8,114.7,1067.7,114.5C1068.2,113.9,1068.9,113.2,1069.6,112.5C1070,112,1070.4,111.6,1070.8,111.2ZM1059.5,107.4C1059.3,107.9,1059.1,108.4,1059,108.5C1058.9,108.7,1058.7,108.7,1058.7,108.7C1058.6,108.7,1058.4,108.3,1058.2,107.6C1058.2,107.5,1058.2,107.4,1058.1,107.2C1058.6,107.3,1059,107.3,1059.5,107.4ZM1055.5,106.8C1055.6,107.1,1055.8,107.6,1055.8,108C1056,109.4,1056.7,110.5,1057.6,110.9C1057.9,111,1058.2,111.1,1058.5,111.1C1059.3,111.1,1060.2,110.7,1060.7,110C1061.2,109.4,1061.6,108.3,1061.8,107.4C1064.3,107.9,1066.6,108.7,1068.9,109.7C1068.6,110,1068.2,110.4,1067.8,110.8C1066.9,111.7,1065.9,112.6,1065.3,113.4C1065.2,113.5,1065.1,113.7,1065,113.8L1064.7,114.3L1064.9,114.9C1065,115.1,1065.1,115.3,1065.4,115.7C1066,116.5,1066.5,117.1,1067.3,117.3C1067.5,117.3,1067.6,117.4,1067.8,117.4C1068.5,117.4,1069.1,117.1,1069.9,116.7C1070.6,116.4,1071.3,116,1072,116C1072.8,115.9,1073.5,116.2,1074.2,116.4C1074.8,116.6,1075.4,116.8,1076,116.8C1076.4,116.8,1077,116.7,1077.5,116C1080.9,119.4,1083.5,123.7,1084.9,128.4C1084.3,128.5,1083.7,128.6,1083.2,128.6C1082.8,128.6,1082.3,128.6,1081.9,128.6C1080.1,128.7,1078.8,128.3,1077.4,127.7C1076.6,127.4,1075.8,127.1,1074.9,126.9C1072.5,126.4,1070.5,128.2,1069.6,129.9C1069,131.1,1067.5,134.4,1068.6,135.8C1069.1,136.5,1069.9,137,1070.6,137.4C1071.7,138.1,1072.7,138.7,1073.9,139.1C1074.1,139.2,1074.4,139.3,1074.7,139.4C1075.8,139.8,1077,140.3,1077.8,141.3C1078.4,142.1,1078.6,143.3,1078.5,144.8C1078,144.7,1077.4,144.7,1076.8,144.7C1071.7,144.7,1067.4,147.9,1065.7,152.5C1063.1,150.6,1060.7,148.5,1059.5,146.3C1058.8,145,1058.1,143.9,1057.4,142.8L1060.1,140.5C1060.9,139.8,1061.2,138.5,1060.8,137.3C1060.4,136,1059.4,135.1,1058.6,134.6C1057.3,133.7,1056,133.5,1055,133.9C1054.7,134,1054.3,134.3,1054,134.5C1053.5,134.9,1052.9,135.3,1052.3,135.3C1051.4,135.4,1050.5,134.7,1049.9,133.7C1049.7,133.3,1049.5,132.9,1049.3,132.4C1049.1,132,1049,131.5,1048.8,131.1C1047.8,129.2,1046.2,129,1044.3,128.8C1044,128.8,1043.6,128.7,1043.3,128.7C1040.9,128.3,1038.6,127.2,1036.9,125.7C1036.6,125.4,1036.3,125.1,1036.2,124.7C1036,124.2,1036.1,123.7,1036.5,123.2C1037.3,122.1,1039.5,121.6,1040.5,121.6C1040.8,121.6,1041.2,121.6,1041.5,121.7C1042.2,121.8,1042.8,121.9,1043.4,121.7C1044,121.5,1044.6,121.1,1045.1,120.7C1045.3,120.6,1045.5,120.4,1045.7,120.3C1046.5,119.7,1047.5,119.6,1048.4,119.6C1049.1,119.5,1049.8,119.5,1050.4,119.1C1051,118.7,1051.3,118,1051.4,116.9C1051.6,115.3,1050.9,113.7,1050.3,112.3C1049.8,111,1049.2,109.5,1048.6,107.9C1050.9,107.2,1053.2,106.9,1055.5,106.8ZM1035.5,115.7C1038.6,112.6,1042.5,110.2,1046.6,108.7C1047.1,110.3,1047.7,111.7,1048.2,113C1048.7,114.1,1049.2,115.5,1049.1,116.5C1049.1,116.7,1049,116.9,1049,117C1048.8,117,1048.5,117.1,1048.2,117.1C1047.1,117.2,1045.7,117.3,1044.3,118.3C1044.1,118.5,1043.8,118.6,1043.6,118.8C1043.3,119,1042.9,119.3,1042.7,119.4C1042.5,119.4,1042.1,119.4,1041.7,119.3C1041.3,119.3,1041,119.2,1040.6,119.2C1039.3,119.2,1036.1,119.7,1034.6,121.7C1033.8,122.7,1033.6,124.1,1033.9,125.3C1034.2,126.2,1034.8,126.9,1035.3,127.3C1037.3,129.2,1040.1,130.5,1042.9,130.9C1043.3,131,1043.7,131,1044,131C1045.9,131.2,1046.3,131.4,1046.7,132.1C1046.8,132.4,1047,132.7,1047.1,133.1C1047.3,133.5,1047.5,134,1047.7,134.5C1047.7,134.5,1047.7,134.5,1047.6,134.5C1043.9,135.9,1044.2,144.1,1044.7,149C1044.4,148.6,1044.2,148.2,1044.1,147.9C1044,147.5,1044.1,147,1044.1,146.4C1044.2,145.5,1044.3,144.3,1043.9,143.1C1043.4,141.4,1042.3,140.1,1041.3,139.2C1040.8,138.7,1040.3,138.1,1040,137.7C1039.8,137.3,1039.8,136.8,1039.8,135.9C1039.9,135,1039.9,133.8,1039.5,132.6C1039,131.2,1038,130.5,1037.3,130C1035.6,128.8,1034,127.4,1032.6,125.9C1031.9,125.2,1031.2,124.4,1031,123.6C1030.9,123.3,1030.9,123.2,1030.8,123C1030.7,122.5,1030.6,122.2,1030.4,121.8C1032,119.6,1033.6,117.6,1035.5,115.7ZM1025.8,137.1C1025.8,132.3,1026.9,127.8,1028.9,123.7C1028.9,123.8,1029,124,1029.1,124.2C1029.5,125.4,1030.3,126.5,1031.2,127.4C1032.7,129,1034.4,130.5,1036.2,131.8C1036.7,132.2,1037.3,132.6,1037.5,133.2C1037.8,134,1037.7,134.8,1037.7,135.6C1037.6,136.6,1037.6,137.6,1038.1,138.7C1038.5,139.5,1039.1,140.1,1039.7,140.8C1040.5,141.7,1041.4,142.5,1041.7,143.7C1041.9,144.5,1041.9,145.4,1041.8,146.2C1041.7,147,1041.7,147.7,1041.9,148.5C1042.1,149.5,1042.8,150.3,1043.4,151.1C1044,151.8,1044.5,152.6,1044.8,153.5C1045,154.2,1045.1,154.9,1045.2,155.6C1045.3,156.1,1045.3,156.7,1045.4,157.2C1045.6,158,1046.1,158.7,1046.7,159.1C1047.5,161.8,1048.4,164.4,1049.1,166.6C1041.2,164.8,1034.3,159.9,1030,152.8C1027.3,148.1,1025.8,142.7,1025.8,137.1ZM1037.1,190.2C1037.1,190.1,1037,190.1,1037,190C1036.4,188.6,1032.2,174.7,1030.6,157.6C1035.5,163.7,1042.4,167.8,1050.1,169.2C1050.3,169.8,1050.5,170.4,1050.6,170.7C1050.7,171.1,1050.9,171.5,1051,172C1055,183,1057.2,196.5,1057.1,197.7L1057.1,197.8L1057.1,197.9C1057.9,218.3,1053.6,235,1052.5,238.8L1047.2,238.8C1047.4,237,1047.5,235.2,1047.6,233.5C1047.8,231.6,1047.8,220.5,1037.1,190.2ZM1032.4,206.2C1035.1,206.2,1037.7,206.5,1040.2,207.1C1040.3,207.3,1040.3,207.5,1040.4,207.7L1032.5,212L1023.8,207.3C1026.5,206.6,1029.4,206.2,1032.4,206.2ZM1020.6,208.4L1031.2,214.1L1031.2,223.9L1015.9,235.1L1008.1,231.3L1005.6,219.5C1009.6,214.6,1014.8,210.8,1020.6,208.4ZM1003.7,222.1L1005.8,231.7L998.5,239.6C998.6,233.2,1000.5,227.2,1003.7,222.1ZM1004.8,260C1001.4,254.9,999.3,249,998.6,242.9L1007.3,233.5L1014.9,237.2L1021.1,254.9L1016.3,260.6L1004.8,260ZM1006.8,262.5L1015.6,263L1018.2,271C1013.9,269,1010,266,1006.8,262.5ZM1018,262.5L1022.9,256.6L1041.1,256.6C1038.2,266.2,1034.9,273.7,1034.9,273.8C1034.9,273.9,1034.8,274,1034.8,274C1030.1,274.3,1025.6,273.8,1021.1,272.4L1018,262.5ZM885,232.2L885,230.2L885.8,230.2L885.8,232.2C891.3,238,896.2,244.4,900.5,251.3L885.8,251.3L885,251.3L885,232.2ZM798.8,255.1L808.9,262.8L798.8,270.5L798.8,255.1ZM800.8,253.7L820.9,253.7L810.9,261.4L800.8,253.7ZM798.8,273.6L798.8,273.6L810.8,264.4L822.8,273.6L798.8,273.6ZM824,271.5L812.7,262.9L824,254.3L824,271.5ZM824,251.3L798.7,251.3L798.7,198.4C807.5,200.6,816,203.9,824,208L824,251.3ZM824,197.7L824,205.3C816,201.3,807.5,198.2,798.7,196L798.7,194.7C807.3,194.8,815.8,195.8,824,197.6L824,197.7ZM838.5,262.9L826.9,271.8L826.9,254L838.5,262.9ZM830.4,253.7L850.5,253.7L840.5,261.4L830.4,253.7ZM828.4,273.6L840.4,264.4L852.4,273.6L828.4,273.6ZM853,271L842.4,262.9L853,254.8L853,271ZM853,251.3L826.9,251.3L826.9,209.5C836.4,214.7,845.2,221.2,853,228.8L853,251.3ZM853,208.3L853,225.6C845,218.1,836.1,211.7,826.4,206.6L826.4,198.3L826.4,197.1L827.2,197.1L827.2,198.3C836.2,200.5,844.9,203.8,853,207.9L853,208.3ZM869,261.4L859,253.7L872.5,253.7C873.2,254.9,873.8,256,874.5,257.2L869,261.4ZM875.6,259.3C877.4,262.8,879,266.4,880.5,270.1L871,262.8L875.6,259.3ZM856.4,251.3L856.4,232.2C861.9,238,866.8,244.4,871,251.3L856.4,251.3ZM867,262.9L856.4,271L856.4,254.7L867,262.9ZM856.9,273.6L868.9,264.4L880.9,273.6L856.9,273.6ZM882.6,269.2C880.5,263.8,878,258.6,875.2,253.7L882.6,253.7L882.6,269.2ZM883,230.2L882.6,230.2L882.6,251.3L874.5,251.3L873.8,251.3C868.6,242.7,862.4,234.8,855.4,227.8L855.4,209.5L855.4,207.8L856.2,207.8L856.2,209.5C866.4,215,875.7,222,883.8,230.2L883,230.2ZM885.8,273.6L885,273.6L885,253.7L885.8,253.7L901.9,253.7C905.6,260,908.7,266.6,911.2,273.6L885.8,273.6ZM688.6,314L680.3,314L674.3,314L674.3,308.3L678.2,308.3L679.7,284.1L676.6,284.1L676.6,282.1L686.7,282.1L686.7,284.1L683.4,284.1L684.9,308.3L688.6,308.3L688.6,314ZM698.8,314L691,314L691,305.9L687.2,305.9L686,286.4L689.1,286.4L689.1,282.1L701.1,282.1L701.1,286.4L704,286.4L702.8,305.9L698.8,305.9L698.8,314ZM716.2,314L701.1,314L701.1,308.3L705,308.3L706.5,284.1L703.4,284.1L703.4,282.1L704.2,282.1L714.3,282.1L714.3,284.1L711,284.1L712.5,308.3L716.2,308.3L716.2,314ZM845,314L822.4,314L816.4,314L718.6,314L718.6,305.9L714.8,305.9L713.6,286.4L716.7,286.4L716.7,282.1L847.3,282.1L847.3,286.4L850.2,286.4L849,305.9L845,305.9L845,314ZM861.7,314L858.4,314L847.4,314L847.4,308.3L851.3,308.3L852.8,284.1L849.7,284.1L849.7,282.1L850.5,282.1L859.8,282.1L859.8,284.1L856.5,284.1L858,308.3L861.7,308.3L861.7,314ZM885.4,294.7L885,294.7L882.6,297.1L882.9,297.1L865.1,314.8L865.1,314.6L865.1,314L864.3,314L864,314L864,305.9L860.2,305.9L859,286.4L862.1,286.4L862.1,282.1L862.9,282.1L875.7,282.1L875.7,286.4L878.6,286.4L877.6,302.1L880.1,299.6L881.1,284L878,284L878,282L888.1,282L888.1,284L884.8,284L885.4,294.3L887.6,292.1L887.2,286.4L890.3,286.4L890.3,282.1L897.5,282.1L897.4,282.2L897.7,282.2L885.4,294.7ZM1234.1,294.7L888.7,294.7L901.2,282.2L1234.1,282.2L1234.1,294.7ZM1234.1,279.9L903.6,279.9L907,276.5L1234.1,276.5L1234.1,279.9ZM1307,188.2L1309.2,198.1L1304.9,198.1L1307,188.2ZM1281.7,197.9L1288.9,193.7C1288.8,195.3,1288.4,196.8,1287.7,198.1L1286.6,198.1L1286.6,197.9L1281.7,197.9ZM1288.8,191L1277,197.8L1271.5,197.8L1287.9,188.4C1288.3,189.3,1288.6,190.1,1288.8,191ZM1286.5,186.4L1267.3,197.5C1266.9,196.6,1266.6,195.7,1266.5,194.7L1284.6,184.3C1285.3,185,1286,185.7,1286.5,186.4ZM1277.7,170.5C1278.5,170.5,1279.2,171.2,1279.2,172C1279.2,172.8,1278.5,173.5,1277.7,173.5C1276.9,173.5,1276.2,172.8,1276.2,172C1276.2,171.2,1276.9,170.5,1277.7,170.5ZM1277.7,176C1278.1,176.7,1278.6,177.4,1279.1,178.2L1272.6,182.2C1275.1,179.7,1276.7,177.8,1277.7,176ZM1267.8,187.8L1280.6,180C1281.3,180.8,1282,181.6,1282.9,182.4L1266.4,191.9C1266.6,190.6,1267,189.2,1267.8,187.8ZM1255.2,169.6L1251.3,169.6L1245.1,124.3L1245.3,124.3L1255.2,169.6ZM1240.8,124.2L1242.6,124.2L1248.8,169.5L1240.8,169.5L1240.8,124.2ZM1237.1,121.4L1237.1,114.5C1238,114.9,1239.1,115.2,1240.1,115.2C1241,115.2,1241.9,115,1242.8,114.7L1242.8,121.4L1237.1,121.4ZM1237.3,104C1238.5,102.8,1239.5,101.8,1240.1,100.9C1240.7,101.8,1241.6,102.7,1242.7,103.8C1244.1,105.2,1245,106.4,1245,108C1245,110.7,1242.8,112.9,1240.1,112.9C1237.4,112.9,1235.2,110.7,1235.2,108C1235.3,106.6,1235.9,105.3,1237.3,104ZM1236.5,124.2L1238.4,124.2L1238.4,169.5L1230.3,169.5L1236.5,124.2ZM1214.2,154.8C1215.3,154.8,1216.2,155.7,1216.2,156.8C1216.2,157.9,1215.3,158.8,1214.2,158.8C1213.1,158.8,1212.2,157.9,1212.2,156.8C1212.2,155.7,1213.1,154.8,1214.2,154.8ZM1214.2,161.2C1214.2,161.2,1214.3,161.2,1214.2,161.2C1215.6,163.9,1218,166.7,1221.7,170.4L1221.3,170.7L1217.6,167.4L1214.1,170.5L1213.9,170.7L1213.7,170.5L1210.3,167.4L1207.4,169.9L1206.6,170.6L1206.4,170.4C1210.4,166.5,1212.9,163.9,1214.2,161.2ZM1225,174.2L1221.3,177.5L1217.6,174.2L1214.1,177.3L1213.9,177.5L1213.7,177.3L1210.3,174.2L1207.4,176.7L1206.6,177.4L1205.6,176.5L1203,174.2C1203.5,173.5,1204.1,172.8,1204.7,172.1L1206.6,173.8L1210.3,170.5L1214,173.8L1217.5,170.7L1217.7,170.5L1217.9,170.7L1221.3,173.8L1223.3,172C1224.1,172.8,1224.7,173.6,1225.3,174.5L1225,174.2ZM1224.2,169.6C1224.1,169.5,1224.1,169.5,1224,169.4L1234,124.3L1234.2,124.3L1228,169.6L1224.2,169.6ZM1226.7,172.4L1256.1,172.4L1256.1,191.3C1255.1,190.5,1253.9,190.1,1252.6,190.1C1250.9,190.1,1249.3,190.9,1248.3,192.1C1247.3,190.9,1245.7,190.1,1244,190.1C1242.2,190.1,1240.6,190.9,1239.6,192.2C1238.6,190.9,1237,190.1,1235.2,190.1C1233.4,190.1,1231.8,191,1230.8,192.3C1230.2,191.5,1229.3,190.9,1228.4,190.5C1229.2,189.1,1229.8,187.5,1230.2,185.9L1232,185.9L1232,177.7L1230.8,177.7L1229.7,177.7C1229,175.7,1228,174,1226.7,172.4ZM1255.9,195.7L1255.9,198.1L1249.4,198.1L1249.4,195.7C1249.4,193.9,1250.9,192.4,1252.6,192.4C1254.4,192.4,1255.9,193.9,1255.9,195.7ZM1247.1,194.8C1247.1,195.1,1247,195.4,1247,195.7L1247,198.1L1240.7,198.1L1240.7,195.7C1240.7,193.9,1242.2,192.4,1243.9,192.4C1245.5,192.4,1246.7,193.4,1247.1,194.8ZM1225.6,194L1225.6,194C1226.1,193.5,1226.5,193,1226.9,192.5C1228.4,192.8,1229.5,194.1,1229.5,195.7L1229.5,198.2L1225.5,198.2L1225.5,194ZM1216.4,241L1220.7,221L1225,241L1216.4,241ZM1228,228.9L1228,241L1227.5,241L1222.6,218L1228.1,218L1228.1,228.9ZM1228,215.6L1220.9,215.6L1220.9,214.5C1220.9,212.5,1222.5,211,1224.4,211C1226.4,211,1227.9,212.6,1227.9,214.5L1227.9,215.6ZM1234.1,241.2L1230.3,241.2L1230.3,228.9L1230.3,215.6L1230.3,214.5C1230.3,211.6,1228.3,209.3,1225.6,208.7L1225.6,200.5L1234.1,200.5L1234.1,241.2ZM1234.1,198.1L1234.1,198.1L1231.9,198.1L1231.9,195.6C1231.9,193.8,1233.4,192.3,1235.2,192.3C1236.9,192.3,1238.3,193.6,1238.4,195.2C1238.4,195.3,1238.4,195.4,1238.4,195.5L1238.4,197.9L1234.1,197.9ZM1241.7,302.6L1299.3,268.5C1299.9,276,1303.4,282.2,1308.2,284.4L1241.7,302.6ZM1311,274.2L1311,276.6L1311,283C1305.7,282.1,1301.6,275.1,1301.6,266.6L1301.6,264.5L1236.5,303L1236.5,276.6L1236.5,274.2L1236.5,200.5L1311,200.5L1311,274.2ZM1621.3,260.2C1624,260.2,1626.5,261.9,1627.5,264.5C1627.6,264.9,1627.9,265.1,1628.3,265.2C1628.7,265.3,1629.1,265.2,1629.4,264.9C1630.3,264.1,1631.4,263.7,1632.6,263.7C1635.3,263.7,1637.4,265.9,1637.4,268.5C1637.4,271.1,1635.4,273.2,1632.7,273.3C1632.7,273.3,1632.6,273.3,1632.6,273.3L1613.9,273.3L1613.9,266.7C1614,266.7,1614.1,266.6,1614.2,266.6C1614.5,266.4,1614.8,266.1,1614.8,265.7C1615.2,262.7,1618.1,260.2,1621.3,260.2ZM1599,238.3L1594.7,238.3L1594.7,225.7L1599,225.7L1599,238.3ZM1601.4,238.3L1601.4,225.7L1605.7,225.7L1605.7,230.7C1604.6,233,1603.6,235.6,1602.8,238.3L1601.4,238.3ZM1599,258.4L1594.7,258.4L1594.7,245.8L1599,245.8L1599,258.4ZM1601.4,258.4L1601.4,255.7C1601.8,256.7,1602.4,257.6,1603.1,258.4L1601.4,258.4ZM1602.7,251.1C1602.7,244.4,1607.7,227.2,1611.8,227.2C1615.9,227.2,1620.9,244.3,1620.9,251.1C1620.9,254.3,1617.4,259.3,1612.9,260.1L1612.9,248.7C1612.9,248.7,1612.9,248.7,1612.9,248.7L1617.9,244.7C1618.4,244.3,1618.5,243.5,1618.1,243C1617.7,242.5,1616.9,242.4,1616.4,242.8L1612.8,245.7L1612.8,241.2C1612.8,240.5,1612.3,240,1611.6,240C1610.9,240,1610.4,240.5,1610.4,241.2L1610.4,252.3L1607.4,250C1606.9,249.6,1606.1,249.7,1605.7,250.2C1605.3,250.7,1605.4,251.5,1605.9,251.9L1610.3,255.4C1610.3,255.4,1610.3,255.4,1610.3,255.4L1610.3,260.3C1606.2,259.5,1602.7,255.7,1602.7,251.1ZM1576.8,245.8L1587.7,245.8L1587.7,273.5L1585.2,273.5C1586.4,272.2,1587.1,270.5,1587.1,268.7C1587.1,264.7,1583.9,261.5,1579.9,261.5C1578.8,261.5,1577.8,261.8,1576.8,262.2L1576.8,245.8ZM1559,266.5C1559.5,266.5,1560,266.6,1560.5,266.8C1560.8,267,1561.2,266.9,1561.6,266.8C1561.9,266.6,1562.2,266.3,1562.2,265.9C1562.7,262.7,1565.5,260.2,1568.7,260.2C1571.4,260.2,1573.9,261.9,1574.9,264.5C1575,264.9,1575.3,265.1,1575.7,265.2C1576.1,265.3,1576.5,265.2,1576.8,264.9C1577.7,264.1,1578.8,263.7,1580,263.7C1582.7,263.7,1584.8,265.9,1584.8,268.5C1584.8,271.1,1582.8,273.2,1580.1,273.3C1580.1,273.3,1580,273.3,1580,273.3L1576.8,273.3L1559,273.3C1557.1,273.3,1555.5,271.7,1555.5,269.8C1555.5,268.1,1557.1,266.5,1559,266.5ZM1452.5,256.2L1459.5,256.2L1459.5,273.5L1452.5,273.5L1452.5,256.2ZM1443.2,256.2L1450.2,256.2L1450.2,273.5L1443.2,273.5L1443.2,256.2ZM1420.7,260.7L1419.1,260.7C1419.6,260.3,1420.2,259.9,1420.7,259.5L1420.7,260.7ZM1423.1,229.5L1425.1,229.5L1425.1,238.9L1423.1,238.9L1423.1,229.5ZM1423.1,256.5C1424.2,254.7,1424.9,252.8,1424.9,251.2L1425.1,251.2L1425.1,260.6L1423.1,260.6L1423.1,256.5ZM1420.7,229.5L1420.7,233C1420.2,231.7,1419.6,230.5,1419,229.5L1420.7,229.5ZM1481.1,139.4L1485.1,139.4L1485.1,145L1481.1,145L1481.1,139.4ZM1421.9,142.7L1440.1,142.7L1440.1,141.5C1440.2,135.9,1444.8,131.4,1450.4,131.4C1456,131.4,1460.6,135.9,1460.7,141.5L1460.7,142.7L1478.7,142.7L1478.7,145.1L1421.9,145.1L1421.9,142.7ZM1415.6,139.4L1419.6,139.4L1419.6,140.3L1419.6,145L1415.6,145L1415.6,139.4ZM1409.4,152.7L1409.4,148.2L1490.9,148.2L1490.9,152.7L1409.4,152.7ZM1413.4,227.2C1417.6,227.2,1422.5,244.3,1422.5,251.1C1422.5,254.3,1419,259.3,1414.5,260.1L1414.5,248.7C1414.5,248.7,1414.5,248.7,1414.5,248.7L1419.5,244.7C1420,244.3,1420.1,243.5,1419.7,243C1419.3,242.5,1418.5,242.4,1418,242.8L1414.4,245.7L1414.4,241.2C1414.4,240.5,1413.9,240,1413.2,240C1412.5,240,1412,240.5,1412,241.2L1412,252.3L1410.4,251C1409.6,247.8,1407.7,245.1,1405.2,243.1C1407.1,235.7,1410.5,227.2,1413.4,227.2ZM1410.1,259.6C1410.7,258,1411,256.3,1411,254.5C1411,254.4,1411,254.4,1411,254.3L1412.1,255.2C1412.1,255.2,1412.1,255.2,1412.1,255.2L1412.1,260.1C1411.5,260,1410.8,259.8,1410.1,259.6ZM1411.6,262.4L1411.6,273.4L1399.9,273.4L1399.9,268.5C1403.8,267.6,1407.1,265.1,1409.1,261.7C1409.9,262.1,1410.8,262.3,1411.6,262.4ZM1384.7,254.5C1384.7,247.9,1390.1,242.5,1396.7,242.5C1403.3,242.5,1408.7,247.9,1408.7,254.5C1408.7,260.7,1403.9,265.8,1397.9,266.4L1397.9,262.2L1397.9,260.7C1397.9,260.7,1397.9,260.7,1397.9,260.7L1401.9,256.7C1402.4,256.2,1402.4,255.5,1401.9,255C1401.4,254.5,1400.7,254.5,1400.2,255L1397.8,257.4L1397.8,254.3C1397.8,253.6,1397.3,253.1,1396.6,253.1C1395.9,253.1,1395.4,253.6,1395.4,254.3L1395.4,259.4L1391.9,255.9C1391.4,255.4,1390.7,255.4,1390.2,255.9C1389.7,256.4,1389.7,257.1,1390.2,257.6L1395.4,262.8L1395.4,266.5C1389.5,265.9,1384.7,260.7,1384.7,254.5ZM1313.3,233.2L1346.1,233.2L1346.1,272.9L1342.6,272.9L1340.3,272.9L1337.3,272.9L1337.3,251.9L1321,251.9L1321,272.9L1318,272.9L1315.7,272.9L1313.3,272.9L1313.3,233.2ZM1334.9,254.3L1334.9,273L1323.4,273L1323.4,254.3L1334.9,254.3ZM1639.8,279.8L1639.8,279.9L1313.4,279.9L1313.4,276.5L1637.5,276.5L1640.8,279.7L1639.8,279.7ZM1665.4,248.5L1681.5,248.5C1686.8,248.5,1691.4,251.5,1693.8,255.8L1653,255.8C1655.5,251.5,1660.1,248.5,1665.4,248.5ZM1657,277.8C1657,278.7,1656.3,279.4,1655.4,279.4C1654.5,279.4,1653.8,278.7,1653.8,277.8L1653.8,273.4C1653.8,272.5,1654.5,271.8,1655.4,271.8C1656.3,271.8,1657,272.5,1657,273.4L1657,277.8ZM1658.8,279.8C1659.1,279.2,1659.4,278.5,1659.4,277.8L1659.4,275.4L1664.9,275.4L1664.9,277.8C1664.9,278.5,1665.1,279.2,1665.5,279.8L1658.8,279.8ZM1670.5,277.8C1670.5,278.7,1669.8,279.4,1668.9,279.4C1668,279.4,1667.3,278.7,1667.3,277.8L1667.3,273.4C1667.3,272.5,1668,271.8,1668.9,271.8C1669.8,271.8,1670.5,272.5,1670.5,273.4L1670.5,277.8ZM1668.9,269.4C1666.8,269.4,1665.1,271,1664.9,273L1659.3,273C1659.1,271,1657.4,269.4,1655.3,269.4C1653.8,269.4,1652.4,270.3,1651.8,271.6C1651.6,270.5,1651.4,269.4,1651.3,268.8C1651,264.6,1651.2,261.1,1652,258.2L1694,258.2C1698.4,258.2,1702.2,260.6,1704.4,264.1L1698.8,264.1C1698.1,264.1,1697.6,264.6,1697.6,265.3C1697.6,266,1698.1,266.5,1698.8,266.5L1705.2,266.5C1705.3,266.5,1705.3,266.5,1705.4,266.5C1705.8,267.7,1706,269,1706,270.4C1706,271.3,1705.9,272.2,1705.7,273.1L1672.7,273.1C1672.7,271,1671,269.4,1668.9,269.4ZM1672.4,279.8C1672.7,279.2,1673,278.5,1673,277.8L1673,275.4L1696.9,275.4L1696.9,277.8C1696.9,278.5,1697.1,279.2,1697.5,279.8L1672.4,279.8ZM1702.4,277.8C1702.4,278.7,1701.7,279.4,1700.8,279.4C1699.9,279.4,1699.2,278.7,1699.2,277.8L1699.2,275.4L1702.5,275.4L1702.5,277.8ZM1750.1,279.8L1731.2,279.8C1729.8,279.4,1728.7,278,1728.7,276.5C1728.7,274.6,1730.3,273,1732.2,273C1732.7,273,1733.2,273.1,1733.7,273.3C1734,273.5,1734.4,273.4,1734.8,273.3C1735.2,273.2,1735.4,272.8,1735.4,272.4C1735.9,269.2,1738.7,266.7,1741.9,266.7C1744.6,266.7,1747.1,268.4,1748.1,271C1748.2,271.4,1748.5,271.6,1748.9,271.7C1749.3,271.8,1749.7,271.7,1750,271.4C1750,271.4,1750.1,271.4,1750.1,271.3L1750.1,279.8ZM1751.3,246.2C1750.6,246.2,1750.1,246.7,1750.1,247.4L1750.1,258.5L1747.1,256.2C1746.6,255.8,1745.8,255.9,1745.4,256.4C1745,256.9,1745.1,257.7,1745.6,258.1L1750,261.6C1750,261.6,1750,261.6,1750,261.6L1750,266.5C1745.5,265.9,1742,262.1,1742,257.4C1742,250.7,1747,233.5,1751.1,233.5C1754.6,233.5,1758.7,245.6,1759.9,253.4C1758.6,255.6,1757.8,258.1,1757.8,260.8C1757.8,261.5,1757.9,262.1,1757.9,262.7C1756.5,264.5,1754.5,265.9,1752.2,266.3L1752.2,255C1752.2,255,1752.2,255,1752.2,255L1757.2,251C1757.7,250.6,1757.8,249.8,1757.4,249.3C1757,248.8,1756.2,248.7,1755.7,249.1L1752.1,252L1752.1,247.5C1752.4,246.8,1751.9,246.2,1751.3,246.2ZM1754.4,279.8L1752.5,279.8L1752.5,270.3C1752.7,270.3,1753,270.2,1753.2,270.2C1755.9,270.2,1758,272.4,1758,275C1758,277.3,1756.5,279.2,1754.4,279.8ZM1771.2,279.8L1758.7,279.8C1759.8,278.5,1760.4,276.9,1760.4,275.1C1760.4,271.8,1758.1,268.9,1755,268.1C1756.4,267.5,1757.7,266.6,1758.8,265.5C1760.6,270.8,1765.4,274.6,1771.2,275.1L1771.2,279.8ZM1772.4,259.5C1771.7,259.5,1771.2,260,1771.2,260.7L1771.2,265.8L1767.7,262.3C1767.2,261.8,1766.5,261.8,1766,262.3C1765.5,262.8,1765.5,263.5,1766,264L1771.2,269.2L1771.2,272.9C1765.1,272.3,1760.4,267.2,1760.4,261C1760.4,254.4,1765.8,249,1772.4,249C1779,249,1784.4,254.4,1784.4,261C1784.4,267.2,1779.6,272.3,1773.6,272.9L1773.6,268.7L1773.6,267.2C1773.6,267.2,1773.6,267.2,1773.6,267.2L1777.6,263.2C1778.1,262.7,1778.1,262,1777.6,261.5C1777.1,261,1776.4,261,1775.9,261.5L1773.5,263.9L1773.5,260.8C1773.5,260,1773,259.5,1772.4,259.5ZM1799.2,279.8L1776,279.8C1774.6,279.4,1773.5,278,1773.5,276.5C1773.5,276,1773.6,275.6,1773.8,275.2C1779,274.7,1783.3,271.4,1785.4,266.9C1785.8,266.8,1786.3,266.8,1786.7,266.8C1789.4,266.8,1791.9,268.5,1792.9,271.1C1793,271.5,1793.3,271.7,1793.7,271.8C1794.1,271.9,1794.5,271.8,1794.8,271.5C1795.7,270.7,1796.8,270.3,1798,270.3C1800.7,270.3,1802.8,272.5,1802.8,275.1C1802.8,277.3,1801.3,279.2,1799.2,279.8Z" fill="#d15454"/>
        <path class="st1" d="M1487.6,215.9L1487.6,220.4C1488.4,219.9,1489.2,219.4,1490,219C1490.6,218.7,1491.1,218.4,1491.7,218.1C1491.1,217.8,1490.6,217.5,1490,217.2C1489.1,216.8,1488.3,216.4,1487.6,215.9Z" fill="#d15454"/>
        <path class="st1" d="M1427.5,161.9L1416.3,161.9L1416.3,176L1427.5,176L1427.5,161.9ZM1420.7,173.7L1418.7,173.7L1418.7,164.3L1420.7,164.3L1420.7,173.7ZM1425.1,173.7L1423.1,173.7L1423.1,164.3L1425.1,164.3L1425.1,173.7Z" fill="#d15454"/>
        <path class="st1" d="M1427.5,183.6L1416.3,183.6L1416.3,197.7L1427.5,197.7L1427.5,183.6ZM1420.7,195.4L1418.7,195.4L1418.7,186L1420.7,186L1420.7,195.4ZM1425.1,195.4L1423.1,195.4L1423.1,186L1425.1,186L1425.1,195.4Z" fill="#d15454"/>
        <path class="st1" d="M1416.3,219.5L1427.5,219.5L1427.5,205.4L1416.3,205.4L1416.3,219.5ZM1423.1,207.8L1425.1,207.8L1425.1,217.2L1423.1,217.2L1423.1,207.8ZM1418.7,207.8L1420.7,207.8L1420.7,217.2L1418.7,217.2L1418.7,207.8Z" fill="#d15454"/>
        <path class="st1" d="M1484.3,161.9L1473.1,161.9L1473.1,176L1482.4,176C1483,175.4,1483.6,174.9,1484.3,174.4L1484.3,161.9ZM1477.5,173.7L1475.5,173.7L1475.5,164.3L1477.5,164.3L1477.5,173.7ZM1481.9,173.7L1479.9,173.7L1479.9,164.3L1481.9,164.3L1481.9,173.7Z" fill="#d15454"/>
        <path class="st1" d="M1475.4,186L1476,186C1476.3,185.2,1476.6,184.4,1476.9,183.6L1473,183.6L1473,197.7L1475.1,197.7C1474.9,196.4,1474.8,195,1474.8,193.6C1474.8,191.7,1475,190,1475.3,188.2L1475.3,186Z" fill="#d15454"/>
        <path class="st1" d="M1484.3,213.6C1483.4,212.9,1482.7,212.2,1481.9,211.5L1481.9,217.2L1479.9,217.2L1479.9,209.2C1479.3,208.4,1478.7,207.5,1478.2,206.6C1478,206.2,1477.8,205.8,1477.6,205.4L1473.2,205.4L1473.2,219.5L1484.4,219.5L1484.4,213.6ZM1477.5,217.2L1475.5,217.2L1475.5,207.8L1477.5,207.8L1477.5,217.2Z" fill="#d15454"/>
        <path class="st1" d="M1478.9,228.3C1479.2,227.9,1479.5,227.5,1479.9,227.1L1473.2,227.1L1473.2,241.2L1473.5,241.2C1473.8,238.7,1474.5,236.2,1475.6,233.9L1475.6,229.4L1477.6,229.4L1477.6,230.2C1477.9,229.6,1478.4,229,1478.9,228.3Z" fill="#d15454"/>
        <path class="st1" d="M1473.1,263L1480.9,263C1480.5,262.6,1480.1,262.2,1479.8,261.8C1479,260.9,1478.2,259.9,1477.5,258.9L1477.5,260.6L1475.5,260.6L1475.5,255.3C1474.6,253.3,1473.9,251.1,1473.6,248.8L1473.2,248.8L1473.2,263Z" fill="#d15454"/>
        <path class="st1" d="M1466.3,172.5L1461.6,172.5L1461.6,161.9L1440.9,161.9L1440.9,172.5L1436.5,172.5L1436.5,181.4L1466.4,181.4L1466.4,172.5ZM1455,164.2L1459.2,164.2L1459.2,172.5L1455,172.5L1455,164.2ZM1449.3,164.2L1452.7,164.2L1452.7,172.5L1449.3,172.5L1449.3,164.2ZM1443.2,164.2L1446.9,164.2L1446.9,172.5L1443.2,172.5L1443.2,164.2ZM1463.9,179L1438.8,179L1438.8,174.8L1440.8,174.8L1461.5,174.8L1463.9,174.8L1463.9,179Z" fill="#d15454"/>
        <path class="st1" d="M1466.3,194.9L1461.6,194.9L1461.6,184.3L1440.9,184.3L1440.9,194.9L1436.5,194.9L1436.5,203.8L1466.4,203.8L1466.4,194.9ZM1455,186.7L1459.2,186.7L1459.2,195L1455,195L1455,186.7ZM1449.3,186.7L1452.7,186.7L1452.7,195L1449.3,195L1449.3,186.7ZM1443.2,186.7L1446.9,186.7L1446.9,195L1443.2,195L1443.2,186.7ZM1463.9,201.5L1438.8,201.5L1438.8,197.3L1440.8,197.3L1461.5,197.3L1463.9,197.3L1463.9,201.5Z" fill="#d15454"/>
        <path class="st1" d="M1466.3,216.3L1461.6,216.3L1461.6,205.7L1440.9,205.7L1440.9,216.3L1436.5,216.3L1436.5,225.2L1466.4,225.2L1466.4,216.3ZM1455,208.1L1459.2,208.1L1459.2,216.4L1455,216.4L1455,208.1ZM1449.3,208.1L1452.7,208.1L1452.7,216.4L1449.3,216.4L1449.3,208.1ZM1443.2,208.1L1446.9,208.1L1446.9,216.4L1443.2,216.4L1443.2,208.1ZM1463.9,222.9L1438.8,222.9L1438.8,218.7L1440.8,218.7L1461.5,218.7L1463.9,218.7L1463.9,222.9Z" fill="#d15454"/>
        <path class="st1" d="M1440.9,227.6L1440.9,238.2L1436.5,238.2L1436.5,247.1L1466.4,247.1L1466.4,238.2L1461.7,238.2L1461.7,227.6L1440.9,227.6ZM1455,230L1459.2,230L1459.2,238.3L1455,238.3L1455,230ZM1449.3,230L1452.7,230L1452.7,238.3L1449.3,238.3L1449.3,230ZM1443.2,230L1446.9,230L1446.9,238.3L1443.2,238.3L1443.2,230ZM1463.9,240.6L1463.9,244.8L1438.8,244.8L1438.8,240.6L1440.8,240.6L1461.5,240.6L1463.9,240.6Z" fill="#d15454"/>
        <path class="st1" d="M1301.5,232.3L1291.8,222.6L1269.1,245.3L1260,236.2L1250.3,245.9L1269.2,264.8L1301.5,232.3ZM1259.8,239.5L1268.9,248.6L1291.6,225.9L1298,232.3L1268.9,261.4L1253.4,245.9L1259.8,239.5Z" fill="#d15454"/>
        <path class="st1" d="M1676.3,266.5L1682.7,266.5C1683.4,266.5,1683.9,266,1683.9,265.3C1683.9,264.6,1683.4,264.1,1682.7,264.1L1676.3,264.1C1675.6,264.1,1675.1,264.6,1675.1,265.3C1675.1,266,1675.7,266.5,1676.3,266.5Z" fill="#d15454"/>
    </g>
    <g xlink:href="#Symbol-2" transform="translate(547.8,356.52) translate(-393.9,-30.48)">
        <g xlink:href="#Symbol-1" transform="translate(181.85,31.71) translate(-161.85,-23.45)"/>
        <rect width="787.8" height="60.96" fill="none" stroke="none" transform="translate(393.9,30.48) translate(-393.9,-30.48)"/>
    </g>
    <g transform="translate(-612,0)" style="animation: a0_t 24s linear infinite;">
        <path class="st4" d="M590.8,270.3L493.2,270.3C492.4,270.3,491.8,269.7,491.8,268.9L491.8,235.7C491.8,231.2,495.5,227.5,500,227.5L558.8,227.5C573.4,227.5,586.1,235.9,592.2,248.1C592.3,248.2,592.3,248.3,592.4,248.4C594.2,252,595.4,255.8,595.9,259.9C595.9,260,595.9,260.2,596,260.3C596.2,261.8,596.3,263.3,596.3,264.8C596.2,267.9,593.8,270.3,590.8,270.3L590.8,270.3ZM494.6,267.5L590.9,267.5C592.3,267.5,593.5,266.3,593.5,264.9C593.5,264.8,593.5,264.6,593.5,264.5C593.4,264.5,593.2,264.5,593.1,264.5L587.8,264.5C586.2,264.5,584.9,263.2,584.9,261.6L584.9,260.5C584.9,258.9,586.2,257.6,587.8,257.6L592.7,257.6C592.1,255,591.3,252.6,590.2,250.3L517.8,250.3C517.8,250.3,517.8,250.3,517.8,250.3L494.6,250.3L494.6,267.5ZM587.8,260.4C587.7,260.4,587.7,260.5,587.7,260.6L587.7,261.7C587.7,261.8,587.8,261.8,587.8,261.8L593.1,261.8C593.2,261.8,593.2,261.7,593.2,261.7L593.2,260.7C593.2,260.7,593.2,260.6,593.2,260.6C593.2,260.5,593.1,260.5,593.1,260.5L587.8,260.4L587.8,260.4ZM565.9,247.5L588.7,247.5C586.2,243.2,582.8,239.5,578.8,236.7C578.8,236.7,578.7,236.7,578.7,236.7L557.5,236.7L565.9,247.5ZM556.5,247.5L562.4,247.5L554,236.7L549.4,236.7L556.5,247.5ZM518.6,247.5L553.2,247.5L546.1,236.7L512.1,236.7L518.6,247.5ZM494.6,247.5L515.3,247.5L508.8,236.7L494.6,236.7L494.6,247.5ZM554.7,233.9L574.3,233.9C569.6,231.6,564.4,230.2,558.8,230.2L500,230.2C497.6,230.2,495.6,231.7,494.9,233.9L509.6,233.9C509.6,233.9,509.6,233.9,509.6,233.9L554.7,233.9ZM572.8,264.5L567.5,264.5C565.9,264.5,564.6,263.2,564.6,261.6L564.6,260.5C564.6,258.9,565.9,257.6,567.5,257.6L572.8,257.6C574.4,257.6,575.7,258.9,575.7,260.5L575.7,261.6C575.7,263.2,574.4,264.5,572.8,264.5L572.8,264.5ZM567.5,260.4C567.4,260.4,567.4,260.5,567.4,260.6L567.4,261.7C567.4,261.8,567.5,261.8,567.5,261.8L572.8,261.8C572.9,261.8,572.9,261.7,572.9,261.7L572.9,260.6C572.9,260.5,572.8,260.4,572.8,260.4L567.5,260.4ZM567.5,260.4" fill="#d15454"/>
        <path class="st4" d="M386.1,270.3C383.1,270.3,380.7,267.9,380.7,264.9C380.7,263.4,380.8,261.9,381,260.4C381,260.3,381,260.1,381.1,260C381.6,255.9,382.8,252.1,384.6,248.5C384.6,248.4,384.7,248.3,384.8,248.2C391,236,403.6,227.6,418.2,227.6L477,227.6C481.5,227.6,485.2,231.3,485.2,235.8L485.2,269C485.2,269.8,484.6,270.4,483.8,270.4L386.1,270.4L386.1,270.3ZM482.3,250.3L459.1,250.3C459.1,250.3,459.1,250.3,459.1,250.3L386.7,250.3C385.6,252.6,384.8,255.1,384.2,257.6C384.2,257.6,383.6,264.5,383.4,264.5C383.4,264.6,383.4,264.8,383.4,264.9C383.4,266.3,384.6,267.5,386,267.5L482.3,267.5L482.3,250.3ZM405.1,236.7L398.2,236.7C398.2,236.7,398.1,236.7,398.1,236.7C394.1,239.6,390.7,243.2,388.2,247.5L411,247.5L405.1,236.7ZM413.2,236.7L408.6,236.7L414.5,247.5L420.4,247.5L413.2,236.7ZM450.5,236.7L416.5,236.7L423.7,247.5L458.3,247.5L450.5,236.7ZM482.3,236.7L453.7,236.7L461.5,247.5L482.2,247.5L482.2,236.7ZM467.3,233.9C467.3,233.9,467.3,233.9,467.3,233.9L482,233.9C481.3,231.8,479.3,230.2,476.9,230.2L418.1,230.2C412.5,230.2,407.3,231.5,402.6,233.9L422.2,233.9L467.3,233.9Z" fill="#d15454"/>
    </g>
    <g transform="translate(-20,0)" style="animation: a1_t 24s linear infinite;">
        <path class="st4" d="M1796.3,101.5L1796.3,101.5C1796.4,101.3,1796.4,101.2,1796.5,101.2C1797.9,98.1,1798.7,94.6,1798.7,90.9C1798.7,77.1,1787.5,65.9,1773.7,65.9C1759.9,65.9,1748.7,77.1,1748.7,90.9C1748.7,94.6,1749.5,98.1,1750.9,101.2C1750.9,101.3,1751,101.3,1751,101.4L1751,101.4C1751.5,102.5,1752.1,103.5,1752.7,104.5L1765.7,127.9L1765.7,134.2C1765.7,136.4,1767.5,138.1,1769.6,138.1L1777.4,138.1C1779.6,138.1,1781.3,136.3,1781.3,134.2L1781.3,128L1794.4,104.5C1795.3,103.6,1795.8,102.6,1796.3,101.5L1796.3,101.5ZM1792.4,103.2C1790,106.8,1786.6,109.7,1782.7,111.4L1788,92.2L1796.1,92.2C1795.9,95.1,1795.2,97.8,1794.1,100.3L1792.4,103.2ZM1779.5,126.3L1778.6,126.3L1781.8,114.6C1783.9,113.9,1785.9,112.9,1787.7,111.7L1779.5,126.3ZM1775,126.3L1775,115.9C1776.3,115.8,1777.6,115.7,1778.8,115.4L1775.8,126.3L1775,126.3ZM1771.6,126.3L1768.6,115.4C1769.8,115.7,1771.1,115.8,1772.4,115.9L1772.4,126.3L1771.6,126.3ZM1767.9,126.3L1759.7,111.6C1761.5,112.8,1763.5,113.8,1765.6,114.5L1768.8,126.2L1767.9,126.2ZM1753.4,100.3C1752.3,97.8,1751.6,95.1,1751.4,92.3L1759.5,92.3L1764.8,111.5C1760.8,109.8,1757.5,106.9,1755.1,103.3L1753.4,100.3ZM1785.2,92.2L1779.6,112.4C1778.1,112.8,1776.6,113.1,1775,113.2L1775,92.2L1785.2,92.2ZM1772.4,113.2C1770.8,113.1,1769.3,112.8,1767.8,112.4L1762.2,92.2L1772.4,92.2L1772.4,113.2ZM1773.7,68.6C1785.6,68.6,1795.3,77.9,1796,89.7L1751.3,89.7C1752.1,77.9,1761.8,68.6,1773.7,68.6L1773.7,68.6ZM1778.9,134.2C1778.9,134.9,1778.3,135.5,1777.6,135.5L1769.8,135.5C1769.1,135.5,1768.5,134.9,1768.5,134.2L1768.5,128.9L1770.6,128.9C1770.6,128.9,1770.6,128.9,1770.6,128.9C1770.6,128.9,1770.6,128.9,1770.6,128.9L1776.9,128.9C1776.9,128.9,1776.9,128.9,1776.9,128.9C1776.9,128.9,1776.9,128.9,1776.9,128.9L1779,128.9L1779,134.2ZM1778.9,134.2" fill="#d15454"/>
        <path class="st4" d="M1773.7,73.9C1775,73.9,1776.3,74,1777.5,74.3C1782.9,75.5,1787.4,79.4,1789.5,84.5C1789.7,85,1790.2,85.3,1790.7,85.3C1790.9,85.3,1791,85.3,1791.2,85.2C1791.9,84.9,1792.2,84.2,1791.9,83.5C1789.5,77.5,1784.3,73.1,1778.1,71.7C1776.7,71.4,1775.2,71.2,1773.7,71.2C1773,71.2,1772.4,71.8,1772.4,72.5C1772.4,73.2,1773,73.9,1773.7,73.9L1773.7,73.9ZM1773.7,73.9" fill="#d15454"/>
    </g>
    <path class="st4" d="M806.5,112.3L842.3,112.3C842.4,112.3,842.5,112.3,842.6,112.3C848.7,112,853.5,106.9,853.5,100.8C853.5,94.4,848.3,89.2,841.9,89.2C839.7,89.2,837.6,89.8,835.8,91C833.3,86.3,828.3,83.2,822.9,83.2C816.3,83.2,810.5,87.8,808.8,94.1C808.1,93.9,807.3,93.8,806.5,93.8C801.4,93.8,797.2,98,797.2,103.1C797.2,108.1,801.3,112.3,806.5,112.3ZM806.5,96.4C807.4,96.4,808.4,96.6,809.2,97C809.6,97.2,810,97.2,810.4,97C810.8,96.8,811,96.4,811.1,96C811.9,90.2,817,85.9,822.8,85.9C827.7,85.9,832.1,89,833.9,93.6C834.1,94,834.4,94.3,834.8,94.4C835.2,94.5,835.7,94.4,836,94.1C837.6,92.7,839.7,91.9,841.8,91.9C846.7,91.9,850.6,95.9,850.6,100.7C850.6,105.5,846.9,109.3,842.1,109.5C842,109.5,842,109.5,841.9,109.5L806.4,109.5C802.8,109.5,799.8,106.6,799.8,102.9C799.9,99.4,802.8,96.4,806.5,96.4Z" fill="#d15454" transform="translate(805.35,97.75) translate(-825.35,-97.75)" style="animation: a2_t 24s linear infinite;"/>
    <path class="st4" d="M1130.6,130.2C1130.7,130.2,1130.8,130.2,1130.9,130.2L1162.1,130.2C1166.7,130.2,1170.4,126.5,1170.4,121.9C1170.4,117.3,1166.7,113.6,1162.1,113.6C1161.5,113.6,1160.9,113.7,1160.2,113.8C1158.7,108.3,1153.6,104.4,1147.8,104.4C1143.1,104.4,1138.7,107,1136.5,111.1C1134.9,110.1,1133.1,109.6,1131.2,109.6C1125.5,109.6,1120.9,114.2,1120.9,119.9C1121,125.4,1125.2,129.9,1130.6,130.2ZM1131.2,112.4C1133,112.4,1134.7,113.1,1136.1,114.2C1136.4,114.5,1136.9,114.6,1137.3,114.5C1137.7,114.4,1138.1,114.1,1138.2,113.7C1139.7,109.8,1143.5,107.1,1147.7,107.1C1152.7,107.1,1157,110.8,1157.8,115.8C1157.9,116.2,1158.1,116.6,1158.5,116.8C1158.9,117,1159.3,117,1159.7,116.8C1160.4,116.5,1161.2,116.3,1162,116.3C1165.1,116.3,1167.6,118.8,1167.6,121.9C1167.6,125,1165.1,127.5,1162,127.5L1131,127.5C1130.9,127.5,1130.9,127.5,1130.8,127.5C1126.7,127.3,1123.5,124,1123.5,120C1123.7,115.8,1127.1,112.4,1131.2,112.4Z" fill="#d15454" transform="translate(1125.65,117.3) translate(-1145.65,-117.3)" style="animation: a3_t 24s linear infinite;"/>
    <path class="st4" d="M1121.31,134.3C1116.7,134.044,1113.12,130.207,1113.03,125.517C1113.03,120.656,1116.96,116.734,1121.82,116.734C1123.43,116.734,1124.97,117.161,1126.33,118.013C1128.21,114.517,1131.96,112.3,1135.97,112.3C1140.92,112.3,1145.27,115.626,1146.55,120.316C1147.14,120.23,1147.66,120.145,1148.16,120.145C1152.09,120.145,1155.24,123.3,1155.24,127.222C1155.24,131.145,1152.09,134.3,1148.16,134.3L1121.56,134.3C1121.48,134.3,1121.39,134.3,1121.31,134.3ZM1121.82,119.121C1118.32,119.121,1115.42,122.021,1115.25,125.602C1115.25,129.013,1117.98,131.827,1121.48,131.998C1121.56,131.998,1121.56,131.998,1121.65,131.998L1148.09,131.998C1150.73,131.998,1152.86,129.866,1152.86,127.222C1152.86,124.579,1150.73,122.447,1148.09,122.447C1147.4,122.447,1146.72,122.618,1146.12,122.874C1145.78,123.044,1145.43,123.044,1145.1,122.874C1144.76,122.703,1144.58,122.362,1144.5,122.021C1143.82,117.757,1140.15,114.602,1135.88,114.602C1132.31,114.602,1129.06,116.905,1127.78,120.23C1127.7,120.572,1127.37,120.827,1127.02,120.912C1126.68,120.998,1126.25,120.912,1126,120.656C1124.8,119.719,1123.35,119.121,1121.82,119.121Z" fill="#d15454" stroke="none" fill-rule="nonzero" stroke-width="1" stroke-opacity="1" stroke-miterlimit="4" stroke-linejoin="miter" stroke-linecap="butt" stroke-dasharray="none" stroke-dashoffset="0" transform="translate(592.45,125.3) scale(-1,1) translate(-1145.65,-117.3)" style="animation: a4_t 24s linear infinite;"/>
    <path class="st4" d="M774.3,134.5C774.3,134.5,774.3,134.5,774.3,134.5L782.7,134.3C783.5,134.3,784.1,133.6,784,132.9C784,132.1,783.3,131.5,782.6,131.6L774.3,131.8C773.5,131.8,772.9,132.5,773,133.2C772.9,133.9,773.5,134.5,774.3,134.5Z" fill="#d15454" transform="translate(758.5,133.045) translate(-778.5,-133.045)" style="animation: a5_t 24s linear infinite;"/>
    <path class="st4" d="M1886.6,138L1922.4,138C1922.5,138,1922.6,138,1922.7,138C1928.8,137.6,1933.6,132.6,1933.6,126.5C1933.6,120.1,1928.4,114.9,1922,114.9C1919.8,114.9,1917.7,115.5,1915.9,116.7C1913.4,112,1908.4,108.9,1903,108.9C1896.4,108.9,1890.6,113.5,1888.9,119.8C1888.2,119.6,1887.4,119.5,1886.6,119.5C1881.5,119.5,1877.3,123.7,1877.3,128.8C1877.3,133.8,1881.5,138,1886.6,138ZM1886.6,122.1C1887.5,122.1,1888.5,122.3,1889.3,122.7C1889.7,122.9,1890.1,122.9,1890.5,122.7C1890.9,122.5,1891.1,122.1,1891.2,121.7C1892,115.9,1897.1,111.6,1902.9,111.6C1907.8,111.6,1912.2,114.7,1914,119.3C1914.2,119.7,1914.5,120,1914.9,120.1C1915.3,120.2,1915.8,120.1,1916.1,119.8C1917.7,118.4,1919.8,117.6,1921.9,117.6C1926.8,117.6,1930.7,121.6,1930.7,126.4C1930.7,131.2,1927,135,1922.2,135.2C1922.1,135.2,1922.1,135.2,1922,135.2L1886.5,135.2C1882.9,135.2,1879.9,132.3,1879.9,128.6C1880.1,125.1,1883,122.1,1886.6,122.1Z" fill="#d15454" transform="translate(1866.29,117.4) translate(-1905.45,-123.45)" style="animation: a6_t 24s linear infinite;"/>
    <path class="st4" d="M2099,144.6C2099,140,2095.2,136.2,2090.6,136.2C2089.9,136.2,2089.2,136.3,2088.6,136.5C2087.1,130.8,2081.9,126.7,2075.9,126.7C2071,126.7,2066.5,129.5,2064.3,133.7C2062.7,132.7,2060.7,132.1,2058.8,132.1C2053.1,132.1,2048.4,136.8,2048.4,142.5C2048.4,148.1,2052.7,152.6,2058.2,152.9C2058.3,152.9,2058.4,152.9,2058.5,152.9L2090.7,152.9C2095.2,153,2099,149.3,2099,144.6ZM2096.5,144.6C2096.5,147.9,2093.8,150.5,2090.6,150.5L2058.6,150.5C2058.5,150.5,2058.5,150.5,2058.4,150.5C2054.1,150.3,2050.7,146.9,2050.7,142.6C2050.7,138.2,2054.3,134.6,2058.7,134.6C2060.6,134.6,2062.4,135.3,2063.9,136.5C2064.2,136.8,2064.6,136.9,2065,136.8C2065.4,136.7,2065.7,136.4,2065.9,136C2067.5,131.9,2071.5,129.1,2075.9,129.1C2081.2,129.1,2085.7,133,2086.5,138.2C2086.6,138.6,2086.8,138.9,2087.1,139.1C2087.4,139.3,2087.9,139.3,2088.2,139.1C2089,138.7,2089.8,138.6,2090.7,138.6C2093.9,138.7,2096.5,141.4,2096.5,144.6Z" fill="#d15454" transform="translate(2053.7,139.801) translate(-2073.7,-139.801)" style="animation: a7_t 24s linear infinite;"/>
    <path class="st4" d="M1710.4,160.1L1718.7,160.1C1719.5,160.1,1720.1,159.5,1720.1,158.7C1720.1,157.9,1719.5,157.3,1718.7,157.3L1710.4,157.3C1709.6,157.3,1709,157.9,1709,158.7C1709,159.5,1709.7,160.1,1710.4,160.1Z" fill="#d15454" transform="translate(1694.55,158.7) translate(-1714.55,-158.7)" style="animation: a8_t 24s linear infinite;"/>
    <path class="st4" d="M1673.8,141.8L1691.3,141.8C1692.1,141.8,1692.7,141.2,1692.7,140.4C1692.7,139.6,1692.1,139,1691.3,139L1673.8,139C1673,139,1672.4,139.6,1672.4,140.4C1672.4,141.2,1673.1,141.8,1673.8,141.8Z" fill="#d15454" transform="translate(1662.55,140.4) translate(-1682.55,-140.4)" style="animation: a9_t 24s linear infinite;"/>
    <path class="st4" d="M2170.8,108.8L2188.3,108.8C2189.1,108.8,2189.7,108.2,2189.7,107.4C2189.7,106.6,2189.1,106,2188.3,106L2170.8,106C2170,106,2169.4,106.6,2169.4,107.4C2169.5,108.2,2170.1,108.8,2170.8,108.8Z" fill="#d15454" transform="translate(2159.55,107.4) translate(-2179.55,-107.4)" style="animation: a10_t 24s linear infinite;"/>
    <path class="st4" d="M841.1,144.8L820.9,144.8C820.1,144.8,819.5,145.4,819.5,146.2C819.5,147,820.1,147.6,820.9,147.6L841.1,147.6C841.9,147.6,842.5,147,842.5,146.2C842.5,145.4,841.9,144.8,841.1,144.8Z" fill="#d15454" transform="translate(811,146.2) translate(-831,-146.2)" style="animation: a11_t 24s linear infinite;"/>
    <path class="st4" d="M1197.2,89.3L1217.4,89.3C1218.2,89.3,1218.8,88.7,1218.8,87.9C1218.8,87.1,1218.2,86.5,1217.4,86.5L1197.2,86.5C1196.4,86.5,1195.8,87.1,1195.8,87.9C1195.8,88.7,1196.4,89.3,1197.2,89.3Z" fill="#d15454" transform="translate(1187.3,87.9) translate(-1207.3,-87.9)" style="animation: a12_t 24s linear infinite;"/>
    <path class="st1" d="M585.6,343.2C586.4,343.2,587.1,342.5,587.1,341.7C587.1,340.9,586.4,340.2,585.6,340.2L563.5,340.2C562.7,340.2,562,340.9,562,341.7C562,342.5,562.7,343.2,563.5,343.2L585.6,343.2Z" fill="#d15454" transform="translate(788.45,343.5) translate(-574.55,-341.7)" style="animation: a13_t 24s linear infinite;"/>
    <path class="st1" d="M389.6,341.6C390.4,341.6,391.1,340.9,391.1,340.1C391.1,339.3,390.4,338.6,389.6,338.6L367.5,338.6C366.7,338.6,366,339.3,366,340.1C366,340.9,366.7,341.6,367.5,341.6L389.6,341.6Z" fill="#d15454" transform="translate(592.45,341.9) translate(-378.55,-340.1)" style="animation: a14_t 24s linear infinite;"/>
    <path class="st1" d="M175.6,353.6C176.4,353.6,177.1,352.9,177.1,352.1C177.1,351.3,176.4,350.6,175.6,350.6L153.5,350.6C152.7,350.6,152,351.3,152,352.1C152,352.9,152.7,353.6,153.5,353.6L175.6,353.6Z" fill="#d15454" transform="translate(378.45,353.9) translate(-164.55,-352.1)" style="animation: a15_t 24s linear infinite;"/>
    <path class="st1" d="M536.1,351.7C536.1,350.9,535.4,350.2,534.6,350.2L482.5,350.2C481.7,350.2,481,350.9,481,351.7C481,352.5,481.7,353.2,482.5,353.2L534.6,353.2C535.4,353.2,536.1,352.6,536.1,351.7Z" fill="#d15454" transform="translate(722.45,353.5) translate(-508.55,-351.7)" style="animation: a16_t 24s linear infinite;"/>
    <path class="st1" d="M537.4,333.2C538.2,333.2,538.9,332.5,538.9,331.7C538.9,330.9,538.2,330.2,537.4,330.2L523.5,330.2C522.7,330.2,522,330.9,522,331.7C522,332.5,522.7,333.2,523.5,333.2L537.4,333.2Z" fill="#d15454" transform="translate(744.35,333.5) translate(-530.45,-331.7)"/>
    <path class="st1" d="M283.9,364.1C283.9,363.3,284.6,362.6,285.4,362.6L337.5,362.6C338.3,362.6,339,363.3,339,364.1C339,364.9,338.3,365.6,337.5,365.6L285.4,365.6C284.5,365.6,283.9,364.9,283.9,364.1Z" fill="#d15454" transform="translate(525.35,365.9) translate(-311.45,-364.1)" style="animation: a17_t 24s linear infinite;"/>
    <path class="st1" d="M282.5,345.6C281.7,345.6,281,344.9,281,344.1C281,343.3,281.7,342.6,282.5,342.6L296.4,342.6C297.2,342.6,297.9,343.3,297.9,344.1C297.9,344.9,297.2,345.6,296.4,345.6L282.5,345.6Z" fill="#d15454" transform="translate(503.35,345.9) translate(-289.45,-344.1)" style="animation: a18_t 24s linear infinite;"/>
    <g transform="translate(1919.5,234.56) translate(-29.6879,-45.4149)">
        <path id="Fill-121" class="st4" d="M1969.4,278.6L1972.3,224.9L1973.6,224.9L1976.5,278.6L1969.4,278.6ZM1982.9,278.6L1979.3,278.6L1976.3,224.4L1976.3,224L1969.8,224L1966.9,278.6L1963.3,278.6C1962.5,278.6,1962,279.1,1962,279.9C1962,280.7,1962.5,281.2,1963.3,281.2L1983,281.2C1983.8,281.2,1984.3,280.7,1984.3,279.9C1984.2,279.1,1983.6,278.6,1982.9,278.6L1982.9,278.6Z" fill="#d15454" transform="translate(-1940.81,-188.145)"/>
        <g transform="translate(32.6087,31.8589) translate(-28.9125,-29.75)" style="animation: a19_t 24s linear infinite;">
            <path id="Fill-4_1_" class="st1" d="M1909.2,65.3C1908.9,64.9,1908.4,64.8,1908,65.1C1907.6,65.4,1907.5,65.9,1907.8,66.3C1910.9,70.8,1912.6,76.2,1912.6,81.7C1912.6,83.3,1912.5,85,1912.2,86.6C1912.1,87.1,1912.4,87.5,1912.9,87.6C1913,87.6,1913,87.6,1913.1,87.6C1913.5,87.6,1913.9,87.3,1914,86.9C1914.3,85.2,1914.5,83.4,1914.5,81.7C1914.3,75.8,1912.6,70.1,1909.2,65.3" fill="#d15454" transform="translate(-1856.67,-51.4)"/>
            <path id="Fill-5_1_" class="st1" d="M1858.4,73C1861.2,63.9,1868.7,57,1877.9,55C1878.4,54.9,1878.7,54.4,1878.6,54C1878.5,53.5,1878,53.2,1877.6,53.3C1867.7,55.4,1859.7,62.8,1856.7,72.5C1856.6,73,1856.8,73.5,1857.3,73.6C1857.4,73.6,1857.5,73.6,1857.6,73.6C1858,73.6,1858.3,73.4,1858.4,73" fill="#d15454" transform="translate(-1856.67,-51.4)"/>
            <path id="Fill-7_1_" class="st1" d="M1885.3,109.2C1878.6,109.2,1872.2,106.8,1867.2,102.3C1866.8,102,1866.3,102,1866,102.4C1865.7,102.8,1865.7,103.3,1866.1,103.6C1871.4,108.3,1878.2,110.9,1885.3,110.9C1885.8,110.9,1886.2,110.5,1886.2,110C1886.2,109.6,1885.8,109.2,1885.3,109.2" fill="#d15454" transform="translate(-1856.67,-51.4)"/>
            <path id="Fill-9_1_" class="st1" d="M1877.6,59.5C1870.4,61.5,1864.9,67,1862.6,74.1C1862.5,74.6,1862.7,75.1,1863.2,75.2C1863.3,75.2,1863.4,75.2,1863.5,75.2C1863.9,75.2,1864.2,75,1864.3,74.6C1866.3,68.1,1871.5,63,1878.1,61.2C1878.6,61.1,1878.8,60.6,1878.7,60.1C1878.5,59.7,1878,59.4,1877.6,59.5" fill="#d15454" transform="translate(-1856.67,-51.4)"/>
            <path id="Fill-11_1_" class="st1" d="M1885.3,102.9C1881.2,102.9,1877.2,101.7,1873.8,99.4C1873.4,99.1,1872.9,99.2,1872.6,99.6C1872.3,100,1872.4,100.5,1872.8,100.8C1876.5,103.3,1880.8,104.6,1885.3,104.6C1885.8,104.6,1886.2,104.2,1886.2,103.7C1886.2,103.3,1885.8,102.9,1885.3,102.9" fill="#d15454" transform="translate(-1856.67,-51.4)"/>
            <path id="Fill-13_1_" class="st1" d="M1910,95.7C1909.7,96.3,1908.9,96.6,1908.2,96.1L1886,84.7C1885.8,84.6,1885.6,84.6,1885.4,84.6C1885.2,84.6,1885,84.6,1884.8,84.7L1862.5,96.2C1861.9,96.5,1861.1,96.3,1860.7,95.7C1860.3,95.1,1860.6,94.3,1861.2,93.9L1882.2,80.4C1882.6,80.2,1882.8,79.8,1882.8,79.4L1884.1,55.4C1884.1,54.7,1884.7,54.1,1885.4,54.1C1886.1,54.1,1886.7,54.7,1886.7,55.5L1887.8,79.4C1887.8,79.8,1888,80.2,1888.4,80.4L1909.5,94C1910.2,94.3,1910.4,95.1,1910,95.7M1910.9,91.7L1890.4,78.5L1889.4,55.3C1889.4,53.2,1887.7,51.4,1885.5,51.4C1883.4,51.4,1881.6,53.1,1881.6,55.2L1880.3,78.5L1859.9,91.6C1858,92.7,1857.4,95.1,1858.5,96.9C1859.2,98.1,1860.5,98.8,1861.9,98.8C1862.6,98.8,1863.2,98.6,1863.8,98.3L1885.4,87.1L1907,98.2C1907.6,98.5,1908.3,98.7,1908.9,98.7C1910.3,98.7,1911.6,98,1912.3,96.8C1913.3,95.1,1912.7,92.8,1910.9,91.7" fill="#d15454" transform="translate(-1856.67,-51.4)"/>
        </g>
        <path d="M3.53231,3.53231C4.50773,2.55689,4.99544,1.37945,4.99544,0C4.99544,-1.37945,4.50773,-2.55689,3.53231,-3.53231C2.55689,-4.50773,1.37945,-4.99544,0,-4.99544C-1.37945,-4.99544,-2.55689,-4.50773,-3.53231,-3.53231C-4.50773,-2.55689,-4.99544,-1.37945,-4.99544,0C-4.99544,1.37945,-4.50773,2.55689,-3.53231,3.53231C-2.55689,4.50773,-1.37945,4.99544,0,4.99544C1.37945,4.99544,2.55689,4.50773,3.53231,3.53231ZM2.1181,-2.1181C2.70299,-1.5332,2.99544,-0.827168,2.99544,0C2.99544,0.827168,2.70299,1.5332,2.1181,2.1181C1.5332,2.70299,0.827168,2.99544,0,2.99544C-0.827168,2.99544,-1.5332,2.70299,-2.1181,2.1181C-2.70299,1.5332,-2.99544,0.827168,-2.99544,0C-2.99544,-0.827168,-2.70299,-1.5332,-2.1181,-2.1181C-1.5332,-2.70299,-0.827168,-2.99544,0,-2.99544C0.827168,-2.99544,1.5332,-2.70299,2.1181,-2.1181Z" fill="#d15454" stroke="none" fill-rule="evenodd" fill-opacity="1" transform="translate(33.0469,32.5683) translate(-0.709079,-0.709079)"/>
    </g>
    <g transform="translate(2056.03,234.56) translate(-29.6879,-45.4149)">
        <path id="Fill-2" class="st4" d="M1969.4,278.6L1972.3,224.9L1973.6,224.9L1976.5,278.6L1969.4,278.6ZM1982.9,278.6L1979.3,278.6L1976.3,224.4L1976.3,224L1969.8,224L1966.9,278.6L1963.3,278.6C1962.5,278.6,1962,279.1,1962,279.9C1962,280.7,1962.5,281.2,1963.3,281.2L1983,281.2C1983.8,281.2,1984.3,280.7,1984.3,279.9C1984.2,279.1,1983.6,278.6,1982.9,278.6L1982.9,278.6Z" fill="#d15454" transform="translate(-1940.81,-188.145)"/>
        <g transform="translate(32.6087,31.8589) rotate(180) translate(-28.9125,-29.75)" style="animation: a20_t 24s linear infinite;">
            <path id="Fill-4_1_-2" class="st1" d="M1909.2,65.3C1908.9,64.9,1908.4,64.8,1908,65.1C1907.6,65.4,1907.5,65.9,1907.8,66.3C1910.9,70.8,1912.6,76.2,1912.6,81.7C1912.6,83.3,1912.5,85,1912.2,86.6C1912.1,87.1,1912.4,87.5,1912.9,87.6C1913,87.6,1913,87.6,1913.1,87.6C1913.5,87.6,1913.9,87.3,1914,86.9C1914.3,85.2,1914.5,83.4,1914.5,81.7C1914.3,75.8,1912.6,70.1,1909.2,65.3" fill="#d15454" transform="translate(-1856.67,-51.4)"/>
            <path id="Fill-5_1_-2" class="st1" d="M1858.4,73C1861.2,63.9,1868.7,57,1877.9,55C1878.4,54.9,1878.7,54.4,1878.6,54C1878.5,53.5,1878,53.2,1877.6,53.3C1867.7,55.4,1859.7,62.8,1856.7,72.5C1856.6,73,1856.8,73.5,1857.3,73.6C1857.4,73.6,1857.5,73.6,1857.6,73.6C1858,73.6,1858.3,73.4,1858.4,73" fill="#d15454" transform="translate(-1856.67,-51.4)"/>
            <path id="Fill-7_1_-2" class="st1" d="M1885.3,109.2C1878.6,109.2,1872.2,106.8,1867.2,102.3C1866.8,102,1866.3,102,1866,102.4C1865.7,102.8,1865.7,103.3,1866.1,103.6C1871.4,108.3,1878.2,110.9,1885.3,110.9C1885.8,110.9,1886.2,110.5,1886.2,110C1886.2,109.6,1885.8,109.2,1885.3,109.2" fill="#d15454" transform="translate(-1856.67,-51.4)"/>
            <path id="Fill-9_1_-2" class="st1" d="M1877.6,59.5C1870.4,61.5,1864.9,67,1862.6,74.1C1862.5,74.6,1862.7,75.1,1863.2,75.2C1863.3,75.2,1863.4,75.2,1863.5,75.2C1863.9,75.2,1864.2,75,1864.3,74.6C1866.3,68.1,1871.5,63,1878.1,61.2C1878.6,61.1,1878.8,60.6,1878.7,60.1C1878.5,59.7,1878,59.4,1877.6,59.5" fill="#d15454" transform="translate(-1856.67,-51.4)"/>
            <path id="Fill-11_1_-2" class="st1" d="M1885.3,102.9C1881.2,102.9,1877.2,101.7,1873.8,99.4C1873.4,99.1,1872.9,99.2,1872.6,99.6C1872.3,100,1872.4,100.5,1872.8,100.8C1876.5,103.3,1880.8,104.6,1885.3,104.6C1885.8,104.6,1886.2,104.2,1886.2,103.7C1886.2,103.3,1885.8,102.9,1885.3,102.9" fill="#d15454" transform="translate(-1856.67,-51.4)"/>
            <path id="Fill-13_1_-2" class="st1" d="M1910,95.7C1909.7,96.3,1908.9,96.6,1908.2,96.1L1886,84.7C1885.8,84.6,1885.6,84.6,1885.4,84.6C1885.2,84.6,1885,84.6,1884.8,84.7L1862.5,96.2C1861.9,96.5,1861.1,96.3,1860.7,95.7C1860.3,95.1,1860.6,94.3,1861.2,93.9L1882.2,80.4C1882.6,80.2,1882.8,79.8,1882.8,79.4L1884.1,55.4C1884.1,54.7,1884.7,54.1,1885.4,54.1C1886.1,54.1,1886.7,54.7,1886.7,55.5L1887.8,79.4C1887.8,79.8,1888,80.2,1888.4,80.4L1909.5,94C1910.2,94.3,1910.4,95.1,1910,95.7M1910.9,91.7L1890.4,78.5L1889.4,55.3C1889.4,53.2,1887.7,51.4,1885.5,51.4C1883.4,51.4,1881.6,53.1,1881.6,55.2L1880.3,78.5L1859.9,91.6C1858,92.7,1857.4,95.1,1858.5,96.9C1859.2,98.1,1860.5,98.8,1861.9,98.8C1862.6,98.8,1863.2,98.6,1863.8,98.3L1885.4,87.1L1907,98.2C1907.6,98.5,1908.3,98.7,1908.9,98.7C1910.3,98.7,1911.6,98,1912.3,96.8C1913.3,95.1,1912.7,92.8,1910.9,91.7" fill="#d15454" transform="translate(-1856.67,-51.4)"/>
        </g>
        <path fill="#d15454" stroke="none" d="M3.53231,3.53231C4.50773,2.55689,4.99544,1.37945,4.99544,0C4.99544,-1.37945,4.50773,-2.55689,3.53231,-3.53231C2.55689,-4.50773,1.37945,-4.99544,0,-4.99544C-1.37945,-4.99544,-2.55689,-4.50773,-3.53231,-3.53231C-4.50773,-2.55689,-4.99544,-1.37945,-4.99544,0C-4.99544,1.37945,-4.50773,2.55689,-3.53231,3.53231C-2.55689,4.50773,-1.37945,4.99544,0,4.99544C1.37945,4.99544,2.55689,4.50773,3.53231,3.53231ZM2.1181,-2.1181C2.70299,-1.5332,2.99544,-0.827168,2.99544,0C2.99544,0.827168,2.70299,1.5332,2.1181,2.1181C1.5332,2.70299,0.827168,2.99544,0,2.99544C-0.827168,2.99544,-1.5332,2.70299,-2.1181,2.1181C-2.70299,1.5332,-2.99544,0.827168,-2.99544,0C-2.99544,-0.827168,-2.70299,-1.5332,-2.1181,-2.1181C-1.5332,-2.70299,-0.827168,-2.99544,0,-2.99544C0.827168,-2.99544,1.5332,-2.70299,2.1181,-2.1181Z" fill-rule="evenodd" fill-opacity="1" transform="translate(33.0469,32.5683) translate(-0.709079,-0.709079)"/>
    </g>
</svg>
