<svg width="48" height="47" viewBox="0 0 48 47" version="1.1" xmlns="http://www.w3.org/2000/svg" xmlns:xlink="http://www.w3.org/1999/xlink">
<title>&#208;&#183;&#208;&#189;&#208;&#176;&#209;&#135;&#208;&#190;&#208;&#186;</title>
<desc>Created using Figma</desc>
<g id="Canvas" transform="translate(-1941 -8505)">
<g id="&#208;&#183;&#208;&#189;&#208;&#176;&#209;&#135;&#208;&#190;&#208;&#186;">
<g id="Oval">
<use xlink:href="#path0_fill" transform="translate(1956 8519)" fill="#FFFFFF"/>
</g>
<g id="Combined Shape">
<use xlink:href="#path1_fill" transform="matrix(0.707107 -0.707107 0.707107 0.707107 1941.89 8528.61)" fill="#FFFFFF"/>
</g>
</g>
</g>
<defs>
<path id="path0_fill" fill-rule="evenodd" d="M 9 18C 13.9706 18 18 13.9706 18 9C 18 4.02944 13.9706 0 9 0C 4.02944 0 0 4.02944 0 9C 0 13.9706 4.02944 18 9 18Z"/>
<path id="path1_fill" fill-rule="evenodd" d="M 32.8805 0L 22.6053 0L 22.6053 2.05503L 30.8254 2.05503L 30.8254 10.2751L 32.8805 10.2751L 32.8805 2.05503L 32.8805 0ZM 22.6053 32.8805L 32.8805 32.8805L 32.8805 30.8254L 32.8805 22.6053L 30.8254 22.6053L 30.8254 30.8254L 22.6053 30.8254L 22.6053 32.8805ZM 10.2751 0L 9.09495e-13 0L 0 2.05503L 9.09495e-13 10.2751L 2.05503 10.2751L 2.05503 2.05503L 10.2751 2.05503L 10.2751 0ZM 10.2751 32.8805L 9.09495e-13 32.8805L 9.09495e-13 30.8254L 9.09495e-13 22.6053L 2.05503 22.6053L 2.05503 30.8254L 10.2751 30.8254L 10.2751 32.8805Z"/>
</defs>
</svg>
