<svg id="Layer_1" data-name="Layer 1" xmlns="http://www.w3.org/2000/svg" width="50mm" height="50mm" viewBox="0 0 141.7 141.7">
  <defs>
    <style>
      .cls-1 {
        fill: #2c2a6f;
      }

      .cls-2 {
        fill: #fff;
      }
    </style>
  </defs>
  <title>Tass_logo__blui_rgb_rus</title>
  <rect class="cls-1" width="141.7" height="141.73"/>
  <polygon class="cls-2" points="8.9 88.9 41 88.9 36.6 96.5 28.2 96.5 28.2 121.6 20.1 121.6 20.1 96.5 8.9 96.5 8.9 88.9"/>
  <path class="cls-2" d="M85.5,96.5A1.4,1.4,0,0,0,84,98.1v14.5a1.3,1.3,0,0,0,1.5,1.4h16.7v7.6H85.5c-5.8,0-9.6-3.5-9.6-9V98.1c0-5.6,3.8-9.2,9.6-9.2h18.7l-4.4,7.6Z" transform="translate(0 0)"/>
  <path class="cls-2" d="M61.4,88.9h-15L42,96.5H61.4a1.4,1.4,0,0,1,1.5,1.6v3.4H50.3a10.1,10.1,0,0,0,0,20.1H71V98.1c0-5.6-3.8-9.2-9.6-9.2m1.5,25.4H51.3a2.9,2.9,0,1,1,0-5.8H62.9Z" transform="translate(0 0)"/>
  <path class="cls-2" d="M115.4,96.5a1.5,1.5,0,0,0-1.6,1.6v14.5a1.4,1.4,0,0,0,1.6,1.4H132v7.6H115.4c-5.9,0-9.6-3.5-9.6-9V98.1c0-5.6,3.7-9.2,9.6-9.2H134l-4.4,7.6Z" transform="translate(0 0)"/>
</svg>
