<svg width="50" height="50" viewBox="0 0 50 50" version="1.1" xmlns="http://www.w3.org/2000/svg" xmlns:xlink="http://www.w3.org/1999/xlink">
<title>Mask Copy</title>
<desc>Created using Figma</desc>
<g id="Canvas" transform="translate(-1292 3398)">
<g id="Mask Copy">
<use xlink:href="#path0_fill" transform="translate(1292 -3398)" fill="#1A237E"/>
</g>
</g>
<defs>
<path id="path0_fill" fill-rule="evenodd" d="M 0 50L 50 50L 50 0L 0 0L 0 50ZM 30.1431 33.9956C 29.8217 33.9956 29.5918 34.1946 29.5918 34.5312L 29.5918 39.6309C 29.5918 39.9678 29.8217 40.1509 30.1431 40.1509L 36.0127 40.1509L 36.0127 42.8308L 30.1431 42.8308C 28.0902 42.8308 26.7574 41.5906 26.7574 39.6309L 26.7574 34.5312C 26.7574 32.5869 28.0902 31.3157 30.1431 31.3157L 36.7177 31.3157L 35.1696 33.9956L 30.1431 33.9956ZM 18.0869 40.2341L 22.1825 40.2341L 22.1825 38.1951L 18.0869 38.1951C 17.5022 38.1951 17.0757 38.6221 17.0757 39.2224C 17.0757 39.8074 17.5022 40.2341 18.0869 40.2341ZM 21.646 31.3157L 16.3443 31.3157L 14.7955 33.9956L 21.646 33.9956C 21.9834 33.9956 22.1825 34.1949 22.1825 34.5315L 22.1825 35.7565L 17.7384 35.7565C 15.7 35.7565 14.1984 37.2572 14.1984 39.2935C 14.1984 41.3305 15.7 42.8308 17.7384 42.8308L 25.0176 42.8308L 25.0176 34.5315C 25.0176 32.5868 23.6841 31.3157 21.646 31.3157ZM 40.6636 33.9956C 40.3421 33.9956 40.1116 34.1945 40.1116 34.5312L 40.1116 39.6308C 40.1116 39.9678 40.3421 40.1509 40.6636 40.1509L 46.5324 40.1509L 46.5324 42.8308L 40.6636 42.8308C 38.61 42.8308 37.2772 41.5907 37.2772 39.6308L 37.2772 34.5312C 37.2772 32.5868 38.61 31.3157 40.6636 31.3157L 47.2381 31.3157L 45.69 33.9956L 40.6636 33.9956ZM 3.1283 31.3154L 14.4533 31.3154L 12.9052 33.9954L 9.93303 33.9954L 9.93303 42.8306L 7.09764 42.8306L 7.09764 33.9954L 3.1283 33.9954L 3.1283 31.3154Z"/>
</defs>
</svg>
