<?xml version="1.0" standalone="no"?>
<!DOCTYPE svg PUBLIC "-//W3C//DTD SVG 20010904//EN"
 "http://www.w3.org/TR/2001/REC-SVG-20010904/DTD/svg10.dtd">
<svg version="1.0" xmlns="http://www.w3.org/2000/svg"
 width="700.000000pt" height="700.000000pt" viewBox="0 0 700.000000 700.000000"
 preserveAspectRatio="xMidYMid meet">
<metadata>
Created by potrace 1.11, written by Peter Selinger 2001-2013
</metadata>
<g transform="translate(0.000000,700.000000) scale(0.100000,-0.100000)"
fill="#000000" stroke="none">
<path d="M1785 5605 l0 -385 -30 -1 c-16 0 -194 -1 -395 -2 l-364 -2 -1 -2102
0 -2103 65 0 c100 -1 4818 -1 4878 -1 l52 1 0 2104 0 2104 -395 -1 c-256 -1
-396 2 -398 8 -2 6 -3 180 -3 388 l1 377 -211 0 -212 0 0 -381 c0 -209 -2
-383 -5 -386 -4 -4 -2421 -8 -2542 -4 -20 1 -20 8 -20 386 l1 385 -211 0 -210
0 0 -385z m3770 -2493 l0 -1667 -2055 1 c-1130 1 -2057 2 -2060 3 -5 1 -6
3321 -1 3329 0 1 927 2 2059 2 l2057 0 0 -1668z"/>
<path d="M3843 3497 c-287 -287 -540 -540 -562 -562 l-41 -39 -310 309 -310
310 -147 -148 -148 -147 461 -461 460 -460 705 706 c387 388 705 710 707 715
2 6 -284 301 -291 300 -1 0 -237 -236 -524 -523z"/>
</g>
</svg>
